<svg width="84" height="84" fill="none" xmlns="http://www.w3.org/2000/svg"><g opacity=".1" fill="#fff"><circle cx="54.898" cy="37.43" r="1.68" transform="rotate(90 54.898 37.43)"/><circle cx="54.898" cy="2.2" r="1.68" transform="rotate(90 54.898 2.2)"/><circle cx="54.898" cy="72.66" r="1.68" transform="rotate(90 54.898 72.66)"/><circle cx="54.898" cy="55.045" r="1.68" transform="rotate(90 54.898 55.045)"/><circle cx="54.898" cy="19.816" r="1.68" transform="rotate(90 54.898 19.816)"/><circle cx="11.288" cy="37.43" r="1.68" transform="rotate(90 11.288 37.43)"/><circle cx="72.511" cy="37.43" r="1.68" transform="rotate(90 72.511 37.43)"/><circle cx="11.288" cy="2.2" r="1.68" transform="rotate(90 11.288 2.2)"/><circle cx="72.511" cy="2.2" r="1.68" transform="rotate(90 72.511 2.2)"/><circle cx="11.288" cy="72.66" r="1.68" transform="rotate(90 11.288 72.66)"/><circle cx="72.511" cy="72.66" r="1.68" transform="rotate(90 72.511 72.66)"/><circle cx="11.288" cy="55.045" r="1.68" transform="rotate(90 11.288 55.045)"/><circle cx="72.511" cy="55.045" r="1.68" transform="rotate(90 72.511 55.045)"/><circle cx="11.288" cy="19.816" r="1.68" transform="rotate(90 11.288 19.816)"/><circle cx="72.511" cy="19.816" r="1.68" transform="rotate(90 72.511 19.816)"/><circle cx="37.71" cy="37.43" r="1.68" transform="rotate(90 37.71 37.43)"/><circle cx="37.71" cy="2.2" r="1.68" transform="rotate(90 37.71 2.2)"/><circle cx="37.71" cy="72.66" r="1.68" transform="rotate(90 37.71 72.66)"/><circle cx="37.71" cy="55.045" r="1.68" transform="rotate(90 37.71 55.045)"/><circle cx="37.71" cy="19.816" r="1.68" transform="rotate(90 37.71 19.816)"/><circle cx="20.097" cy="37.43" r="1.68" transform="rotate(90 20.097 37.43)"/><circle cx="81.32" cy="37.43" r="1.68" transform="rotate(90 81.32 37.43)"/><circle cx="20.097" cy="2.2" r="1.68" transform="rotate(90 20.097 2.2)"/><circle cx="81.32" cy="2.2" r="1.68" transform="rotate(90 81.32 2.2)"/><circle cx="20.097" cy="72.66" r="1.68" transform="rotate(90 20.097 72.66)"/><circle cx="81.32" cy="72.66" r="1.68" transform="rotate(90 81.32 72.66)"/><circle cx="20.097" cy="55.045" r="1.68" transform="rotate(90 20.097 55.045)"/><circle cx="81.32" cy="55.045" r="1.68" transform="rotate(90 81.32 55.045)"/><circle cx="20.097" cy="19.816" r="1.68" transform="rotate(90 20.097 19.816)"/><circle cx="81.32" cy="19.816" r="1.68" transform="rotate(90 81.32 19.816)"/><circle cx="46.089" cy="37.43" r="1.68" transform="rotate(90 46.09 37.43)"/><circle cx="46.089" cy="2.2" r="1.68" transform="rotate(90 46.09 2.2)"/><circle cx="46.089" cy="72.66" r="1.68" transform="rotate(90 46.09 72.66)"/><circle cx="46.089" cy="55.045" r="1.68" transform="rotate(90 46.09 55.045)"/><circle cx="46.089" cy="19.816" r="1.68" transform="rotate(90 46.09 19.816)"/><circle cx="2.48" cy="37.43" r="1.68" transform="rotate(90 2.48 37.43)"/><circle cx="63.703" cy="37.43" r="1.68" transform="rotate(90 63.703 37.43)"/><circle cx="2.48" cy="2.2" r="1.68" transform="rotate(90 2.48 2.2)"/><circle cx="63.703" cy="2.2" r="1.68" transform="rotate(90 63.703 2.2)"/><circle cx="2.48" cy="72.66" r="1.68" transform="rotate(90 2.48 72.66)"/><circle cx="63.703" cy="72.66" r="1.68" transform="rotate(90 63.703 72.66)"/><circle cx="2.48" cy="55.045" r="1.68" transform="rotate(90 2.48 55.045)"/><circle cx="63.703" cy="55.045" r="1.68" transform="rotate(90 63.703 55.045)"/><circle cx="2.48" cy="19.816" r="1.68" transform="rotate(90 2.48 19.816)"/><circle cx="63.703" cy="19.816" r="1.68" transform="rotate(90 63.703 19.816)"/><circle cx="28.902" cy="37.43" r="1.68" transform="rotate(90 28.902 37.43)"/><circle cx="28.902" cy="2.2" r="1.68" transform="rotate(90 28.902 2.2)"/><circle cx="28.902" cy="72.66" r="1.68" transform="rotate(90 28.902 72.66)"/><circle cx="28.902" cy="55.045" r="1.68" transform="rotate(90 28.902 55.045)"/><circle cx="28.902" cy="19.816" r="1.68" transform="rotate(90 28.902 19.816)"/><circle cx="54.898" cy="46.238" r="1.68" transform="rotate(90 54.898 46.238)"/><circle cx="54.898" cy="11.007" r="1.68" transform="rotate(90 54.898 11.007)"/><circle cx="54.898" cy="81.467" r="1.68" transform="rotate(90 54.898 81.467)"/><circle cx="54.898" cy="63.852" r="1.68" transform="rotate(90 54.898 63.852)"/><circle cx="54.898" cy="28.622" r="1.68" transform="rotate(90 54.898 28.622)"/><circle cx="11.288" cy="46.238" r="1.68" transform="rotate(90 11.288 46.238)"/><circle cx="72.511" cy="46.238" r="1.68" transform="rotate(90 72.511 46.238)"/><circle cx="11.288" cy="11.007" r="1.68" transform="rotate(90 11.288 11.007)"/><circle cx="72.511" cy="11.007" r="1.68" transform="rotate(90 72.511 11.007)"/><circle cx="11.288" cy="81.467" r="1.68" transform="rotate(90 11.288 81.467)"/><circle cx="72.511" cy="81.467" r="1.68" transform="rotate(90 72.511 81.467)"/><circle cx="11.288" cy="63.852" r="1.68" transform="rotate(90 11.288 63.852)"/><circle cx="72.511" cy="63.852" r="1.68" transform="rotate(90 72.511 63.852)"/><circle cx="11.288" cy="28.622" r="1.68" transform="rotate(90 11.288 28.622)"/><circle cx="72.511" cy="28.622" r="1.68" transform="rotate(90 72.511 28.622)"/><circle cx="37.71" cy="46.238" r="1.68" transform="rotate(90 37.71 46.238)"/><circle cx="37.71" cy="11.007" r="1.68" transform="rotate(90 37.71 11.007)"/><circle cx="37.71" cy="81.467" r="1.68" transform="rotate(90 37.71 81.467)"/><circle cx="37.71" cy="63.852" r="1.68" transform="rotate(90 37.71 63.852)"/><circle cx="37.71" cy="28.622" r="1.68" transform="rotate(90 37.71 28.622)"/><circle cx="20.097" cy="46.238" r="1.68" transform="rotate(90 20.097 46.238)"/><circle cx="81.32" cy="46.238" r="1.68" transform="rotate(90 81.32 46.238)"/><circle cx="20.097" cy="11.007" r="1.68" transform="rotate(90 20.097 11.007)"/><circle cx="81.32" cy="11.007" r="1.68" transform="rotate(90 81.32 11.007)"/><circle cx="20.097" cy="81.467" r="1.68" transform="rotate(90 20.097 81.467)"/><circle cx="81.32" cy="81.467" r="1.68" transform="rotate(90 81.32 81.467)"/><circle cx="20.097" cy="63.852" r="1.68" transform="rotate(90 20.097 63.852)"/><circle cx="81.32" cy="63.852" r="1.68" transform="rotate(90 81.32 63.852)"/><circle cx="20.097" cy="28.622" r="1.68" transform="rotate(90 20.097 28.622)"/><circle cx="81.32" cy="28.622" r="1.68" transform="rotate(90 81.32 28.622)"/><circle cx="46.089" cy="46.238" r="1.68" transform="rotate(90 46.09 46.238)"/><circle cx="46.089" cy="11.007" r="1.68" transform="rotate(90 46.09 11.007)"/><circle cx="46.089" cy="81.467" r="1.68" transform="rotate(90 46.09 81.467)"/><circle cx="46.089" cy="63.852" r="1.68" transform="rotate(90 46.09 63.852)"/><circle cx="46.089" cy="28.622" r="1.68" transform="rotate(90 46.09 28.622)"/><circle cx="2.48" cy="46.238" r="1.68" transform="rotate(90 2.48 46.238)"/><circle cx="63.703" cy="46.238" r="1.68" transform="rotate(90 63.703 46.238)"/><circle cx="2.48" cy="11.007" r="1.68" transform="rotate(90 2.48 11.007)"/><circle cx="63.703" cy="11.007" r="1.68" transform="rotate(90 63.703 11.007)"/><circle cx="2.48" cy="81.467" r="1.68" transform="rotate(90 2.48 81.467)"/><circle cx="63.703" cy="81.467" r="1.68" transform="rotate(90 63.703 81.467)"/><circle cx="2.48" cy="63.852" r="1.68" transform="rotate(90 2.48 63.852)"/><circle cx="63.703" cy="63.852" r="1.68" transform="rotate(90 63.703 63.852)"/><circle cx="2.48" cy="28.622" r="1.68" transform="rotate(90 2.48 28.622)"/><circle cx="63.703" cy="28.622" r="1.68" transform="rotate(90 63.703 28.622)"/><circle cx="28.902" cy="46.238" r="1.68" transform="rotate(90 28.902 46.238)"/><circle cx="28.902" cy="11.007" r="1.68" transform="rotate(90 28.902 11.007)"/><circle cx="28.902" cy="81.467" r="1.68" transform="rotate(90 28.902 81.467)"/><circle cx="28.902" cy="63.852" r="1.68" transform="rotate(90 28.902 63.852)"/><circle cx="28.902" cy="28.622" r="1.68" transform="rotate(90 28.902 28.622)"/></g></svg>