<svg width="118" height="119" fill="none" xmlns="http://www.w3.org/2000/svg"><g opacity=".1" fill="#fff"><circle cx="27.675" cy="1.97" r="1.68" transform="rotate(90 27.675 1.97)"/><circle cx="88.898" cy="1.97" r="1.68" transform="rotate(90 88.898 1.97)"/><circle cx="27.675" cy="72.43" r="1.68" transform="rotate(90 27.675 72.43)"/><circle cx="88.898" cy="72.43" r="1.68" transform="rotate(90 88.898 72.43)"/><circle cx="27.675" cy="37.2" r="1.68" transform="rotate(90 27.675 37.2)"/><circle cx="88.898" cy="37.2" r="1.68" transform="rotate(90 88.898 37.2)"/><circle cx="27.675" cy="107.66" r="1.68" transform="rotate(90 27.675 107.66)"/><circle cx="88.898" cy="107.66" r="1.68" transform="rotate(90 88.898 107.66)"/><circle cx="27.675" cy="19.585" r="1.68" transform="rotate(90 27.675 19.585)"/><circle cx="88.898" cy="19.585" r="1.68" transform="rotate(90 88.898 19.585)"/><circle cx="27.675" cy="90.045" r="1.68" transform="rotate(90 27.675 90.045)"/><circle cx="88.898" cy="90.045" r="1.68" transform="rotate(90 88.898 90.045)"/><circle cx="27.675" cy="54.815" r="1.68" transform="rotate(90 27.675 54.815)"/><circle cx="88.898" cy="54.815" r="1.68" transform="rotate(90 88.898 54.815)"/><circle cx="45.288" cy="1.97" r="1.68" transform="rotate(90 45.288 1.97)"/><circle cx="106.511" cy="1.97" r="1.68" transform="rotate(90 106.511 1.97)"/><circle cx="45.288" cy="72.43" r="1.68" transform="rotate(90 45.288 72.43)"/><circle cx="106.511" cy="72.43" r="1.68" transform="rotate(90 106.511 72.43)"/><circle cx="45.288" cy="37.2" r="1.68" transform="rotate(90 45.288 37.2)"/><circle cx="106.511" cy="37.2" r="1.68" transform="rotate(90 106.511 37.2)"/><circle cx="45.288" cy="107.66" r="1.68" transform="rotate(90 45.288 107.66)"/><circle cx="106.511" cy="107.66" r="1.68" transform="rotate(90 106.511 107.66)"/><circle cx="45.288" cy="19.585" r="1.68" transform="rotate(90 45.288 19.585)"/><circle cx="106.511" cy="19.585" r="1.68" transform="rotate(90 106.511 19.585)"/><circle cx="45.288" cy="90.045" r="1.68" transform="rotate(90 45.288 90.045)"/><circle cx="106.511" cy="90.045" r="1.68" transform="rotate(90 106.511 90.045)"/><circle cx="45.288" cy="54.815" r="1.68" transform="rotate(90 45.288 54.815)"/><circle cx="106.511" cy="54.815" r="1.68" transform="rotate(90 106.511 54.815)"/><circle cx="10.488" cy="1.97" r="1.68" transform="rotate(90 10.488 1.97)"/><circle cx="71.71" cy="1.97" r="1.68" transform="rotate(90 71.71 1.97)"/><circle cx="10.488" cy="72.43" r="1.68" transform="rotate(90 10.488 72.43)"/><circle cx="71.71" cy="72.43" r="1.68" transform="rotate(90 71.71 72.43)"/><circle cx="10.488" cy="37.2" r="1.68" transform="rotate(90 10.488 37.2)"/><circle cx="71.71" cy="37.2" r="1.68" transform="rotate(90 71.71 37.2)"/><circle cx="10.488" cy="107.66" r="1.68" transform="rotate(90 10.488 107.66)"/><circle cx="71.71" cy="107.66" r="1.68" transform="rotate(90 71.71 107.66)"/><circle cx="10.488" cy="19.585" r="1.68" transform="rotate(90 10.488 19.585)"/><circle cx="71.71" cy="19.585" r="1.68" transform="rotate(90 71.71 19.585)"/><circle cx="10.488" cy="90.045" r="1.68" transform="rotate(90 10.488 90.045)"/><circle cx="71.71" cy="90.045" r="1.68" transform="rotate(90 71.71 90.045)"/><circle cx="10.488" cy="54.815" r="1.68" transform="rotate(90 10.488 54.815)"/><circle cx="71.71" cy="54.815" r="1.68" transform="rotate(90 71.71 54.815)"/><circle cx="54.097" cy="1.97" r="1.68" transform="rotate(90 54.097 1.97)"/><circle cx="115.32" cy="1.97" r="1.68" transform="rotate(90 115.32 1.97)"/><circle cx="54.097" cy="72.43" r="1.68" transform="rotate(90 54.097 72.43)"/><circle cx="115.32" cy="72.43" r="1.68" transform="rotate(90 115.32 72.43)"/><circle cx="54.097" cy="37.2" r="1.68" transform="rotate(90 54.097 37.2)"/><circle cx="115.32" cy="37.2" r="1.68" transform="rotate(90 115.32 37.2)"/><circle cx="54.097" cy="107.66" r="1.68" transform="rotate(90 54.097 107.66)"/><circle cx="115.32" cy="107.66" r="1.68" transform="rotate(90 115.32 107.66)"/><circle cx="54.097" cy="19.585" r="1.68" transform="rotate(90 54.097 19.585)"/><circle cx="115.32" cy="19.585" r="1.68" transform="rotate(90 115.32 19.585)"/><circle cx="54.097" cy="90.045" r="1.68" transform="rotate(90 54.097 90.045)"/><circle cx="115.32" cy="90.045" r="1.68" transform="rotate(90 115.32 90.045)"/><circle cx="54.097" cy="54.815" r="1.68" transform="rotate(90 54.097 54.815)"/><circle cx="115.32" cy="54.815" r="1.68" transform="rotate(90 115.32 54.815)"/><circle cx="18.866" cy="1.97" r="1.68" transform="rotate(90 18.866 1.97)"/><circle cx="80.089" cy="1.97" r="1.68" transform="rotate(90 80.09 1.97)"/><circle cx="18.866" cy="72.43" r="1.68" transform="rotate(90 18.866 72.43)"/><circle cx="80.089" cy="72.43" r="1.68" transform="rotate(90 80.09 72.43)"/><circle cx="18.866" cy="37.2" r="1.68" transform="rotate(90 18.866 37.2)"/><circle cx="80.089" cy="37.2" r="1.68" transform="rotate(90 80.09 37.2)"/><circle cx="18.866" cy="107.66" r="1.68" transform="rotate(90 18.866 107.66)"/><circle cx="80.089" cy="107.66" r="1.68" transform="rotate(90 80.09 107.66)"/><circle cx="18.866" cy="19.585" r="1.68" transform="rotate(90 18.866 19.585)"/><circle cx="80.089" cy="19.585" r="1.68" transform="rotate(90 80.09 19.585)"/><circle cx="18.866" cy="90.045" r="1.68" transform="rotate(90 18.866 90.045)"/><circle cx="80.089" cy="90.045" r="1.68" transform="rotate(90 80.09 90.045)"/><circle cx="18.866" cy="54.815" r="1.68" transform="rotate(90 18.866 54.815)"/><circle cx="80.089" cy="54.815" r="1.68" transform="rotate(90 80.09 54.815)"/><circle cx="36.48" cy="1.97" r="1.68" transform="rotate(90 36.48 1.97)"/><circle cx="97.706" cy="1.97" r="1.68" transform="rotate(90 97.706 1.97)"/><circle cx="36.48" cy="72.43" r="1.68" transform="rotate(90 36.48 72.43)"/><circle cx="97.706" cy="72.43" r="1.68" transform="rotate(90 97.706 72.43)"/><circle cx="36.48" cy="37.2" r="1.68" transform="rotate(90 36.48 37.2)"/><circle cx="97.706" cy="37.2" r="1.68" transform="rotate(90 97.706 37.2)"/><circle cx="36.48" cy="107.66" r="1.68" transform="rotate(90 36.48 107.66)"/><circle cx="97.706" cy="107.66" r="1.68" transform="rotate(90 97.706 107.66)"/><circle cx="36.48" cy="19.585" r="1.68" transform="rotate(90 36.48 19.585)"/><circle cx="97.706" cy="19.585" r="1.68" transform="rotate(90 97.706 19.585)"/><circle cx="36.48" cy="90.045" r="1.68" transform="rotate(90 36.48 90.045)"/><circle cx="97.706" cy="90.045" r="1.68" transform="rotate(90 97.706 90.045)"/><circle cx="36.48" cy="54.815" r="1.68" transform="rotate(90 36.48 54.815)"/><circle cx="97.706" cy="54.815" r="1.68" transform="rotate(90 97.706 54.815)"/><circle cx="1.679" cy="1.97" r="1.68" transform="rotate(90 1.679 1.97)"/><circle cx="62.902" cy="1.97" r="1.68" transform="rotate(90 62.902 1.97)"/><circle cx="1.679" cy="72.43" r="1.68" transform="rotate(90 1.679 72.43)"/><circle cx="62.902" cy="72.43" r="1.68" transform="rotate(90 62.902 72.43)"/><circle cx="1.679" cy="37.2" r="1.68" transform="rotate(90 1.679 37.2)"/><circle cx="62.902" cy="37.2" r="1.68" transform="rotate(90 62.902 37.2)"/><circle cx="1.679" cy="107.66" r="1.68" transform="rotate(90 1.679 107.66)"/><circle cx="62.902" cy="107.66" r="1.68" transform="rotate(90 62.902 107.66)"/><circle cx="1.679" cy="19.585" r="1.68" transform="rotate(90 1.679 19.585)"/><circle cx="62.902" cy="19.585" r="1.68" transform="rotate(90 62.902 19.585)"/><circle cx="1.679" cy="90.045" r="1.68" transform="rotate(90 1.679 90.045)"/><circle cx="62.902" cy="90.045" r="1.68" transform="rotate(90 62.902 90.045)"/><circle cx="1.679" cy="54.815" r="1.68" transform="rotate(90 1.679 54.815)"/><circle cx="62.902" cy="54.815" r="1.68" transform="rotate(90 62.902 54.815)"/><circle cx="27.675" cy="10.777" r="1.68" transform="rotate(90 27.675 10.777)"/><circle cx="88.898" cy="10.777" r="1.68" transform="rotate(90 88.898 10.777)"/><circle cx="27.675" cy="81.238" r="1.68" transform="rotate(90 27.675 81.238)"/><circle cx="88.898" cy="81.238" r="1.68" transform="rotate(90 88.898 81.238)"/><circle cx="27.675" cy="46.007" r="1.68" transform="rotate(90 27.675 46.007)"/><circle cx="88.898" cy="46.007" r="1.68" transform="rotate(90 88.898 46.007)"/><circle cx="27.675" cy="116.467" r="1.68" transform="rotate(90 27.675 116.467)"/><circle cx="88.898" cy="116.467" r="1.68" transform="rotate(90 88.898 116.467)"/><circle cx="27.675" cy="28.392" r="1.68" transform="rotate(90 27.675 28.392)"/><circle cx="88.898" cy="28.392" r="1.68" transform="rotate(90 88.898 28.392)"/><circle cx="27.675" cy="98.853" r="1.68" transform="rotate(90 27.675 98.853)"/><circle cx="88.898" cy="98.853" r="1.68" transform="rotate(90 88.898 98.853)"/><circle cx="27.675" cy="63.622" r="1.68" transform="rotate(90 27.675 63.622)"/><circle cx="88.898" cy="63.622" r="1.68" transform="rotate(90 88.898 63.622)"/><circle cx="45.288" cy="10.777" r="1.68" transform="rotate(90 45.288 10.777)"/><circle cx="106.511" cy="10.777" r="1.68" transform="rotate(90 106.511 10.777)"/><circle cx="45.288" cy="81.238" r="1.68" transform="rotate(90 45.288 81.238)"/><circle cx="106.511" cy="81.238" r="1.68" transform="rotate(90 106.511 81.238)"/><circle cx="45.288" cy="46.007" r="1.68" transform="rotate(90 45.288 46.007)"/><circle cx="106.511" cy="46.007" r="1.68" transform="rotate(90 106.511 46.007)"/><circle cx="45.288" cy="116.467" r="1.68" transform="rotate(90 45.288 116.467)"/><circle cx="106.511" cy="116.467" r="1.68" transform="rotate(90 106.511 116.467)"/><circle cx="45.288" cy="28.392" r="1.68" transform="rotate(90 45.288 28.392)"/><circle cx="106.511" cy="28.392" r="1.68" transform="rotate(90 106.511 28.392)"/><circle cx="45.288" cy="98.853" r="1.68" transform="rotate(90 45.288 98.853)"/><circle cx="106.511" cy="98.853" r="1.68" transform="rotate(90 106.511 98.853)"/><circle cx="45.288" cy="63.622" r="1.68" transform="rotate(90 45.288 63.622)"/><circle cx="106.511" cy="63.622" r="1.68" transform="rotate(90 106.511 63.622)"/><circle cx="10.488" cy="10.777" r="1.68" transform="rotate(90 10.488 10.777)"/><circle cx="71.71" cy="10.777" r="1.68" transform="rotate(90 71.71 10.777)"/><circle cx="10.488" cy="81.238" r="1.68" transform="rotate(90 10.488 81.238)"/><circle cx="71.71" cy="81.238" r="1.68" transform="rotate(90 71.71 81.238)"/><circle cx="10.488" cy="46.007" r="1.68" transform="rotate(90 10.488 46.007)"/><circle cx="71.71" cy="46.007" r="1.68" transform="rotate(90 71.71 46.007)"/><circle cx="10.488" cy="116.467" r="1.68" transform="rotate(90 10.488 116.467)"/><circle cx="71.71" cy="116.467" r="1.68" transform="rotate(90 71.71 116.467)"/><circle cx="10.488" cy="28.392" r="1.68" transform="rotate(90 10.488 28.392)"/><circle cx="71.71" cy="28.392" r="1.68" transform="rotate(90 71.71 28.392)"/><circle cx="10.488" cy="98.853" r="1.68" transform="rotate(90 10.488 98.853)"/><circle cx="71.71" cy="98.853" r="1.68" transform="rotate(90 71.71 98.853)"/><circle cx="10.488" cy="63.622" r="1.68" transform="rotate(90 10.488 63.622)"/><circle cx="71.71" cy="63.622" r="1.68" transform="rotate(90 71.71 63.622)"/><circle cx="54.097" cy="10.777" r="1.68" transform="rotate(90 54.097 10.777)"/><circle cx="115.32" cy="10.777" r="1.68" transform="rotate(90 115.32 10.777)"/><circle cx="54.097" cy="81.238" r="1.68" transform="rotate(90 54.097 81.238)"/><circle cx="115.32" cy="81.238" r="1.68" transform="rotate(90 115.32 81.238)"/><circle cx="54.097" cy="46.007" r="1.68" transform="rotate(90 54.097 46.007)"/><circle cx="115.32" cy="46.007" r="1.68" transform="rotate(90 115.32 46.007)"/><circle cx="54.097" cy="116.467" r="1.68" transform="rotate(90 54.097 116.467)"/><circle cx="115.32" cy="116.467" r="1.68" transform="rotate(90 115.32 116.467)"/><circle cx="54.097" cy="28.392" r="1.68" transform="rotate(90 54.097 28.392)"/><circle cx="115.32" cy="28.392" r="1.68" transform="rotate(90 115.32 28.392)"/><circle cx="54.097" cy="98.853" r="1.68" transform="rotate(90 54.097 98.853)"/><circle cx="115.32" cy="98.853" r="1.68" transform="rotate(90 115.32 98.853)"/><circle cx="54.097" cy="63.622" r="1.68" transform="rotate(90 54.097 63.622)"/><circle cx="115.32" cy="63.622" r="1.68" transform="rotate(90 115.32 63.622)"/><circle cx="18.866" cy="10.777" r="1.68" transform="rotate(90 18.866 10.777)"/><circle cx="80.089" cy="10.777" r="1.68" transform="rotate(90 80.09 10.777)"/><circle cx="18.866" cy="81.238" r="1.68" transform="rotate(90 18.866 81.238)"/><circle cx="80.089" cy="81.238" r="1.68" transform="rotate(90 80.09 81.238)"/><circle cx="18.866" cy="46.007" r="1.68" transform="rotate(90 18.866 46.007)"/><circle cx="80.089" cy="46.007" r="1.68" transform="rotate(90 80.09 46.007)"/><circle cx="18.866" cy="116.467" r="1.68" transform="rotate(90 18.866 116.467)"/><circle cx="80.089" cy="116.467" r="1.68" transform="rotate(90 80.09 116.467)"/><circle cx="18.866" cy="28.392" r="1.68" transform="rotate(90 18.866 28.392)"/><circle cx="80.089" cy="28.392" r="1.68" transform="rotate(90 80.09 28.392)"/><circle cx="18.866" cy="98.853" r="1.68" transform="rotate(90 18.866 98.853)"/><circle cx="80.089" cy="98.853" r="1.68" transform="rotate(90 80.09 98.853)"/><circle cx="18.866" cy="63.622" r="1.68" transform="rotate(90 18.866 63.622)"/><circle cx="80.089" cy="63.622" r="1.68" transform="rotate(90 80.09 63.622)"/><circle cx="36.48" cy="10.777" r="1.68" transform="rotate(90 36.48 10.777)"/><circle cx="97.706" cy="10.777" r="1.68" transform="rotate(90 97.706 10.777)"/><circle cx="36.48" cy="81.238" r="1.68" transform="rotate(90 36.48 81.238)"/><circle cx="97.706" cy="81.238" r="1.68" transform="rotate(90 97.706 81.238)"/><circle cx="36.48" cy="46.007" r="1.68" transform="rotate(90 36.48 46.007)"/><circle cx="97.706" cy="46.007" r="1.68" transform="rotate(90 97.706 46.007)"/><circle cx="36.48" cy="116.467" r="1.68" transform="rotate(90 36.48 116.467)"/><circle cx="97.706" cy="116.467" r="1.68" transform="rotate(90 97.706 116.467)"/><circle cx="36.48" cy="28.392" r="1.68" transform="rotate(90 36.48 28.392)"/><circle cx="97.706" cy="28.392" r="1.68" transform="rotate(90 97.706 28.392)"/><circle cx="36.48" cy="98.853" r="1.68" transform="rotate(90 36.48 98.853)"/><circle cx="97.706" cy="98.853" r="1.68" transform="rotate(90 97.706 98.853)"/><circle cx="36.48" cy="63.622" r="1.68" transform="rotate(90 36.48 63.622)"/><circle cx="97.706" cy="63.622" r="1.68" transform="rotate(90 97.706 63.622)"/><circle cx="1.679" cy="10.777" r="1.68" transform="rotate(90 1.679 10.777)"/><circle cx="62.902" cy="10.777" r="1.68" transform="rotate(90 62.902 10.777)"/><circle cx="1.679" cy="81.238" r="1.68" transform="rotate(90 1.679 81.238)"/><circle cx="62.902" cy="81.238" r="1.68" transform="rotate(90 62.902 81.238)"/><circle cx="1.679" cy="46.007" r="1.68" transform="rotate(90 1.679 46.007)"/><circle cx="62.902" cy="46.007" r="1.68" transform="rotate(90 62.902 46.007)"/><circle cx="1.679" cy="116.467" r="1.68" transform="rotate(90 1.679 116.467)"/><circle cx="62.902" cy="116.467" r="1.68" transform="rotate(90 62.902 116.467)"/><circle cx="1.679" cy="28.392" r="1.68" transform="rotate(90 1.679 28.392)"/><circle cx="62.902" cy="28.392" r="1.68" transform="rotate(90 62.902 28.392)"/><circle cx="1.679" cy="98.853" r="1.68" transform="rotate(90 1.679 98.853)"/><circle cx="62.902" cy="98.853" r="1.68" transform="rotate(90 62.902 98.853)"/><circle cx="1.679" cy="63.622" r="1.68" transform="rotate(90 1.679 63.622)"/><circle cx="62.902" cy="63.622" r="1.68" transform="rotate(90 62.902 63.622)"/></g></svg>