<svg width="118" height="57" fill="none" xmlns="http://www.w3.org/2000/svg"><g opacity=".05" fill="#fff"><circle cx="27.675" cy="1.68" r="1.68" transform="rotate(90 27.675 1.68)"/><circle cx="88.898" cy="1.68" r="1.68" transform="rotate(90 88.898 1.68)"/><circle cx="27.675" cy="36.91" r="1.68" transform="rotate(90 27.675 36.91)"/><circle cx="88.898" cy="36.91" r="1.68" transform="rotate(90 88.898 36.91)"/><circle cx="27.675" cy="19.295" r="1.68" transform="rotate(90 27.675 19.295)"/><circle cx="88.898" cy="19.295" r="1.68" transform="rotate(90 88.898 19.295)"/><circle cx="27.675" cy="54.526" r="1.68" transform="rotate(90 27.675 54.526)"/><circle cx="88.898" cy="54.526" r="1.68" transform="rotate(90 88.898 54.526)"/><circle cx="45.288" cy="1.68" r="1.68" transform="rotate(90 45.288 1.68)"/><circle cx="106.511" cy="1.68" r="1.68" transform="rotate(90 106.511 1.68)"/><circle cx="45.288" cy="36.91" r="1.68" transform="rotate(90 45.288 36.91)"/><circle cx="106.511" cy="36.91" r="1.68" transform="rotate(90 106.511 36.91)"/><circle cx="45.288" cy="19.295" r="1.68" transform="rotate(90 45.288 19.295)"/><circle cx="106.511" cy="19.295" r="1.68" transform="rotate(90 106.511 19.295)"/><circle cx="45.288" cy="54.526" r="1.68" transform="rotate(90 45.288 54.526)"/><circle cx="106.511" cy="54.526" r="1.68" transform="rotate(90 106.511 54.526)"/><circle cx="10.488" cy="1.68" r="1.68" transform="rotate(90 10.488 1.68)"/><circle cx="71.71" cy="1.68" r="1.68" transform="rotate(90 71.71 1.68)"/><circle cx="10.488" cy="36.91" r="1.68" transform="rotate(90 10.488 36.91)"/><circle cx="71.71" cy="36.91" r="1.68" transform="rotate(90 71.71 36.91)"/><circle cx="10.488" cy="19.295" r="1.68" transform="rotate(90 10.488 19.295)"/><circle cx="71.71" cy="19.295" r="1.68" transform="rotate(90 71.71 19.295)"/><circle cx="10.488" cy="54.526" r="1.68" transform="rotate(90 10.488 54.526)"/><circle cx="71.71" cy="54.526" r="1.68" transform="rotate(90 71.71 54.526)"/><circle cx="54.097" cy="1.68" r="1.68" transform="rotate(90 54.097 1.68)"/><circle cx="115.32" cy="1.68" r="1.68" transform="rotate(90 115.32 1.68)"/><circle cx="54.097" cy="36.91" r="1.68" transform="rotate(90 54.097 36.91)"/><circle cx="115.32" cy="36.91" r="1.68" transform="rotate(90 115.32 36.91)"/><circle cx="54.097" cy="19.295" r="1.68" transform="rotate(90 54.097 19.295)"/><circle cx="115.32" cy="19.295" r="1.68" transform="rotate(90 115.32 19.295)"/><circle cx="54.097" cy="54.526" r="1.68" transform="rotate(90 54.097 54.526)"/><circle cx="115.32" cy="54.526" r="1.68" transform="rotate(90 115.32 54.526)"/><circle cx="18.866" cy="1.68" r="1.68" transform="rotate(90 18.866 1.68)"/><circle cx="80.089" cy="1.68" r="1.68" transform="rotate(90 80.09 1.68)"/><circle cx="18.866" cy="36.91" r="1.68" transform="rotate(90 18.866 36.91)"/><circle cx="80.089" cy="36.91" r="1.68" transform="rotate(90 80.09 36.91)"/><circle cx="18.866" cy="19.295" r="1.68" transform="rotate(90 18.866 19.295)"/><circle cx="80.089" cy="19.295" r="1.68" transform="rotate(90 80.09 19.295)"/><circle cx="18.866" cy="54.526" r="1.68" transform="rotate(90 18.866 54.526)"/><circle cx="80.089" cy="54.526" r="1.68" transform="rotate(90 80.09 54.526)"/><circle cx="36.484" cy="1.68" r="1.68" transform="rotate(90 36.484 1.68)"/><circle cx="97.706" cy="1.68" r="1.68" transform="rotate(90 97.706 1.68)"/><circle cx="36.484" cy="36.91" r="1.68" transform="rotate(90 36.484 36.91)"/><circle cx="97.706" cy="36.91" r="1.68" transform="rotate(90 97.706 36.91)"/><circle cx="36.484" cy="19.295" r="1.68" transform="rotate(90 36.484 19.295)"/><circle cx="97.706" cy="19.295" r="1.68" transform="rotate(90 97.706 19.295)"/><circle cx="36.484" cy="54.526" r="1.68" transform="rotate(90 36.484 54.526)"/><circle cx="97.706" cy="54.526" r="1.68" transform="rotate(90 97.706 54.526)"/><circle cx="1.679" cy="1.68" r="1.68" transform="rotate(90 1.679 1.68)"/><circle cx="62.906" cy="1.68" r="1.68" transform="rotate(90 62.906 1.68)"/><circle cx="1.679" cy="36.91" r="1.68" transform="rotate(90 1.679 36.91)"/><circle cx="62.906" cy="36.91" r="1.68" transform="rotate(90 62.906 36.91)"/><circle cx="1.679" cy="19.295" r="1.68" transform="rotate(90 1.679 19.295)"/><circle cx="62.906" cy="19.295" r="1.68" transform="rotate(90 62.906 19.295)"/><circle cx="1.679" cy="54.526" r="1.68" transform="rotate(90 1.679 54.526)"/><circle cx="62.906" cy="54.526" r="1.68" transform="rotate(90 62.906 54.526)"/><circle cx="27.675" cy="10.488" r="1.68" transform="rotate(90 27.675 10.488)"/><circle cx="88.898" cy="10.488" r="1.68" transform="rotate(90 88.898 10.488)"/><circle cx="27.675" cy="45.717" r="1.68" transform="rotate(90 27.675 45.717)"/><circle cx="88.898" cy="45.717" r="1.68" transform="rotate(90 88.898 45.717)"/><circle cx="27.675" cy="28.103" r="1.68" transform="rotate(90 27.675 28.103)"/><circle cx="88.898" cy="28.103" r="1.68" transform="rotate(90 88.898 28.103)"/><circle cx="45.288" cy="10.488" r="1.68" transform="rotate(90 45.288 10.488)"/><circle cx="106.511" cy="10.488" r="1.68" transform="rotate(90 106.511 10.488)"/><circle cx="45.288" cy="45.717" r="1.68" transform="rotate(90 45.288 45.717)"/><circle cx="106.511" cy="45.717" r="1.68" transform="rotate(90 106.511 45.717)"/><circle cx="45.288" cy="28.103" r="1.68" transform="rotate(90 45.288 28.103)"/><circle cx="106.511" cy="28.103" r="1.68" transform="rotate(90 106.511 28.103)"/><circle cx="10.488" cy="10.488" r="1.68" transform="rotate(90 10.488 10.488)"/><circle cx="71.71" cy="10.488" r="1.68" transform="rotate(90 71.71 10.488)"/><circle cx="10.488" cy="45.717" r="1.68" transform="rotate(90 10.488 45.717)"/><circle cx="71.71" cy="45.717" r="1.68" transform="rotate(90 71.71 45.717)"/><circle cx="10.488" cy="28.103" r="1.68" transform="rotate(90 10.488 28.103)"/><circle cx="71.71" cy="28.103" r="1.68" transform="rotate(90 71.71 28.103)"/><circle cx="54.097" cy="10.488" r="1.68" transform="rotate(90 54.097 10.488)"/><circle cx="115.32" cy="10.488" r="1.68" transform="rotate(90 115.32 10.488)"/><circle cx="54.097" cy="45.717" r="1.68" transform="rotate(90 54.097 45.717)"/><circle cx="115.32" cy="45.717" r="1.68" transform="rotate(90 115.32 45.717)"/><circle cx="54.097" cy="28.103" r="1.68" transform="rotate(90 54.097 28.103)"/><circle cx="115.32" cy="28.103" r="1.68" transform="rotate(90 115.32 28.103)"/><circle cx="18.866" cy="10.488" r="1.68" transform="rotate(90 18.866 10.488)"/><circle cx="80.089" cy="10.488" r="1.68" transform="rotate(90 80.09 10.488)"/><circle cx="18.866" cy="45.717" r="1.68" transform="rotate(90 18.866 45.717)"/><circle cx="80.089" cy="45.717" r="1.68" transform="rotate(90 80.09 45.717)"/><circle cx="18.866" cy="28.103" r="1.68" transform="rotate(90 18.866 28.103)"/><circle cx="80.089" cy="28.103" r="1.68" transform="rotate(90 80.09 28.103)"/><circle cx="36.484" cy="10.488" r="1.68" transform="rotate(90 36.484 10.488)"/><circle cx="97.706" cy="10.488" r="1.68" transform="rotate(90 97.706 10.488)"/><circle cx="36.484" cy="45.717" r="1.68" transform="rotate(90 36.484 45.717)"/><circle cx="97.706" cy="45.717" r="1.68" transform="rotate(90 97.706 45.717)"/><circle cx="36.484" cy="28.103" r="1.68" transform="rotate(90 36.484 28.103)"/><circle cx="97.706" cy="28.103" r="1.68" transform="rotate(90 97.706 28.103)"/><circle cx="1.679" cy="10.488" r="1.68" transform="rotate(90 1.679 10.488)"/><circle cx="62.906" cy="10.488" r="1.68" transform="rotate(90 62.906 10.488)"/><circle cx="1.679" cy="45.717" r="1.68" transform="rotate(90 1.679 45.717)"/><circle cx="62.906" cy="45.717" r="1.68" transform="rotate(90 62.906 45.717)"/><circle cx="1.679" cy="28.103" r="1.68" transform="rotate(90 1.679 28.103)"/><circle cx="62.906" cy="28.103" r="1.68" transform="rotate(90 62.906 28.103)"/></g></svg>