<svg width="16" height="18" fill="none" xmlns="http://www.w3.org/2000/svg"><path fill-rule="evenodd" clip-rule="evenodd" d="M14.001 17.544H2.335c-.92 0-1.667-.748-1.667-1.667V4.21c0-.919.747-1.666 1.667-1.666H4V.877h1.667v1.667h5V.877h1.667v1.667H14c.92 0 1.667.747 1.667 1.666v11.667c0 .92-.747 1.667-1.667 1.667zm.001-1.667v-10H2.334v10h11.667zm-8.335-7.5H4v1.667h1.667V8.377zm0 3.333H4v1.667h1.667V11.71zM9 8.377H7.333v1.667H9V8.377zm0 3.333H7.333v1.667H9V11.71zm3.333-3.333h-1.666v1.667h1.666V8.377zm0 3.333h-1.666v1.667h1.666V11.71z" fill="#fff"/></svg>