<svg width="20" height="21" fill="none" xmlns="http://www.w3.org/2000/svg"><path d="M5.832 9.667h1.667v1.666H5.832V9.667zm0 3.333h1.667v1.667H5.832V13zm3.333-3.333h1.667v1.666H9.165V9.667zm0 3.333h1.667v1.667H9.165V13zM12.5 9.667h1.666v1.666H12.5V9.667zm0 3.333h1.666v1.667H12.5V13z" fill="#000"/><path d="M4.167 18.833h11.666c.92 0 1.667-.747 1.667-1.666V5.5c0-.92-.747-1.667-1.667-1.667h-1.666V2.167H12.5v1.666h-5V2.167H5.833v1.666H4.167c-.92 0-1.667.748-1.667 1.667v11.667c0 .919.748 1.666 1.667 1.666zM15.833 7.167l.001 10H4.167v-10h11.666z" fill="#000"/></svg>