<svg width="42" height="42" fill="none" xmlns="http://www.w3.org/2000/svg"><path fill-rule="evenodd" clip-rule="evenodd" d="M.656 20.877C.656 9.681 9.733.604 20.93.604s20.273 9.077 20.273 20.273c0 11.197-9.077 20.273-20.273 20.273S.656 32.074.656 20.877z" fill="#EFEFF0"/><path fill-rule="evenodd" clip-rule="evenodd" d="M31.738 20.862a10.815 10.815 0 01-.851 4.202 10.886 10.886 0 01-3.916 4.75c-.578.389-1.196.724-1.837.995a10.855 10.855 0 01-8.418 0 10.93 10.93 0 01-1.837-.995 10.899 10.899 0 01-2.919-2.916 10.793 10.793 0 01-1.628-3.863 10.924 10.924 0 010-4.347 10.735 10.735 0 011.628-3.863 10.892 10.892 0 012.919-2.915 10.7 10.7 0 013.869-1.626 10.894 10.894 0 016.386.629 10.85 10.85 0 014.755 3.912 10.703 10.703 0 011.628 3.864c.146.71.22 1.441.22 2.173zm-14.753-8.34a9.234 9.234 0 00-5.096 6.439c.244.002 4.091.05 8.525-1.126a55.52 55.52 0 00-3.429-5.313zm4.194 6.733c-4.755 1.422-9.317 1.32-9.48 1.313-.003.099-.008.195-.008.294 0 2.369.895 4.528 2.366 6.161-.003-.005 2.524-4.481 7.507-6.09.12-.04.243-.076.364-.111a31.21 31.21 0 00-.75-1.567zm5.844-5.313a9.196 9.196 0 00-6.098-2.3 9.3 9.3 0 00-2.176.259c.138.185 1.873 2.483 3.452 5.378 3.484-1.304 4.8-3.303 4.822-3.337zm-4.466 8.408c-.02.007-.04.012-.06.02-5.449 1.896-7.228 5.718-7.247 5.76a9.222 9.222 0 005.675 1.952c1.279 0 2.497-.26 3.605-.73-.137-.806-.673-3.63-1.973-7.002zm3.528 6.159a9.222 9.222 0 003.956-6.186c-.19-.06-2.773-.877-5.754-.4 1.212 3.323 1.704 6.03 1.798 6.586zm-3.173-9.856a29.037 29.037 0 01.813 1.815c3.172-.399 6.297.272 6.43.3a9.165 9.165 0 00-2.1-5.763c-.017.025-1.498 2.161-5.143 3.648z" fill="#5A616E"/></svg>