<svg width="42" height="41" fill="none" xmlns="http://www.w3.org/2000/svg"><path fill-rule="evenodd" clip-rule="evenodd" d="M.656 20.63C.656 9.435 9.733.359 20.93.359S41.202 9.434 41.202 20.63c0 11.196-9.077 20.272-20.273 20.272S.656 31.827.656 20.631z" fill="#FDECEB"/><path fill-rule="evenodd" clip-rule="evenodd" d="M31.738 20.616a10.815 10.815 0 01-.851 4.202 10.88 10.88 0 01-3.916 4.75 10.93 10.93 0 01-1.837.995 10.862 10.862 0 01-8.418 0c-.64-.272-1.26-.607-1.837-.996a10.894 10.894 0 01-2.919-2.916 10.793 10.793 0 01-1.628-3.862 10.924 10.924 0 010-4.347 10.735 10.735 0 011.628-3.864 10.892 10.892 0 012.919-2.914 10.708 10.708 0 013.869-1.626 10.894 10.894 0 016.386.628 10.85 10.85 0 014.755 3.912 10.703 10.703 0 011.628 3.864c.146.71.22 1.442.22 2.174zm-14.753-8.34a9.234 9.234 0 00-5.096 6.438c.244.003 4.091.051 8.525-1.125a55.52 55.52 0 00-3.429-5.313zm4.194 6.733c-4.755 1.42-9.317 1.319-9.48 1.312-.003.1-.008.195-.008.294 0 2.37.895 4.529 2.366 6.161-.003-.004 2.524-4.48 7.507-6.09.12-.04.243-.076.364-.11a31.21 31.21 0 00-.75-1.567zm5.844-5.314a9.196 9.196 0 00-6.098-2.3 9.3 9.3 0 00-2.176.26c.138.185 1.873 2.482 3.452 5.378 3.484-1.305 4.8-3.304 4.822-3.338zm-4.466 8.408l-.06.02c-5.449 1.897-7.228 5.719-7.247 5.76a9.222 9.222 0 005.675 1.952c1.279 0 2.497-.26 3.605-.73-.137-.806-.673-3.63-1.973-7.002zm3.528 6.159a9.222 9.222 0 003.956-6.185c-.19-.061-2.773-.878-5.754-.4 1.212 3.323 1.704 6.03 1.798 6.585zm-3.173-9.855a29.037 29.037 0 01.813 1.814c3.172-.398 6.297.272 6.43.3a9.165 9.165 0 00-2.1-5.763c-.017.025-1.498 2.162-5.143 3.649z" fill="#EA4335"/></svg>