<svg width="19" height="14" fill="none" xmlns="http://www.w3.org/2000/svg"><path fill-rule="evenodd" clip-rule="evenodd" d="M2.284.715c-.928 0-1.682.754-1.682 1.682v9.168c0 .928.754 1.682 1.682 1.682h14.835c.928 0 1.683-.754 1.683-1.682V2.397c0-.928-.755-1.682-1.683-1.682H2.284zm6.854 6.56L2.766 1.97h13.87l-6.37 5.305a.88.88 0 01-1.128 0zm-7.282 2.948V2.845l4.926 4.102-4.926 3.277zm15.69 0l-4.924-3.277 4.925-4.102v7.38zm-15.262 1.77a.428.428 0 01-.401-.28l5.905-3.93.547.456a2.132 2.132 0 002.733 0l.548-.456 5.904 3.93a.428.428 0 01-.4.28H2.283z" fill="#000"/></svg>