<svg width="19" height="14" fill="none" xmlns="http://www.w3.org/2000/svg"><path fill-rule="evenodd" clip-rule="evenodd" d="M2.479.715C1.55.715.797 1.469.797 2.397v9.168c0 .928.754 1.682 1.682 1.682h14.836c.927 0 1.682-.754 1.682-1.682V2.397c0-.928-.755-1.682-1.682-1.682H2.479zm6.854 6.56L2.962 1.97h13.87l-6.371 5.305a.88.88 0 01-1.128 0zm-7.281 2.948V2.845l4.925 4.102-4.925 3.277zm15.69 0l-4.925-3.277 4.925-4.102v7.38zM2.48 11.993a.428.428 0 01-.4-.28l5.904-3.93.547.456a2.132 2.132 0 002.734 0l.547-.456 5.905 3.93a.428.428 0 01-.401.28H2.479z" fill="#EA4335"/></svg>