<svg width="141" height="142" fill="none" xmlns="http://www.w3.org/2000/svg"><g opacity=".05" fill="#232C3D"><circle cx="33.309" cy="2.023" r="2.023" transform="rotate(90 33.31 2.023)"/><circle cx="107.001" cy="2.023" r="2.023" transform="rotate(90 107.001 2.023)"/><circle cx="33.309" cy="86.831" r="2.023" transform="rotate(90 33.31 86.831)"/><circle cx="107.001" cy="86.831" r="2.023" transform="rotate(90 107.001 86.831)"/><circle cx="33.309" cy="44.426" r="2.023" transform="rotate(90 33.31 44.426)"/><circle cx="107.001" cy="44.426" r="2.023" transform="rotate(90 107.001 44.426)"/><circle cx="33.309" cy="129.235" r="2.023" transform="rotate(90 33.31 129.235)"/><circle cx="107.001" cy="129.235" r="2.023" transform="rotate(90 107.001 129.235)"/><circle cx="33.309" cy="23.224" r="2.023" transform="rotate(90 33.31 23.224)"/><circle cx="107.001" cy="23.224" r="2.023" transform="rotate(90 107.001 23.224)"/><circle cx="33.309" cy="108.033" r="2.023" transform="rotate(90 33.31 108.033)"/><circle cx="107.001" cy="108.033" r="2.023" transform="rotate(90 107.001 108.033)"/><circle cx="33.309" cy="65.629" r="2.023" transform="rotate(90 33.31 65.63)"/><circle cx="107.001" cy="65.629" r="2.023" transform="rotate(90 107.001 65.63)"/><circle cx="54.513" cy="2.023" r="2.023" transform="rotate(90 54.513 2.023)"/><circle cx="128.2" cy="2.023" r="2.023" transform="rotate(90 128.2 2.023)"/><circle cx="54.513" cy="86.831" r="2.023" transform="rotate(90 54.513 86.831)"/><circle cx="128.2" cy="86.831" r="2.023" transform="rotate(90 128.2 86.831)"/><circle cx="54.513" cy="44.426" r="2.023" transform="rotate(90 54.513 44.426)"/><circle cx="128.2" cy="44.426" r="2.023" transform="rotate(90 128.2 44.426)"/><circle cx="54.513" cy="129.235" r="2.023" transform="rotate(90 54.513 129.235)"/><circle cx="128.2" cy="129.235" r="2.023" transform="rotate(90 128.2 129.235)"/><circle cx="54.513" cy="23.224" r="2.023" transform="rotate(90 54.513 23.224)"/><circle cx="128.2" cy="23.224" r="2.023" transform="rotate(90 128.2 23.224)"/><circle cx="54.513" cy="108.033" r="2.023" transform="rotate(90 54.513 108.033)"/><circle cx="128.2" cy="108.033" r="2.023" transform="rotate(90 128.2 108.033)"/><circle cx="54.513" cy="65.629" r="2.023" transform="rotate(90 54.513 65.63)"/><circle cx="128.2" cy="65.629" r="2.023" transform="rotate(90 128.2 65.63)"/><circle cx="12.622" cy="2.023" r="2.023" transform="rotate(90 12.622 2.023)"/><circle cx="86.313" cy="2.023" r="2.023" transform="rotate(90 86.313 2.023)"/><circle cx="12.622" cy="86.831" r="2.023" transform="rotate(90 12.622 86.831)"/><circle cx="86.313" cy="86.831" r="2.023" transform="rotate(90 86.313 86.831)"/><circle cx="12.622" cy="44.426" r="2.023" transform="rotate(90 12.622 44.426)"/><circle cx="86.313" cy="44.426" r="2.023" transform="rotate(90 86.313 44.426)"/><circle cx="12.622" cy="129.235" r="2.023" transform="rotate(90 12.622 129.235)"/><circle cx="86.313" cy="129.235" r="2.023" transform="rotate(90 86.313 129.235)"/><circle cx="12.622" cy="23.224" r="2.023" transform="rotate(90 12.622 23.224)"/><circle cx="86.313" cy="23.224" r="2.023" transform="rotate(90 86.313 23.224)"/><circle cx="12.622" cy="108.033" r="2.023" transform="rotate(90 12.622 108.033)"/><circle cx="86.313" cy="108.033" r="2.023" transform="rotate(90 86.313 108.033)"/><circle cx="12.622" cy="65.629" r="2.023" transform="rotate(90 12.622 65.63)"/><circle cx="86.313" cy="65.629" r="2.023" transform="rotate(90 86.313 65.63)"/><circle cx="65.11" cy="2.023" r="2.023" transform="rotate(90 65.11 2.023)"/><circle cx="138.802" cy="2.023" r="2.023" transform="rotate(90 138.802 2.023)"/><circle cx="65.11" cy="86.831" r="2.023" transform="rotate(90 65.11 86.831)"/><circle cx="138.802" cy="86.831" r="2.023" transform="rotate(90 138.802 86.831)"/><circle cx="65.11" cy="44.426" r="2.023" transform="rotate(90 65.11 44.426)"/><circle cx="138.802" cy="44.426" r="2.023" transform="rotate(90 138.802 44.426)"/><circle cx="65.11" cy="129.235" r="2.023" transform="rotate(90 65.11 129.235)"/><circle cx="138.802" cy="129.235" r="2.023" transform="rotate(90 138.802 129.235)"/><circle cx="65.11" cy="23.224" r="2.023" transform="rotate(90 65.11 23.224)"/><circle cx="138.802" cy="23.224" r="2.023" transform="rotate(90 138.802 23.224)"/><circle cx="65.11" cy="108.033" r="2.023" transform="rotate(90 65.11 108.033)"/><circle cx="138.802" cy="108.033" r="2.023" transform="rotate(90 138.802 108.033)"/><circle cx="65.11" cy="65.629" r="2.023" transform="rotate(90 65.11 65.63)"/><circle cx="138.802" cy="65.629" r="2.023" transform="rotate(90 138.802 65.63)"/><circle cx="22.708" cy="2.023" r="2.023" transform="rotate(90 22.708 2.023)"/><circle cx="96.399" cy="2.023" r="2.023" transform="rotate(90 96.4 2.023)"/><circle cx="22.708" cy="86.831" r="2.023" transform="rotate(90 22.708 86.831)"/><circle cx="96.399" cy="86.831" r="2.023" transform="rotate(90 96.4 86.831)"/><circle cx="22.708" cy="44.426" r="2.023" transform="rotate(90 22.708 44.426)"/><circle cx="96.399" cy="44.426" r="2.023" transform="rotate(90 96.4 44.426)"/><circle cx="22.708" cy="129.235" r="2.023" transform="rotate(90 22.708 129.235)"/><circle cx="96.399" cy="129.235" r="2.023" transform="rotate(90 96.4 129.235)"/><circle cx="22.708" cy="23.224" r="2.023" transform="rotate(90 22.708 23.224)"/><circle cx="96.399" cy="23.224" r="2.023" transform="rotate(90 96.4 23.224)"/><circle cx="22.708" cy="108.033" r="2.023" transform="rotate(90 22.708 108.033)"/><circle cx="96.399" cy="108.033" r="2.023" transform="rotate(90 96.4 108.033)"/><circle cx="22.708" cy="65.629" r="2.023" transform="rotate(90 22.708 65.63)"/><circle cx="96.399" cy="65.629" r="2.023" transform="rotate(90 96.4 65.63)"/><circle cx="43.911" cy="2.023" r="2.023" transform="rotate(90 43.911 2.023)"/><circle cx="117.602" cy="2.023" r="2.023" transform="rotate(90 117.602 2.023)"/><circle cx="43.911" cy="86.831" r="2.023" transform="rotate(90 43.911 86.831)"/><circle cx="117.602" cy="86.831" r="2.023" transform="rotate(90 117.602 86.831)"/><circle cx="43.911" cy="44.426" r="2.023" transform="rotate(90 43.911 44.426)"/><circle cx="117.602" cy="44.426" r="2.023" transform="rotate(90 117.602 44.426)"/><circle cx="43.911" cy="129.235" r="2.023" transform="rotate(90 43.911 129.235)"/><circle cx="117.602" cy="129.235" r="2.023" transform="rotate(90 117.602 129.235)"/><circle cx="43.911" cy="23.224" r="2.023" transform="rotate(90 43.911 23.224)"/><circle cx="117.602" cy="23.224" r="2.023" transform="rotate(90 117.602 23.224)"/><circle cx="43.911" cy="108.033" r="2.023" transform="rotate(90 43.911 108.033)"/><circle cx="117.602" cy="108.033" r="2.023" transform="rotate(90 117.602 108.033)"/><circle cx="43.911" cy="65.629" r="2.023" transform="rotate(90 43.911 65.63)"/><circle cx="117.602" cy="65.629" r="2.023" transform="rotate(90 117.602 65.63)"/><circle cx="2.024" cy="2.023" r="2.023" transform="rotate(90 2.024 2.023)"/><circle cx="75.712" cy="2.023" r="2.023" transform="rotate(90 75.712 2.023)"/><circle cx="2.024" cy="86.831" r="2.023" transform="rotate(90 2.024 86.831)"/><circle cx="75.712" cy="86.831" r="2.023" transform="rotate(90 75.712 86.831)"/><circle cx="2.024" cy="44.426" r="2.023" transform="rotate(90 2.024 44.426)"/><circle cx="75.712" cy="44.426" r="2.023" transform="rotate(90 75.712 44.426)"/><circle cx="2.024" cy="129.235" r="2.023" transform="rotate(90 2.024 129.235)"/><circle cx="75.712" cy="129.235" r="2.023" transform="rotate(90 75.712 129.235)"/><circle cx="2.024" cy="23.224" r="2.023" transform="rotate(90 2.024 23.224)"/><circle cx="75.712" cy="23.224" r="2.023" transform="rotate(90 75.712 23.224)"/><circle cx="2.024" cy="108.033" r="2.023" transform="rotate(90 2.024 108.033)"/><circle cx="75.712" cy="108.033" r="2.023" transform="rotate(90 75.712 108.033)"/><circle cx="2.024" cy="65.629" r="2.023" transform="rotate(90 2.024 65.63)"/><circle cx="75.712" cy="65.629" r="2.023" transform="rotate(90 75.712 65.63)"/><circle cx="33.309" cy="12.624" r="2.023" transform="rotate(90 33.31 12.624)"/><circle cx="107.001" cy="12.624" r="2.023" transform="rotate(90 107.001 12.624)"/><circle cx="33.309" cy="97.432" r="2.023" transform="rotate(90 33.31 97.432)"/><circle cx="107.001" cy="97.432" r="2.023" transform="rotate(90 107.001 97.432)"/><circle cx="33.309" cy="55.027" r="2.023" transform="rotate(90 33.31 55.027)"/><circle cx="107.001" cy="55.027" r="2.023" transform="rotate(90 107.001 55.027)"/><circle cx="33.309" cy="139.836" r="2.023" transform="rotate(90 33.31 139.836)"/><circle cx="107.001" cy="139.836" r="2.023" transform="rotate(90 107.001 139.836)"/><circle cx="33.309" cy="33.826" r="2.023" transform="rotate(90 33.31 33.826)"/><circle cx="107.001" cy="33.826" r="2.023" transform="rotate(90 107.001 33.826)"/><circle cx="33.309" cy="118.634" r="2.023" transform="rotate(90 33.31 118.634)"/><circle cx="107.001" cy="118.634" r="2.023" transform="rotate(90 107.001 118.634)"/><circle cx="33.309" cy="76.229" r="2.023" transform="rotate(90 33.31 76.23)"/><circle cx="107.001" cy="76.229" r="2.023" transform="rotate(90 107.001 76.23)"/><circle cx="54.513" cy="12.624" r="2.023" transform="rotate(90 54.513 12.624)"/><circle cx="128.2" cy="12.624" r="2.023" transform="rotate(90 128.2 12.624)"/><circle cx="54.513" cy="97.432" r="2.023" transform="rotate(90 54.513 97.432)"/><circle cx="128.2" cy="97.432" r="2.023" transform="rotate(90 128.2 97.432)"/><circle cx="54.513" cy="55.027" r="2.023" transform="rotate(90 54.513 55.027)"/><circle cx="128.2" cy="55.027" r="2.023" transform="rotate(90 128.2 55.027)"/><circle cx="54.513" cy="139.836" r="2.023" transform="rotate(90 54.513 139.836)"/><circle cx="128.2" cy="139.836" r="2.023" transform="rotate(90 128.2 139.836)"/><circle cx="54.513" cy="33.826" r="2.023" transform="rotate(90 54.513 33.826)"/><circle cx="128.2" cy="33.826" r="2.023" transform="rotate(90 128.2 33.826)"/><circle cx="54.513" cy="118.634" r="2.023" transform="rotate(90 54.513 118.634)"/><circle cx="128.2" cy="118.634" r="2.023" transform="rotate(90 128.2 118.634)"/><circle cx="54.513" cy="76.229" r="2.023" transform="rotate(90 54.513 76.23)"/><circle cx="128.2" cy="76.229" r="2.023" transform="rotate(90 128.2 76.23)"/><circle cx="12.622" cy="12.624" r="2.023" transform="rotate(90 12.622 12.624)"/><circle cx="86.313" cy="12.624" r="2.023" transform="rotate(90 86.313 12.624)"/><circle cx="12.622" cy="97.432" r="2.023" transform="rotate(90 12.622 97.432)"/><circle cx="86.313" cy="97.432" r="2.023" transform="rotate(90 86.313 97.432)"/><circle cx="12.622" cy="55.027" r="2.023" transform="rotate(90 12.622 55.027)"/><circle cx="86.313" cy="55.027" r="2.023" transform="rotate(90 86.313 55.027)"/><circle cx="12.622" cy="139.836" r="2.023" transform="rotate(90 12.622 139.836)"/><circle cx="86.313" cy="139.836" r="2.023" transform="rotate(90 86.313 139.836)"/><circle cx="12.622" cy="33.826" r="2.023" transform="rotate(90 12.622 33.826)"/><circle cx="86.313" cy="33.826" r="2.023" transform="rotate(90 86.313 33.826)"/><circle cx="12.622" cy="118.634" r="2.023" transform="rotate(90 12.622 118.634)"/><circle cx="86.313" cy="118.634" r="2.023" transform="rotate(90 86.313 118.634)"/><circle cx="12.622" cy="76.229" r="2.023" transform="rotate(90 12.622 76.23)"/><circle cx="86.313" cy="76.229" r="2.023" transform="rotate(90 86.313 76.23)"/><circle cx="65.11" cy="12.624" r="2.023" transform="rotate(90 65.11 12.624)"/><circle cx="138.802" cy="12.624" r="2.023" transform="rotate(90 138.802 12.624)"/><circle cx="65.11" cy="97.432" r="2.023" transform="rotate(90 65.11 97.432)"/><circle cx="138.802" cy="97.432" r="2.023" transform="rotate(90 138.802 97.432)"/><circle cx="65.11" cy="55.027" r="2.023" transform="rotate(90 65.11 55.027)"/><circle cx="138.802" cy="55.027" r="2.023" transform="rotate(90 138.802 55.027)"/><circle cx="65.11" cy="139.836" r="2.023" transform="rotate(90 65.11 139.836)"/><circle cx="138.802" cy="139.836" r="2.023" transform="rotate(90 138.802 139.836)"/><circle cx="65.11" cy="33.826" r="2.023" transform="rotate(90 65.11 33.826)"/><circle cx="138.802" cy="33.826" r="2.023" transform="rotate(90 138.802 33.826)"/><circle cx="65.11" cy="118.634" r="2.023" transform="rotate(90 65.11 118.634)"/><circle cx="138.802" cy="118.634" r="2.023" transform="rotate(90 138.802 118.634)"/><circle cx="65.11" cy="76.229" r="2.023" transform="rotate(90 65.11 76.23)"/><circle cx="138.802" cy="76.229" r="2.023" transform="rotate(90 138.802 76.23)"/><circle cx="22.708" cy="12.624" r="2.023" transform="rotate(90 22.708 12.624)"/><circle cx="96.399" cy="12.624" r="2.023" transform="rotate(90 96.4 12.624)"/><circle cx="22.708" cy="97.432" r="2.023" transform="rotate(90 22.708 97.432)"/><circle cx="96.399" cy="97.432" r="2.023" transform="rotate(90 96.4 97.432)"/><circle cx="22.708" cy="55.027" r="2.023" transform="rotate(90 22.708 55.027)"/><circle cx="96.399" cy="55.027" r="2.023" transform="rotate(90 96.4 55.027)"/><circle cx="22.708" cy="139.836" r="2.023" transform="rotate(90 22.708 139.836)"/><circle cx="96.399" cy="139.836" r="2.023" transform="rotate(90 96.4 139.836)"/><circle cx="22.708" cy="33.826" r="2.023" transform="rotate(90 22.708 33.826)"/><circle cx="96.399" cy="33.826" r="2.023" transform="rotate(90 96.4 33.826)"/><circle cx="22.708" cy="118.634" r="2.023" transform="rotate(90 22.708 118.634)"/><circle cx="96.399" cy="118.634" r="2.023" transform="rotate(90 96.4 118.634)"/><circle cx="22.708" cy="76.229" r="2.023" transform="rotate(90 22.708 76.23)"/><circle cx="96.399" cy="76.229" r="2.023" transform="rotate(90 96.4 76.23)"/><circle cx="43.911" cy="12.624" r="2.023" transform="rotate(90 43.911 12.624)"/><circle cx="117.602" cy="12.624" r="2.023" transform="rotate(90 117.602 12.624)"/><circle cx="43.911" cy="97.432" r="2.023" transform="rotate(90 43.911 97.432)"/><circle cx="117.602" cy="97.432" r="2.023" transform="rotate(90 117.602 97.432)"/><circle cx="43.911" cy="55.027" r="2.023" transform="rotate(90 43.911 55.027)"/><circle cx="117.602" cy="55.027" r="2.023" transform="rotate(90 117.602 55.027)"/><circle cx="43.911" cy="139.836" r="2.023" transform="rotate(90 43.911 139.836)"/><circle cx="117.602" cy="139.836" r="2.023" transform="rotate(90 117.602 139.836)"/><circle cx="43.911" cy="33.826" r="2.023" transform="rotate(90 43.911 33.826)"/><circle cx="117.602" cy="33.826" r="2.023" transform="rotate(90 117.602 33.826)"/><circle cx="43.911" cy="118.634" r="2.023" transform="rotate(90 43.911 118.634)"/><circle cx="117.602" cy="118.634" r="2.023" transform="rotate(90 117.602 118.634)"/><circle cx="43.911" cy="76.229" r="2.023" transform="rotate(90 43.911 76.23)"/><circle cx="117.602" cy="76.229" r="2.023" transform="rotate(90 117.602 76.23)"/><circle cx="2.024" cy="12.624" r="2.023" transform="rotate(90 2.024 12.624)"/><circle cx="75.712" cy="12.624" r="2.023" transform="rotate(90 75.712 12.624)"/><circle cx="2.024" cy="97.432" r="2.023" transform="rotate(90 2.024 97.432)"/><circle cx="75.712" cy="97.432" r="2.023" transform="rotate(90 75.712 97.432)"/><circle cx="2.024" cy="55.027" r="2.023" transform="rotate(90 2.024 55.027)"/><circle cx="75.712" cy="55.027" r="2.023" transform="rotate(90 75.712 55.027)"/><circle cx="2.024" cy="139.836" r="2.023" transform="rotate(90 2.024 139.836)"/><circle cx="75.712" cy="139.836" r="2.023" transform="rotate(90 75.712 139.836)"/><circle cx="2.024" cy="33.826" r="2.023" transform="rotate(90 2.024 33.826)"/><circle cx="75.712" cy="33.826" r="2.023" transform="rotate(90 75.712 33.826)"/><circle cx="2.024" cy="118.634" r="2.023" transform="rotate(90 2.024 118.634)"/><circle cx="75.712" cy="118.634" r="2.023" transform="rotate(90 75.712 118.634)"/><circle cx="2.024" cy="76.229" r="2.023" transform="rotate(90 2.024 76.23)"/><circle cx="75.712" cy="76.229" r="2.023" transform="rotate(90 75.712 76.23)"/></g></svg>