<svg width="42" height="42" fill="none" xmlns="http://www.w3.org/2000/svg"><path fill-rule="evenodd" clip-rule="evenodd" d="M.836 20.877C.836 9.681 9.912.604 21.109.604c11.196 0 20.272 9.077 20.272 20.273 0 11.197-9.076 20.273-20.272 20.273C9.912 41.15.836 32.074.836 20.877z" fill="#EFEFF0"/><path fill-rule="evenodd" clip-rule="evenodd" d="M21.11 10.065c-2.936 0-3.305.013-4.458.065-1.151.053-1.937.235-2.625.503a5.294 5.294 0 00-1.915 1.246c-.601.601-.97 1.205-1.248 1.915-.268.688-.45 1.474-.502 2.625-.052 1.153-.065 1.522-.065 4.458 0 2.937.013 3.304.065 4.457.053 1.151.235 1.937.502 2.625a5.299 5.299 0 001.247 1.915c.601.601 1.204.972 1.915 1.248.688.267 1.474.45 2.625.502 1.153.053 1.521.065 4.458.065 2.936 0 3.304-.012 4.457-.065 1.151-.053 1.938-.235 2.626-.502a5.291 5.291 0 001.914-1.248 5.31 5.31 0 001.247-1.915c.266-.688.449-1.474.503-2.625.052-1.153.065-1.52.065-4.457 0-2.936-.013-3.305-.065-4.458-.054-1.151-.237-1.937-.503-2.624a5.307 5.307 0 00-1.247-1.916 5.284 5.284 0 00-1.915-1.246c-.69-.268-1.476-.45-2.627-.503-1.153-.052-1.52-.065-4.457-.065h.003zm-.97 1.948h.97c2.887 0 3.229.01 4.369.063 1.054.048 1.626.224 2.008.372.504.196.864.43 1.242.809.378.378.613.738.81 1.243.147.38.323.953.371 2.007.052 1.14.064 1.482.064 4.368 0 2.885-.012 3.228-.064 4.367-.048 1.055-.224 1.627-.372 2.007-.196.505-.43.864-.809 1.242a3.343 3.343 0 01-1.242.81c-.381.148-.954.324-2.008.372-1.14.052-1.482.063-4.369.063-2.887 0-3.23-.012-4.37-.063-1.053-.049-1.625-.225-2.007-.373a3.35 3.35 0 01-1.243-.809 3.35 3.35 0 01-.81-1.242c-.147-.381-.324-.953-.372-2.008-.051-1.14-.062-1.482-.062-4.369 0-2.887.01-3.228.062-4.368.049-1.054.225-1.626.373-2.007a3.35 3.35 0 01.809-1.244 3.356 3.356 0 011.243-.809c.381-.148.954-.324 2.008-.373.997-.045 1.384-.058 3.399-.06v.002zm6.741 1.796a1.297 1.297 0 100 2.594 1.297 1.297 0 000-2.594zm-5.771 1.516a5.553 5.553 0 100 11.105 5.553 5.553 0 000-11.105zm0 1.948a3.604 3.604 0 110 7.208 3.604 3.604 0 010-7.208z" fill="#5A616E"/></svg>