<svg width="42" height="41" fill="none" xmlns="http://www.w3.org/2000/svg"><path fill-rule="evenodd" clip-rule="evenodd" d="M.836 20.63C.836 9.435 9.912.359 21.109.359 32.305.358 41.38 9.434 41.38 20.63c0 11.196-9.076 20.272-20.272 20.272C9.912 40.903.836 31.827.836 20.631z" fill="#FDECEB"/><path fill-rule="evenodd" clip-rule="evenodd" d="M21.11 9.818c-2.936 0-3.305.013-4.458.066-1.151.052-1.937.235-2.625.502a5.295 5.295 0 00-1.915 1.247 5.309 5.309 0 00-1.248 1.915c-.268.688-.45 1.473-.502 2.624-.052 1.153-.065 1.522-.065 4.459 0 2.936.013 3.303.065 4.457.053 1.15.235 1.936.502 2.624a5.298 5.298 0 001.247 1.915c.601.602 1.204.972 1.915 1.248.688.268 1.474.45 2.625.503 1.153.052 1.521.065 4.458.065 2.936 0 3.304-.013 4.457-.066 1.151-.052 1.938-.234 2.626-.502a5.291 5.291 0 001.914-1.248 5.309 5.309 0 001.247-1.915c.266-.688.449-1.474.503-2.624.052-1.153.065-1.521.065-4.457 0-2.937-.013-3.305-.065-4.459-.054-1.15-.237-1.936-.503-2.624a5.308 5.308 0 00-1.247-1.915 5.285 5.285 0 00-1.915-1.247c-.69-.267-1.476-.45-2.627-.502-1.153-.053-1.52-.066-4.457-.066h.003zm-.97 1.949h.97c2.887 0 3.229.01 4.369.062 1.054.048 1.626.224 2.008.372.504.196.864.43 1.242.809.378.378.613.739.81 1.243.147.381.323.953.371 2.007.052 1.14.064 1.483.064 4.368 0 2.886-.012 3.228-.064 4.368-.048 1.054-.224 1.626-.372 2.007-.196.504-.43.864-.809 1.242a3.344 3.344 0 01-1.242.808c-.381.15-.954.325-2.008.373-1.14.052-1.482.063-4.369.063-2.887 0-3.23-.011-4.37-.063-1.053-.049-1.625-.225-2.007-.373a3.349 3.349 0 01-1.243-.808 3.35 3.35 0 01-.81-1.243c-.147-.38-.324-.953-.372-2.007-.051-1.14-.062-1.482-.062-4.37 0-2.887.01-3.227.062-4.367.049-1.054.225-1.627.373-2.008a3.35 3.35 0 01.809-1.243 3.356 3.356 0 011.243-.81c.381-.148.954-.324 2.008-.372.997-.045 1.384-.059 3.399-.06v.002zm6.741 1.795a1.297 1.297 0 100 2.595 1.297 1.297 0 000-2.595zm-5.771 1.516a5.553 5.553 0 100 11.106 5.553 5.553 0 000-11.106zm0 1.948a3.604 3.604 0 110 7.209 3.604 3.604 0 010-7.209z" fill="#EA4335"/></svg>