<svg width="109" height="101" fill="none" xmlns="http://www.w3.org/2000/svg"><path opacity=".05" d="M53.447 94.196c24.23 0 77.375-26.74 43.873-43.904C63.817 33.129 77.676 6.388 53.447 6.388a43.868 43.868 0 00-31.028 12.859A43.917 43.917 0 009.566 50.292 43.916 43.916 0 0022.42 81.337a43.868 43.868 0 0031.027 12.859z" fill="#FBBC05"/><path d="M47.342 100.002a53.817 53.817 0 0038.076-15.783 53.877 53.877 0 0015.768-38.1c0-29.76 2.791-63.06-47.463-36.32C3.47 36.54-15.676 39.336 14.233 60.09c29.91 20.752 3.372 39.913 33.109 39.913z" fill="#FFF9E6"/><path d="M42.332 63.334h23.333a1.667 1.667 0 001.667-1.667V60c0-1.365-.867-3.333-5-5a21.628 21.628 0 00-16.667 0c-4.13 1.657-5 3.632-5 5v1.667a1.667 1.667 0 001.667 1.667zM70.665 55a1.667 1.667 0 001.667-1.666V50h3.333a1.667 1.667 0 000-3.333h-3.333v-3.333a1.667 1.667 0 00-3.333 0v3.333h-3.334a1.666 1.666 0 000 3.333H69v3.334A1.666 1.666 0 0070.665 55zM54 50a6.667 6.667 0 10-.001-13.334 6.667 6.667 0 000 13.334z" fill="#FBBC05"/></svg>