<svg width="42" height="41" fill="none" xmlns="http://www.w3.org/2000/svg"><path fill-rule="evenodd" clip-rule="evenodd" d="M.473 20.63C.473 9.435 9.549.359 20.745.359c11.197 0 20.273 9.076 20.273 20.273 0 11.196-9.076 20.272-20.273 20.272C9.55 40.903.473 31.827.473 20.631z" fill="#EFEFF0"/><path fill-rule="evenodd" clip-rule="evenodd" d="M20.139 16.836l.042.701-.709-.086c-2.58-.329-4.835-1.446-6.75-3.32l-.936-.931-.24.687c-.511 1.531-.185 3.15.879 4.237.567.602.44.687-.54.33-.34-.115-.637-.2-.666-.158-.1.1.241 1.403.51 1.918.37.716 1.12 1.418 1.943 1.833l.695.33-.822.013c-.794 0-.823.015-.738.315.284.93 1.404 1.919 2.652 2.348l.88.3-.766.459a7.985 7.985 0 01-3.8 1.06c-.639.014-1.164.07-1.164.114 0 .143 1.73.945 2.737 1.26 3.02.93 6.608.53 9.302-1.06 1.915-1.13 3.83-3.378 4.723-5.554.482-1.16.964-3.279.964-4.295 0-.659.042-.745.837-1.532.467-.458.907-.96.992-1.102.142-.272.128-.272-.596-.029-1.205.43-1.375.372-.78-.272.44-.458.965-1.288.965-1.532 0-.043-.213.029-.454.158-.255.143-.822.358-1.248.486l-.765.244-.695-.473c-.383-.257-.922-.544-1.206-.63-.723-.2-1.829-.171-2.481.058-1.773.644-2.893 2.305-2.765 4.123z" fill="#5A616E"/></svg>