<svg width="42" height="42" fill="none" xmlns="http://www.w3.org/2000/svg"><path fill-rule="evenodd" clip-rule="evenodd" d="M.473 20.877C.473 9.681 9.549.604 20.745.604c11.197 0 20.273 9.077 20.273 20.273 0 11.197-9.076 20.273-20.273 20.273C9.55 41.15.473 32.074.473 20.877z" fill="#FDECEB"/><path fill-rule="evenodd" clip-rule="evenodd" d="M20.139 17.082l.042.702-.709-.086c-2.58-.33-4.835-1.446-6.75-3.321l-.936-.93-.24.686c-.511 1.532-.185 3.15.879 4.238.567.601.44.687-.54.33-.34-.116-.637-.201-.666-.158-.1.1.241 1.402.51 1.918.37.716 1.12 1.417 1.943 1.832l.695.33-.822.014c-.794 0-.823.014-.738.315.284.93 1.404 1.918 2.652 2.348l.88.3-.766.458a7.984 7.984 0 01-3.8 1.06c-.639.014-1.164.071-1.164.114 0 .143 1.73.945 2.737 1.26 3.02.93 6.608.53 9.302-1.06 1.915-1.13 3.83-3.378 4.723-5.554.482-1.16.964-3.278.964-4.295 0-.658.042-.744.837-1.531.467-.458.907-.96.992-1.103.142-.272.128-.272-.596-.028-1.205.43-1.375.372-.78-.272.44-.458.965-1.289.965-1.532 0-.043-.213.028-.454.157-.255.144-.822.358-1.248.487l-.765.243-.695-.472c-.383-.258-.922-.544-1.206-.63-.723-.2-1.829-.172-2.481.057-1.773.645-2.893 2.305-2.765 4.123z" fill="#EA4335"/></svg>