<svg width="19" height="19" fill="none" xmlns="http://www.w3.org/2000/svg"><path d="M16.293 3.01C14.608 1.274 12.279.332 9.9.332 4.847.333.784 4.446.833 9.451c0 1.585.446 3.121 1.19 4.509L.734 18.667l4.807-1.239c1.338.743 2.824 1.09 4.31 1.09 5.005 0 9.068-4.112 9.068-9.117a8.993 8.993 0 00-2.626-6.392zM9.9 16.981c-1.338 0-2.676-.347-3.815-1.04l-.298-.149-2.873.743.743-2.824-.198-.297C1.28 9.897 2.32 5.239 5.888 3.059c3.567-2.18 8.175-1.14 10.355 2.428 2.18 3.567 1.14 8.175-2.427 10.356-1.14.743-2.527 1.14-3.915 1.14zm4.36-5.5l-.545-.247s-.792-.347-1.288-.595c-.05 0-.099-.05-.149-.05-.148 0-.247.05-.346.1 0 0-.05.049-.744.842a.273.273 0 01-.247.148h-.05a.376.376 0 01-.198-.099l-.248-.099c-.545-.247-1.04-.545-1.437-.941-.099-.1-.248-.198-.347-.298-.347-.346-.693-.743-.941-1.189l-.05-.099c-.05-.05-.05-.099-.099-.198 0-.1 0-.198.05-.248 0 0 .198-.248.347-.396.099-.1.148-.248.247-.347.1-.149.149-.347.1-.495-.05-.248-.645-1.586-.793-1.883-.1-.149-.198-.199-.347-.248H6.63c-.1 0-.198.05-.298.05l-.05.049c-.098.05-.197.149-.296.198-.1.1-.149.198-.248.297a2.527 2.527 0 00-.545 1.537c0 .396.099.792.248 1.14l.05.148a8.253 8.253 0 001.833 2.527l.198.198c.148.149.297.248.396.396a8.854 8.854 0 003.568 1.883c.148.05.347.05.495.1h.496c.247 0 .545-.1.743-.199.149-.099.248-.099.347-.198l.099-.1c.099-.098.198-.148.297-.247.1-.099.198-.198.248-.297.099-.198.149-.446.198-.694v-.347s-.05-.05-.149-.099z" fill="#000"/></svg>