<svg width="19" height="19" fill="none" xmlns="http://www.w3.org/2000/svg"><path d="M16.098 3.01C14.413 1.274 12.084.332 9.706.332 4.652.333.589 4.446.638 9.451c0 1.585.446 3.121 1.19 4.509L.538 18.667l4.806-1.239c1.338.743 2.825 1.09 4.311 1.09 5.005 0 9.068-4.112 9.068-9.117a8.993 8.993 0 00-2.626-6.392zM9.706 16.981c-1.338 0-2.676-.347-3.816-1.04l-.297-.149-2.874.743.744-2.824-.199-.297c-2.18-3.518-1.14-8.176 2.428-10.356 3.568-2.18 8.176-1.14 10.356 2.428 2.18 3.567 1.14 8.175-2.428 10.356-1.14.743-2.527 1.14-3.914 1.14zm4.36-5.5l-.545-.247s-.793-.347-1.288-.595c-.05 0-.1-.05-.149-.05-.149 0-.248.05-.347.1 0 0-.05.049-.743.842a.273.273 0 01-.248.148h-.05a.376.376 0 01-.197-.099l-.248-.099c-.545-.247-1.04-.545-1.437-.941-.1-.1-.248-.198-.347-.298-.347-.346-.694-.743-.941-1.189l-.05-.099c-.05-.05-.05-.099-.1-.198 0-.1 0-.198.05-.248 0 0 .199-.248.347-.396.1-.1.149-.248.248-.347.1-.149.149-.347.1-.495-.05-.248-.645-1.586-.794-1.883-.099-.149-.198-.199-.346-.248h-.545c-.1 0-.199.05-.298.05l-.05.049c-.099.05-.198.149-.297.198-.099.1-.148.198-.247.297a2.527 2.527 0 00-.545 1.537c0 .396.099.792.247 1.14l.05.148a8.253 8.253 0 001.833 2.527l.198.198c.149.149.298.248.397.396a8.853 8.853 0 003.567 1.883c.149.05.347.05.496.1h.495c.248 0 .545-.1.744-.199.148-.099.247-.099.346-.198l.1-.1c.099-.098.198-.148.297-.247.099-.099.198-.198.248-.297.099-.198.148-.446.198-.694v-.347s-.05-.05-.149-.099z" fill="#EA4335"/></svg>