<svg width="19" height="19" fill="none" xmlns="http://www.w3.org/2000/svg"><path d="M15.559 2.72C13.874.985 11.545.044 9.167.044 4.113.044.05 4.157.099 9.16c0 1.586.446 3.122 1.19 4.51L0 18.376l4.806-1.238c1.338.743 2.825 1.09 4.311 1.09 5.005 0 9.068-4.113 9.068-9.117 0-2.428-.942-4.708-2.626-6.392zM9.167 16.693c-1.338 0-2.676-.347-3.816-1.04l-.297-.15-2.874.744.743-2.825-.198-.297C.545 9.607 1.585 4.95 5.153 2.77 8.721.59 13.33 1.63 15.51 5.197c2.18 3.568 1.14 8.176-2.428 10.356-1.14.743-2.527 1.14-3.914 1.14zm4.36-5.5l-.545-.248s-.793-.347-1.288-.595c-.05 0-.1-.05-.149-.05a.716.716 0 00-.347.1s-.05.05-.743.842a.273.273 0 01-.248.149h-.05a.376.376 0 01-.198-.1l-.247-.098c-.545-.248-1.04-.545-1.437-.942-.1-.099-.248-.198-.347-.297-.347-.347-.694-.743-.941-1.19l-.05-.098c-.05-.05-.05-.1-.1-.199 0-.099 0-.198.05-.247 0 0 .199-.248.347-.397.1-.099.149-.247.248-.347.1-.148.149-.346.1-.495-.05-.248-.645-1.586-.794-1.883-.099-.149-.198-.198-.347-.248h-.545c-.099 0-.198.05-.297.05l-.05.05c-.099.049-.198.148-.297.198-.099.099-.148.198-.248.297A2.527 2.527 0 004.46 6.98c0 .396.1.793.248 1.14l.05.148a8.253 8.253 0 001.833 2.527l.198.199c.149.148.298.247.397.396a8.854 8.854 0 003.567 1.883c.149.05.347.05.496.099h.495c.248 0 .545-.1.743-.198.15-.1.248-.1.347-.199l.1-.099c.099-.099.198-.148.297-.247.099-.1.198-.199.247-.298.1-.198.15-.446.199-.693v-.347s-.05-.05-.149-.1z" fill="#fff"/></svg>