<svg width="41" height="41" fill="none" xmlns="http://www.w3.org/2000/svg"><path fill-rule="evenodd" clip-rule="evenodd" d="M.29 20.63C.29 9.435 9.364.359 20.561.359c11.196 0 20.272 9.076 20.272 20.273 0 11.196-9.076 20.272-20.272 20.272C9.365 40.903.289 31.827.289 20.631z" fill="#FDECEB"/><path fill-rule="evenodd" clip-rule="evenodd" d="M29.01 13.661a2.745 2.745 0 011.912 1.963c.452 1.732.452 5.344.452 5.344s0 3.613-.452 5.345a2.745 2.745 0 01-1.912 1.963c-1.686.464-8.448.464-8.448.464s-6.762 0-8.448-.464a2.746 2.746 0 01-1.912-1.963c-.452-1.732-.452-5.345-.452-5.345s0-3.612.452-5.344a2.745 2.745 0 011.912-1.963c1.686-.464 8.448-.464 8.448-.464s6.762 0 8.448.464zm-10.475 4.266v6.758l5.406-3.379-5.406-3.379z" fill="#EA4335"/></svg>