<svg width="36" height="36" viewBox="0 0 36 36" fill="none" xmlns="http://www.w3.org/2000/svg">
<rect x="0.5" y="0.5" width="35" height="35" rx="3.5" fill="#F9F9F9" stroke="#EEEEEE"/>
<path d="M14.308 23.9969H11V20.6889L19.822 11.8669L23.131 15.1749L14.309 23.9969H14.308ZM19.822 14.3629L12.764 21.4209V22.2319H13.575L20.634 15.1749L19.823 14.3639L19.822 14.3629ZM24.013 14.2969L20.7 10.9839L22.434 9.2549C22.5156 9.17303 22.6125 9.10806 22.7192 9.06373C22.826 9.0194 22.9404 8.99658 23.056 8.99658C23.1716 8.99658 23.286 9.0194 23.3928 9.06373C23.4995 9.10806 23.5964 9.17303 23.678 9.2549L25.742 11.3189C25.8237 11.4005 25.8886 11.4973 25.9328 11.604C25.977 11.7106 25.9998 11.8249 25.9998 11.9404C25.9998 12.0559 25.977 12.1702 25.9328 12.2768C25.8886 12.3835 25.8237 12.4804 25.742 12.5619L24.013 14.2919V14.2969Z" fill="#232C3D"/>
<path d="M27 24.9968H9V26.9968H27V24.9968Z" fill="#232C3D"/>
</svg>
