<svg width="24" height="24" viewBox="0 0 24 24" fill="none" xmlns="http://www.w3.org/2000/svg">
<path d="M16 21H8C7.46957 21 6.96086 20.7893 6.58578 20.4142C6.21071 20.0391 6 19.5304 6 19V9C6 8.46957 6.21071 7.96086 6.58578 7.58578C6.96086 7.21071 7.46957 7 8 7H16C16.5304 7 17.0391 7.21071 17.4142 7.58578C17.7893 7.96086 18 8.46957 18 9V19C18 19.5304 17.7893 20.0391 17.4142 20.4142C17.0391 20.7893 16.5304 21 16 21ZM9 9C8.73478 9 8.48043 9.10536 8.29289 9.29289C8.10536 9.48043 8 9.73478 8 10V18C8 18.2652 8.10536 18.5196 8.29289 18.7071C8.48043 18.8946 8.73478 19 9 19H15C15.2652 19 15.5196 18.8946 15.7071 18.7071C15.8946 18.5196 16 18.2652 16 18V10C16 9.73478 15.8946 9.48043 15.7071 9.29289C15.5196 9.10536 15.2652 9 15 9H9ZM18 6H6C5.73478 6 5.48043 5.89464 5.29289 5.70711C5.10536 5.51957 5 5.26522 5 5C5 4.73478 5.10536 4.48043 5.29289 4.29289C5.48043 4.10536 5.73478 4 6 4H8.5L9.21001 3.28999C9.39687 3.10615 9.64788 3.00217 9.91 3H14.091C14.3531 3.00227 14.6041 3.10624 14.791 3.28999L15.501 4H18C18.2652 4 18.5196 4.10536 18.7071 4.29289C18.8946 4.48043 19 4.73478 19 5C19 5.26522 18.8946 5.51957 18.7071 5.70711C18.5196 5.89464 18.2652 6 18 6Z" fill="#232C3D"/>
</svg>
