<svg width="42" height="42" viewBox="0 0 42 42" fill="none" xmlns="http://www.w3.org/2000/svg">
<circle cx="21" cy="21" r="20" fill="#EA4335" stroke="#F9F9F9" stroke-width="2"/>
<path d="M17.308 26.9969H14V23.6889L22.822 14.8669L26.131 18.1749L17.309 26.9969H17.308ZM22.822 17.3629L15.764 24.4209V25.2319H16.575L23.634 18.1749L22.823 17.3639L22.822 17.3629ZM27.013 17.2969L23.7 13.9839L25.434 12.2549C25.5156 12.173 25.6125 12.1081 25.7192 12.0637C25.826 12.0194 25.9404 11.9966 26.056 11.9966C26.1716 11.9966 26.286 12.0194 26.3928 12.0637C26.4995 12.1081 26.5964 12.173 26.678 12.2549L28.742 14.3189C28.8237 14.4005 28.8886 14.4973 28.9328 14.604C28.977 14.7106 28.9998 14.8249 28.9998 14.9404C28.9998 15.0559 28.977 15.1702 28.9328 15.2768C28.8886 15.3835 28.8237 15.4804 28.742 15.5619L27.013 17.2919V17.2969Z" fill="white"/>
<path d="M30 27.9968H12V29.9968H30V27.9968Z" fill="white"/>
</svg>
