<svg width="32" height="32" viewBox="0 0 32 32" fill="none" xmlns="http://www.w3.org/2000/svg">
<rect width="32" height="32" rx="4" fill="white"/>
<path d="M6.08984 12.8773L6.00395 6.68916C5.99986 6.37423 6.25753 6.11656 6.57246 6.12065L12.7606 6.21063C13.2555 6.21881 13.5009 6.81595 13.1491 7.16769L11.4273 8.88956L14.2902 11.7525L11.6318 14.411L8.76877 11.548L7.0469 13.2699C6.69925 13.6176 6.09802 13.3722 6.08984 12.8773Z" fill="black"/>
<path d="M23.2305 11.585L24.9523 13.3068C25.3041 13.6586 25.9012 13.4132 25.9094 12.9183L25.9994 6.73018C26.0035 6.41525 25.7458 6.15758 25.4309 6.16167L19.2427 6.25165C18.7478 6.25983 18.5024 6.85696 18.8542 7.2087L20.572 8.9224L17.709 11.7854L20.3675 14.4439L23.2305 11.585Z" fill="black"/>
<path d="M18.8522 24.8325C18.5005 25.1843 18.7459 25.7814 19.2408 25.7896L25.4289 25.8796C25.7438 25.8836 26.0015 25.626 25.9974 25.311L25.9074 19.1229C25.8993 18.628 25.3021 18.3826 24.9504 18.7344L23.2285 20.4562L20.3655 17.5933L17.707 20.2517L20.57 23.1147L18.8522 24.8325Z" fill="black"/>
<path d="M6.5726 25.8385L12.7607 25.7486C13.2556 25.7404 13.501 25.1432 13.1493 24.7915L11.4274 23.0737L14.2904 20.2107L11.6319 17.5522L8.76891 20.4152L7.04703 18.6934C6.6953 18.3416 6.09816 18.587 6.08998 19.0819L6 25.27C6 25.585 6.25767 25.8426 6.5726 25.8385Z" fill="black"/>
</svg>
