<svg width="32" height="32" viewBox="0 0 32 32" fill="none" xmlns="http://www.w3.org/2000/svg">
<path d="M21.3327 28H10.666C9.95877 28 9.28049 27.7191 8.7804 27.219C8.2803 26.7189 7.99935 26.0406 7.99935 25.3333V12C7.99935 11.2928 8.2803 10.6145 8.7804 10.1144C9.28049 9.61428 9.95877 9.33333 10.666 9.33333H21.3327C22.0399 9.33333 22.7182 9.61428 23.2183 10.1144C23.7184 10.6145 23.9993 11.2928 23.9993 12V25.3333C23.9993 26.0406 23.7184 26.7189 23.2183 27.219C22.7182 27.7191 22.0399 28 21.3327 28ZM11.9993 12C11.6457 12 11.3066 12.1405 11.0565 12.3905C10.8065 12.6406 10.666 12.9797 10.666 13.3333V24C10.666 24.3536 10.8065 24.6927 11.0565 24.9428C11.3066 25.1928 11.6457 25.3333 11.9993 25.3333H19.9993C20.353 25.3333 20.6921 25.1928 20.9422 24.9428C21.1922 24.6927 21.3327 24.3536 21.3327 24V13.3333C21.3327 12.9797 21.1922 12.6406 20.9422 12.3905C20.6921 12.1405 20.353 12 19.9993 12H11.9993ZM23.9993 8H7.99935C7.64573 8 7.30659 7.85953 7.05654 7.60948C6.80649 7.35943 6.66602 7.02029 6.66602 6.66667C6.66602 6.31304 6.80649 5.97391 7.05654 5.72386C7.30659 5.47381 7.64573 5.33333 7.99935 5.33333H11.3327L12.2794 4.38666C12.5285 4.14153 12.8632 4.00289 13.2127 4H18.7874C19.1368 4.00303 19.4715 4.14165 19.7207 4.38666L20.6674 5.33333H23.9993C24.353 5.33333 24.6921 5.47381 24.9422 5.72386C25.1922 5.97391 25.3327 6.31304 25.3327 6.66667C25.3327 7.02029 25.1922 7.35943 24.9422 7.60948C24.6921 7.85953 24.353 8 23.9993 8Z" fill="#232C3D"/>
</svg>
