<svg width="24" height="24" viewBox="0 0 24 24" fill="none" xmlns="http://www.w3.org/2000/svg">
<g opacity="0.3">
<path d="M12 18.9998C9.62551 18.9983 7.30648 18.2821 5.3446 16.9445C3.38273 15.6068 1.86885 13.7097 1 11.4998C1.86845 9.29007 3.38231 7.3931 5.34436 6.05606C7.30641 4.71902 9.62569 4.00391 12 4.00391C14.3743 4.00391 16.6936 4.71902 18.6556 6.05606C20.6177 7.3931 22.1315 9.29007 23 11.4998C22.1314 13.7098 20.6176 15.6071 18.6556 16.9448C16.6937 18.2825 14.3746 18.9986 12 18.9998ZM12 5.99985C10.1608 5.99172 8.35688 6.50379 6.79626 7.47696C5.23565 8.45013 3.98199 9.84474 3.17999 11.4998C3.98852 13.1498 5.24366 14.54 6.8028 15.5122C8.36193 16.4845 10.1626 16.9999 12 16.9999C13.8374 16.9999 15.6381 16.4845 17.1972 15.5122C18.7563 14.54 20.0115 13.1498 20.82 11.4998C20.0178 9.84489 18.7641 8.45041 17.2036 7.47726C15.643 6.50412 13.8391 5.99196 12 5.99985ZM12 15.9998C11.11 15.9998 10.24 15.736 9.49994 15.2415C8.75992 14.747 8.18312 14.0442 7.84253 13.2219C7.50194 12.3996 7.41285 11.4948 7.58649 10.6219C7.76012 9.749 8.18866 8.94718 8.81799 8.31784C9.44733 7.6885 10.2492 7.25997 11.1221 7.08633C11.995 6.9127 12.8998 7.00178 13.722 7.34238C14.5443 7.68297 15.2472 8.25977 15.7416 8.99979C16.2361 9.73981 16.5 10.6098 16.5 11.4998C16.4987 12.6929 16.0242 13.8368 15.1805 14.6804C14.3369 15.524 13.1931 15.9985 12 15.9998ZM12 8.99985C11.5055 8.99985 11.0222 9.14647 10.6111 9.42117C10.2 9.69588 9.87953 10.0863 9.69031 10.5431C9.50109 10.9999 9.45157 11.5026 9.54803 11.9876C9.6445 12.4725 9.88261 12.918 10.2322 13.2676C10.5819 13.6172 11.0273 13.8553 11.5123 13.9518C11.9972 14.0483 12.4999 13.9988 12.9567 13.8095C13.4135 13.6203 13.804 13.2999 14.0787 12.8888C14.3534 12.4776 14.5 11.9943 14.5 11.4998C14.5 10.8368 14.2366 10.2009 13.7678 9.73209C13.2989 9.26325 12.663 8.99985 12 8.99985Z" fill="#5A616E"/>
</g>
</svg>
