<svg width="24" height="24" viewBox="0 0 24 24" fill="none" xmlns="http://www.w3.org/2000/svg">
<path d="M12 19.0001C9.62544 18.9988 7.30625 18.2827 5.34433 16.9451C3.38241 15.6074 1.86862 13.7101 1 11.5001C1.86806 9.28994 3.3818 7.3925 5.3439 6.05511C7.306 4.71773 9.62546 4.00244 12 4.00244C14.3745 4.00244 16.694 4.71773 18.6561 6.05511C20.6182 7.3925 22.1319 9.28994 23 11.5001C22.1314 13.7101 20.6176 15.6074 18.6557 16.9451C16.6937 18.2827 14.3746 18.9988 12 19.0001ZM12 6.50012C11.0111 6.50012 10.0444 6.79337 9.22214 7.34277C8.39989 7.89218 7.75905 8.6731 7.38062 9.58673C7.00218 10.5004 6.90314 11.5057 7.09607 12.4756C7.289 13.4455 7.76521 14.3364 8.46448 15.0356C9.16374 15.7349 10.0546 16.2111 11.0245 16.4041C11.9944 16.597 12.9998 16.4979 13.9134 16.1195C14.8271 15.7411 15.6079 15.1002 16.1573 14.278C16.7068 13.4557 17 12.489 17 11.5001C16.9984 10.1745 16.4711 8.90371 15.5338 7.96637C14.5964 7.02903 13.3256 6.50171 12 6.50012ZM12 14.5001C11.4067 14.5001 10.8266 14.3242 10.3333 13.9945C9.83994 13.6649 9.45543 13.1964 9.22836 12.6482C9.0013 12.1 8.94189 11.4968 9.05765 10.9149C9.1734 10.3329 9.45914 9.79834 9.87869 9.37878C10.2983 8.95923 10.8328 8.67349 11.4147 8.55774C11.9967 8.44198 12.5999 8.50139 13.148 8.72845C13.6962 8.95552 14.1648 9.34009 14.4944 9.83344C14.8241 10.3268 15 10.9068 15 11.5001C15 12.2958 14.6839 13.0589 14.1213 13.6215C13.5587 14.1841 12.7956 14.5001 12 14.5001Z" fill="#5A616E"/>
</svg>
