<svg width="21" height="30" viewBox="0 0 21 30" fill="none" xmlns="http://www.w3.org/2000/svg">
<path d="M19.8415 7.65494L13.67 8.64322C13.3604 7.85036 13.0783 7.30318 12.824 7.00167C12.5806 6.689 12.1714 6.37633 11.5963 6.06365V10.9045C14.9585 11.809 17.2037 12.7638 18.3318 13.7688C19.8249 15.12 20.5714 16.8342 20.5714 18.9112C20.5714 20.1284 20.3005 21.2451 19.7585 22.2613C19.2276 23.2775 18.5419 24.1262 17.7014 24.8074C16.8719 25.4886 15.9871 25.9855 15.047 26.2982C14.1069 26.5997 12.9567 26.7783 11.5963 26.8342V30H9.17419V26.8342C7.54839 26.689 6.22673 26.4266 5.20922 26.0469C4.20276 25.6561 3.32903 25.12 2.58802 24.4389C1.85806 23.7577 1.29401 23.0262 0.895853 22.2446C0.497696 21.4517 0.199078 20.4969 0 19.3802L6.7023 18.593C6.90138 19.6985 7.16682 20.4969 7.49862 20.9883C7.84147 21.4796 8.4 21.9151 9.17419 22.2948V16.3819C6.94009 15.7566 5.353 15.215 4.4129 14.7571C3.48387 14.2993 2.6765 13.5678 1.99078 12.5628C1.30507 11.5466 0.962212 10.3127 0.962212 8.86097C0.962212 6.87325 1.64793 5.21496 3.01935 3.8861C4.40184 2.54606 6.45346 1.80346 9.17419 1.65829V0H11.5963V1.65829C14.0737 1.81463 15.965 2.40648 17.27 3.43384C18.5862 4.46119 19.4433 5.86823 19.8415 7.65494ZM9.17419 5.9799C8.46636 6.21441 7.97419 6.50475 7.6977 6.85092C7.4212 7.1971 7.28295 7.60469 7.28295 8.0737C7.28295 8.56505 7.4212 8.99498 7.6977 9.36348C7.98525 9.72083 8.47742 10.0223 9.17419 10.268V5.9799ZM11.5963 22.4623C12.5364 22.2501 13.2221 21.904 13.6535 21.4238C14.0959 20.9324 14.3171 20.3853 14.3171 19.7822C14.3171 19.2574 14.129 18.7772 13.753 18.3417C13.388 17.895 12.6691 17.4819 11.5963 17.1022V22.4623Z" fill="white"/>
</svg>
