<svg width="30" height="24" viewBox="0 0 30 24" fill="none" xmlns="http://www.w3.org/2000/svg">
<path d="M27 0H3C1.35 0 0.015 1.35 0.015 3L0 21C0 22.65 1.35 24 3 24H27C28.65 24 30 22.65 30 21V3C30 1.35 28.65 0 27 0ZM26.4 6.375L15.795 13.005C15.315 13.305 14.685 13.305 14.205 13.005L3.6 6.375C3.44959 6.29057 3.31788 6.17649 3.21283 6.03968C3.10779 5.90287 3.03159 5.74617 2.98886 5.57906C2.94613 5.41195 2.93775 5.2379 2.96423 5.06746C2.99072 4.89702 3.0515 4.73372 3.14292 4.58745C3.23434 4.44118 3.35449 4.31498 3.49609 4.21649C3.63769 4.118 3.79781 4.04927 3.96674 4.01445C4.13568 3.97963 4.30992 3.97945 4.47893 4.01392C4.64794 4.04839 4.8082 4.1168 4.95 4.215L15 10.5L25.05 4.215C25.1918 4.1168 25.3521 4.04839 25.5211 4.01392C25.6901 3.97945 25.8643 3.97963 26.0333 4.01445C26.2022 4.04927 26.3623 4.118 26.5039 4.21649C26.6455 4.31498 26.7657 4.44118 26.8571 4.58745C26.9485 4.73372 27.0093 4.89702 27.0358 5.06746C27.0622 5.2379 27.0539 5.41195 27.0111 5.57906C26.9684 5.74617 26.8922 5.90287 26.7872 6.03968C26.6821 6.17649 26.5504 6.29057 26.4 6.375Z" fill="white"/>
</svg>
