<svg width="30" height="30" viewBox="0 0 30 30" fill="none" xmlns="http://www.w3.org/2000/svg">
<path fill-rule="evenodd" clip-rule="evenodd" d="M30.0004 14.2089H26.8425C26.8425 7.80474 22.1877 3.15789 15.7741 3.15789V0C23.8851 0 30.0004 6.10895 30.0004 14.2089ZM20.5268 14.2109C20.5268 10.8904 19.1104 9.47406 15.7899 9.47406V6.31617C20.882 6.31617 23.6847 9.1188 23.6847 14.2109H20.5268ZM20.0812 17.6581C20.491 17.6454 20.8897 17.7925 21.1931 18.0683L27.6099 23.9041C27.9139 24.1805 28.0981 24.5646 28.1234 24.9747C28.1488 25.3848 28.0133 25.7886 27.7457 26.1004L24.8089 29.5283C24.5362 29.8025 24.1718 29.9661 23.7857 29.9877C23.7336 29.9909 23.5378 30.0004 23.2189 30.0004C21.0368 30.0004 13.1136 29.5377 6.78834 23.2141C-0.462186 15.9604 -0.0106074 6.60985 0.0130768 6.21511C0.035055 5.82898 0.197989 5.46435 0.470972 5.19038L3.89729 2.25196C4.20928 1.98457 4.61322 1.84935 5.02332 1.875C5.43341 1.90065 5.81736 2.08515 6.0936 2.38932L11.9278 8.80459C12.2039 9.10781 12.3513 9.50657 12.3386 9.91649C12.3259 10.3264 12.1543 10.7153 11.8599 11.0009L7.97729 14.7809C8.14624 15.6841 8.71624 17.5172 10.5983 19.4009C12.4804 21.2783 14.3089 21.8483 15.2183 22.022L18.9968 18.1362C19.2826 17.8422 19.6714 17.6708 20.0812 17.6581Z" fill="white"/>
</svg>
