<svg width="30" height="30" viewBox="0 0 30 30" fill="none" xmlns="http://www.w3.org/2000/svg">
<path fill-rule="evenodd" clip-rule="evenodd" d="M7.91016 0C6.45621 0 5.27344 1.18277 5.27344 2.63672C5.27344 4.09066 6.45621 5.27344 7.91016 5.27344C9.3641 5.27344 10.5469 4.09066 10.5469 2.63672C10.5469 1.18277 9.3641 0 7.91016 0ZM27.3633 0H14.9414C13.4875 0 12.3047 1.18277 12.3047 2.63672V5.75988C12.565 5.91147 12.8138 6.08467 13.0325 6.3034L14.756 8.02688L16.0057 7.40203C16.8435 6.98455 17.5721 6.96674 18.3333 7.1335L22.5512 5.02453C23.8513 4.38047 25.4284 4.88707 26.0874 6.20127C26.7441 7.51295 26.2112 9.09105 24.9098 9.7418L20.8677 11.7628C20.5573 12.6043 19.956 13.2898 19.1488 13.6926L18.409 14.0625H27.3633C28.8172 14.0625 30 12.8797 30 11.4258V2.63672C30 1.18277 28.8172 0 27.3633 0ZM23.3374 6.59667C23.7725 6.38122 24.2987 6.55548 24.5167 6.98978C24.7338 7.42408 24.5579 7.95195 24.1236 8.1691L19.3153 10.5732C19.3046 11.2066 18.9722 11.816 18.3643 12.1193L14.8487 13.8771C14.4285 14.0864 13.9662 14.126 13.4763 13.9527L12.3047 13.5398V28.2422C12.3047 29.2129 11.5177 30 10.5469 30C9.57603 30 8.78906 29.2129 8.78906 28.2422V22.0313C8.78906 21.5458 8.39555 21.1524 7.91016 21.1524C7.42477 21.1524 7.03125 21.5458 7.03125 22.0313V28.2422C7.03125 29.2129 6.24428 30 5.27344 30C4.3026 30 3.51562 29.2129 3.51562 28.2422V17.1226L2.34404 17.5363C1.20721 17.9412 0 17.0905 0 15.8789V10.5469C0 8.60796 1.5767 7.03126 3.51562 7.03126H10.5469C11.0164 7.03126 11.4575 7.21408 11.7897 7.5463L14.4093 10.1659L16.7919 8.97452C17.3476 8.69773 17.9479 8.76757 18.4359 9.04736L23.3374 6.59667Z" fill="white"/>
</svg>
