<svg width="30" height="27" viewBox="0 0 30 27" fill="none" xmlns="http://www.w3.org/2000/svg">
<path d="M19.5 0C19.8978 0 20.2794 0.158035 20.5607 0.43934C20.842 0.720644 21 1.10218 21 1.5V4.5H28.5C28.8978 4.5 29.2794 4.65804 29.5607 4.93934C29.842 5.22064 30 5.60218 30 6V25.5C30 25.8978 29.842 26.2794 29.5607 26.5607C29.2794 26.842 28.8978 27 28.5 27H1.5C1.10218 27 0.720644 26.842 0.43934 26.5607C0.158035 26.2794 0 25.8978 0 25.5V6C0 5.60218 0.158035 5.22064 0.43934 4.93934C0.720644 4.65804 1.10218 4.5 1.5 4.5H9V1.5C9 1.10218 9.15804 0.720644 9.43934 0.43934C9.72064 0.158035 10.1022 0 10.5 0H19.5ZM9 7.5H6V24H9V7.5ZM24 7.5H21V24H24V7.5ZM18 3H12V4.5H18V3Z" fill="white"/>
</svg>
