<svg width="51" height="51" viewBox="0 0 51 51" fill="none" xmlns="http://www.w3.org/2000/svg">
<rect x="0.5" y="0.5" width="50" height="50" rx="9.5" stroke="#EA4335"/>
<path d="M36.16 19.0488C36.16 19.3236 36.0598 19.5888 35.8786 19.7942C35.6973 19.9995 35.4475 20.1307 35.1766 20.1629L35.0463 20.1707H34.1053L32.7343 34.2176C32.6597 34.9798 32.3063 35.6867 31.7429 36.201C31.1795 36.7153 30.4464 37.0001 29.6862 37H21.4738C20.7136 37.0001 19.9805 36.7153 19.4171 36.201C18.8537 35.6867 18.5003 34.9798 18.4257 34.2176L17.0547 20.1707H16.1137C15.8183 20.1707 15.535 20.0525 15.3262 19.8421C15.1173 19.6317 15 19.3463 15 19.0488C15 18.7512 15.1173 18.4658 15.3262 18.2554C15.535 18.045 15.8183 17.9268 16.1137 17.9268H21.6821C21.6821 17.4112 21.7829 16.9005 21.9788 16.4241C22.1747 15.9477 22.4618 15.5148 22.8238 15.1501C23.1857 14.7855 23.6154 14.4963 24.0883 14.2989C24.5613 14.1016 25.0681 14 25.58 14C26.0919 14 26.5987 14.1016 27.0717 14.2989C27.5446 14.4963 27.9743 14.7855 28.3362 15.1501C28.6982 15.5148 28.9853 15.9477 29.1812 16.4241C29.3771 16.9005 29.4779 17.4112 29.4779 17.9268H35.0463C35.3417 17.9268 35.625 18.045 35.8338 18.2554C36.0427 18.4658 36.16 18.7512 36.16 19.0488ZM28.0858 22.6951C27.8839 22.6951 27.6889 22.7688 27.5368 22.9024C27.3847 23.0361 27.2858 23.2207 27.2583 23.4221L27.2505 23.5366V31.3902L27.2583 31.5047C27.2858 31.7061 27.3848 31.8906 27.5369 32.0242C27.689 32.1578 27.884 32.2314 28.0858 32.2314C28.2876 32.2314 28.4826 32.1578 28.6347 32.0242C28.7868 31.8906 28.8857 31.7061 28.9133 31.5047L28.9211 31.3902V23.5366L28.9133 23.4221C28.8858 23.2207 28.7869 23.0361 28.6348 22.9024C28.4826 22.7688 28.2876 22.6951 28.0858 22.6951ZM23.0742 22.6951C22.8724 22.6951 22.6774 22.7688 22.5252 22.9024C22.3731 23.0361 22.2742 23.2207 22.2467 23.4221L22.2389 23.5366V31.3902L22.2467 31.5047C22.2743 31.7061 22.3732 31.8906 22.5253 32.0242C22.6774 32.1578 22.8724 32.2314 23.0742 32.2314C23.276 32.2314 23.471 32.1578 23.6231 32.0242C23.7752 31.8906 23.8742 31.7061 23.9017 31.5047L23.9095 31.3902V23.5366L23.9017 23.4221C23.8742 23.2207 23.7753 23.0361 23.6232 22.9024C23.4711 22.7688 23.2761 22.6951 23.0742 22.6951ZM25.58 16.2439C25.1369 16.2439 24.712 16.4212 24.3988 16.7368C24.0855 17.0524 23.9095 17.4805 23.9095 17.9268H27.2505C27.2505 17.4805 27.0745 17.0524 26.7612 16.7368C26.448 16.4212 26.0231 16.2439 25.58 16.2439Z" fill="#EA4335"/>
</svg>
