<svg width="14" height="24" viewBox="0 0 14 24" fill="none" xmlns="http://www.w3.org/2000/svg">
<path d="M6.20801 18.2451V12.9258C4.54915 12.4518 3.3304 11.7367 2.55176 10.7803C1.78158 9.81543 1.39648 8.64746 1.39648 7.27637C1.39648 5.88835 1.83236 4.72461 2.7041 3.78516C3.58431 2.83724 4.75228 2.29134 6.20801 2.14746V0.890625H8.04883V2.14746C9.39453 2.30827 10.4652 2.76953 11.2607 3.53125C12.0563 4.28451 12.5641 5.2959 12.7842 6.56543L9.57227 6.98438C9.3776 5.98568 8.86979 5.30859 8.04883 4.95312V9.91699C10.0801 10.4671 11.4639 11.1823 12.2002 12.0625C12.9365 12.9342 13.3047 14.0557 13.3047 15.4268C13.3047 16.9587 12.8392 18.2493 11.9082 19.2988C10.9857 20.3483 9.69922 20.9915 8.04883 21.2285V23.6025H6.20801V21.292C4.74382 21.1143 3.55469 20.5684 2.64062 19.6543C1.72656 18.7402 1.14258 17.4495 0.888672 15.7822L4.20215 15.4268C4.33757 16.1038 4.59147 16.6878 4.96387 17.1787C5.33626 17.6696 5.75098 18.0251 6.20801 18.2451ZM6.20801 4.91504C5.70866 5.08431 5.31087 5.37207 5.01465 5.77832C4.71842 6.18457 4.57031 6.63314 4.57031 7.12402C4.57031 7.57259 4.70573 7.99154 4.97656 8.38086C5.2474 8.76172 5.65788 9.07064 6.20801 9.30762V4.91504ZM8.04883 18.4229C8.68359 18.3044 9.19987 18.0124 9.59766 17.5469C9.99544 17.0729 10.1943 16.5186 10.1943 15.8838C10.1943 15.3167 10.0251 14.8301 9.68652 14.4238C9.35645 14.0091 8.81055 13.6917 8.04883 13.4717V18.4229Z" fill="#8B909A"/>
</svg>
