<svg width="40" height="37" viewBox="0 0 40 37" fill="none" xmlns="http://www.w3.org/2000/svg">
<path fill-rule="evenodd" clip-rule="evenodd" d="M35.2468 14.9591C35.4845 14.7206 35.8442 14.649 36.1551 14.7784C36.466 14.907 36.6695 15.2114 36.6695 15.5483V25.0022C36.6695 26.8407 35.1736 28.3358 33.3359 28.3358H9.51245L1.42261 36.4256C1.26307 36.5852 1.04985 36.6698 0.833345 36.6698C0.725915 36.6698 0.616922 36.6494 0.514336 36.6063C0.203453 36.4776 0 36.1733 0 35.8363V3.33385C0 1.49535 1.4959 0.000234393 3.33362 0H33.3359C33.987 0 34.6202 0.190405 35.1687 0.55098C35.4275 0.72193 35.5708 1.02227 35.5382 1.33151C35.5073 1.63997 35.3071 1.90608 35.0189 2.02086C34.3858 2.27314 33.8339 2.63208 33.3782 3.08867L27.97 8.49612C27.8349 8.40174 27.6795 8.33408 27.5021 8.33408H9.16734C8.70668 8.33408 8.33392 8.70684 8.33392 9.1675C8.33392 9.62816 8.70668 10.0009 9.16734 10.0009H26.4648L23.2341 13.2312C23.2177 13.2476 23.2053 13.2668 23.1928 13.286C23.182 13.3028 23.1711 13.3196 23.1576 13.3345H9.16734C8.70668 13.3345 8.33392 13.7073 8.33392 14.168C8.33392 14.6286 8.70668 15.0014 9.16734 15.0014H22.4523L21.7172 18.6785C21.5528 19.4988 21.8084 20.3436 22.4009 20.9369C22.9885 21.5238 23.8284 21.7875 24.6585 21.6198L28.8255 20.7864C29.3089 20.6895 29.7517 20.4535 30.1016 20.1027L35.2468 14.9591ZM9.16734 20.0018H19.1681C19.6288 20.0018 20.0015 19.6291 20.0015 19.1683C20.0015 18.7077 19.6288 18.3349 19.1681 18.3349H9.16734C8.70668 18.3349 8.33392 18.7077 8.33392 19.1683C8.33392 19.629 8.70668 20.0018 9.16734 20.0018ZM34.5537 4.26829C35.1462 3.67504 35.9682 3.334 36.8098 3.334C38.5693 3.334 40.0001 4.76481 40 6.52432C40 7.36345 39.6598 8.18546 39.0657 8.77957V8.78035L28.9201 18.9243C28.8045 19.0407 28.6564 19.1197 28.4936 19.1522L24.3282 19.9857C24.2746 19.9962 24.2192 20.0019 24.1655 20.0019C23.9473 20.0019 23.7341 19.9157 23.5762 19.7578C23.3793 19.5609 23.293 19.2784 23.3483 19.005L24.1817 14.8364C24.2143 14.6752 24.2925 14.5271 24.4097 14.4107L34.5537 4.26829ZM33.3325 7.84567L35.4879 10.0011L36.6665 8.82278L34.511 6.66722L33.3325 7.84567Z" fill="white"/>
</svg>
