<svg width="39" height="39" viewBox="0 0 39 39" fill="none" xmlns="http://www.w3.org/2000/svg">
<path d="M30.4471 17.804H28.9755V13.6711C28.9755 8.88987 24.9491 5 19.9999 5C15.0508 5 11.0244 8.88987 11.0244 13.6711V17.804H9.55276C8.69518 17.804 8 18.4756 8 19.3041V32.4653C8 33.2938 8.69518 33.9655 9.55276 33.9655H30.4471C31.3047 33.9655 32 33.2939 32 32.4653V19.3042C32 18.4757 31.3047 17.804 30.4471 17.804ZM14.7942 13.6711C14.7942 10.8981 17.1295 8.64198 19.9999 8.64198C22.8704 8.64198 25.2057 10.8981 25.2057 13.6711V17.804H14.7942V13.6711ZM21.6921 26.3838V29.0741C21.6921 29.977 20.9345 30.7089 19.9999 30.7089C19.0654 30.7089 18.3078 29.977 18.3078 29.0741V26.3838C17.6783 25.9014 17.2741 25.1566 17.2741 24.32C17.2741 22.8656 18.4945 21.6865 19.9999 21.6865C21.5054 21.6865 22.7258 22.8656 22.7258 24.32C22.7258 25.1566 22.3216 25.9015 21.6921 26.3838Z" fill="#232C3D"/>
</svg>
