<svg width="24" height="24" viewBox="0 0 24 24" fill="none" xmlns="http://www.w3.org/2000/svg">
<path d="M20.7499 22H3.24999C2.91847 22 2.60055 21.8682 2.36613 21.6338C2.13171 21.3994 2 21.0815 2 20.75V19.5C2 18.4763 2.65 17 5.74998 15.75C7.72995 14.9233 9.85428 14.4976 11.9999 14.4976C14.1456 14.4976 16.2699 14.9233 18.2499 15.75C21.3474 16.9925 21.9999 18.4738 21.9999 19.5V20.75C21.9999 21.0815 21.8682 21.3994 21.6337 21.6338C21.3993 21.8682 21.0814 22 20.7499 22ZM11.9999 12.0001C11.011 12.0001 10.0443 11.7066 9.22209 11.1572C8.39985 10.6078 7.75903 9.82716 7.3806 8.91353C7.00216 7.99991 6.9031 6.99465 7.09602 6.02475C7.28895 5.05486 7.76517 4.1636 8.46442 3.46434C9.16368 2.76509 10.0546 2.28887 11.0245 2.09594C11.9944 1.90302 12.9998 2.00254 13.9134 2.38098C14.827 2.75941 15.6078 3.40016 16.1572 4.2224C16.7067 5.04464 16.9999 6.01119 16.9999 7.00009C16.9999 8.32616 16.4731 9.59816 15.5355 10.5358C14.5978 11.4735 13.326 12.0001 11.9999 12.0001Z" fill="#5A616E"/>
</svg>
