<svg width="39" height="39" viewBox="0 0 39 39" fill="none" xmlns="http://www.w3.org/2000/svg">
<path fill-rule="evenodd" clip-rule="evenodd" d="M27.0257 8C26.5333 8.00055 26.0613 8.19523 25.7131 8.54133C25.3649 8.88743 25.1691 9.35669 25.1685 9.84615V30.1538C25.1685 30.6435 25.3642 31.1131 25.7125 31.4593C26.0608 31.8055 26.5331 32 27.0257 32C27.5182 32 27.9906 31.8055 28.3389 31.4593C28.6872 31.1131 28.8829 30.6435 28.8829 30.1538V9.84615C28.8823 9.35669 28.6865 8.88743 28.3383 8.54133C27.9901 8.19523 27.5181 8.00055 27.0257 8ZM24.4734 29.1635C21.1425 26.1243 16.0898 24.333 13.7946 23.9856V16.0144C16.0898 15.667 21.1425 13.8757 24.4734 10.8366V29.1635ZM9.358 29.2587C9.22739 29.1289 9.15402 28.9528 9.15402 28.7691V24.6153H13.18L12.0931 28.9371C12.0554 29.0869 11.9685 29.2198 11.846 29.3148C11.7236 29.4099 11.5728 29.4615 11.4174 29.4615H9.85046C9.66575 29.4615 9.48861 29.3885 9.358 29.2587ZM13.1005 16.0769H9.15402V23.9231H13.1005V16.0769ZM5.4375 18.1539V21.8462C5.43811 22.3968 5.65844 22.9247 6.05013 23.3141C6.44181 23.7035 6.97288 23.9225 7.52682 23.9231H8.4554V16.0769H7.52682C6.97288 16.0775 6.44181 16.2966 6.05013 16.6859C5.65844 17.0753 5.43811 17.6032 5.4375 18.1539ZM31.6674 19.3078H33.9889C34.1736 19.3078 34.3507 19.3807 34.4813 19.5105C34.6119 19.6404 34.6853 19.8165 34.6853 20.0001C34.6853 20.1837 34.6119 20.3598 34.4813 20.4896C34.3507 20.6194 34.1736 20.6924 33.9889 20.6924H31.6674C31.4827 20.6924 31.3056 20.6194 31.175 20.4896C31.0444 20.3598 30.971 20.1837 30.971 20.0001C30.971 19.8165 31.0444 19.6404 31.175 19.5105C31.3056 19.3807 31.4827 19.3078 31.6674 19.3078ZM30.5231 15.6925C30.6274 15.6925 30.7303 15.6691 30.8242 15.624L32.9165 14.624C33.083 14.5445 33.2109 14.4024 33.272 14.2291C33.3331 14.0559 33.3225 13.8656 33.2424 13.7001C33.1624 13.5346 33.0195 13.4075 32.8452 13.3467C32.6709 13.286 32.4794 13.2966 32.313 13.3761L30.2208 14.3762C30.0785 14.4441 29.9636 14.5582 29.895 14.6995C29.8264 14.8409 29.8082 15.0013 29.8434 15.1543C29.8785 15.3073 29.9649 15.444 30.0884 15.5418C30.2119 15.6395 30.3652 15.6927 30.5231 15.6925ZM30.8232 24.3759L32.9154 25.3759C33.0819 25.4555 33.2097 25.5975 33.2708 25.7708C33.3319 25.9441 33.3213 26.1344 33.2413 26.2999C33.1612 26.4653 33.0183 26.5924 32.844 26.6532C32.6697 26.7139 32.4783 26.7034 32.3118 26.6238L30.2196 25.6238C30.0545 25.5434 29.9279 25.4014 29.8677 25.2287C29.8074 25.056 29.8183 24.8666 29.898 24.7019C29.9777 24.5371 30.1197 24.4104 30.293 24.3493C30.4664 24.2883 30.657 24.2978 30.8232 24.3759Z" fill="#232C3D"/>
</svg>
