<svg width="83" height="73" viewBox="0 0 83 73" fill="none" xmlns="http://www.w3.org/2000/svg">
<path d="M76.2577 0C77.8077 0 79.1251 0.621941 80.2101 1.86582C81.4501 2.95421 82.07 4.19808 82.07 5.59744C82.07 6.84132 81.5275 8.24068 80.4426 9.79553C76.2577 15.082 73.0028 20.1353 70.6779 24.9553C68.5079 29.6198 67.423 33.5069 67.423 36.6166C67.423 37.8605 67.6555 38.7934 68.1204 39.4153C68.5854 40.0373 69.3604 40.426 70.4454 40.5815C78.8151 42.6028 83 47.967 83 56.6741C83 61.4941 81.45 65.459 78.3501 68.5687C75.2502 71.5229 71.2979 73 66.493 73C60.9132 73 56.5733 71.1342 53.4734 67.4025C50.3735 63.5154 48.8235 58.3067 48.8235 51.7763C48.8235 36.0724 55.9533 20.0575 70.2129 3.73164C72.3828 1.24388 74.3978 0 76.2577 0ZM27.4342 0C28.9841 0 30.3016 0.621941 31.3866 1.86582C32.6265 2.95421 33.2465 4.19808 33.2465 5.59744C33.2465 6.84132 32.704 8.24068 31.619 9.79553C27.4342 15.082 24.1793 20.1353 21.8543 24.9553C19.6844 29.6198 18.5994 33.5069 18.5994 36.6166C18.5994 37.8605 18.8319 38.7934 19.2969 39.4153C19.7619 40.0373 20.5369 40.426 21.6218 40.5815C29.9916 42.6028 34.1765 47.967 34.1765 56.6741C34.1765 61.4941 32.6265 65.459 29.5266 68.5687C26.4267 71.5229 22.4743 73 17.6695 73C12.0896 73 7.74977 71.1342 4.64986 67.4025C1.54995 63.5154 0 58.3067 0 51.7763C0 36.0724 7.12978 20.0575 21.3894 3.73164C23.5593 1.24388 25.5742 0 27.4342 0Z" fill="#565251"/>
</svg>
