<svg width="24" height="24" viewBox="0 0 24 24" fill="none" xmlns="http://www.w3.org/2000/svg">
<path d="M12 22C10.0222 22 8.08877 21.4135 6.44428 20.3147C4.79979 19.2159 3.51811 17.6541 2.76123 15.8268C2.00436 13.9996 1.80629 11.9889 2.19214 10.0491C2.578 8.10927 3.53043 6.32748 4.92896 4.92896C6.32748 3.53043 8.10927 2.578 10.0491 2.19214C11.9889 1.80629 13.9996 2.00436 15.8268 2.76123C17.6541 3.51811 19.2159 4.79979 20.3147 6.44428C21.4135 8.08877 22 10.0222 22 12C21.9968 14.6512 20.9422 17.1929 19.0676 19.0676C17.1929 20.9422 14.6512 21.9968 12 22ZM11.75 7C11.5509 7.00227 11.3604 7.08174 11.2186 7.22162C11.0769 7.36151 10.9949 7.55091 10.99 7.75V12.44C10.9889 12.6114 11.0326 12.7801 11.1168 12.9294C11.201 13.0787 11.3227 13.2033 11.47 13.291L15.551 15.801C15.6715 15.8745 15.8098 15.9136 15.951 15.914C16.0801 15.9151 16.2073 15.8831 16.3205 15.8211C16.4337 15.7592 16.5293 15.6693 16.598 15.56C16.7023 15.3863 16.7336 15.1783 16.6851 14.9816C16.6365 14.7848 16.5121 14.6153 16.339 14.51L12.499 12.2V7.75C12.4964 7.55207 12.4167 7.36297 12.2768 7.2229C12.1369 7.08284 11.9479 7.00285 11.75 7Z" fill="#5A616E"/>
</svg>
