<svg width="97" height="87" viewBox="0 0 97 87" fill="none" xmlns="http://www.w3.org/2000/svg">
<path d="M22.8632 80.3598C23.6398 80.3598 24.2694 79.7301 24.2694 78.9535V78.6496H86.9835C87.7601 78.6496 88.3897 78.02 88.3897 77.2433C88.3897 76.4667 87.7601 75.8371 86.9835 75.8371H24.2694V75.533C24.2694 74.7563 23.6398 74.1267 22.8632 74.1267C22.0866 74.1267 21.4569 74.7563 21.4569 75.533V75.8371H13.7812C13.0046 75.8371 12.375 76.4667 12.375 77.2433C12.375 78.02 13.0046 78.6496 13.7812 78.6496H21.4569V78.9535C21.4569 79.7301 22.0866 80.3598 22.8632 80.3598Z" fill="white"/>
<path d="M12.3839 32.8288V67.5322C12.3839 69.2229 13.7594 70.5984 15.4501 70.5984H85.3327C87.0234 70.5984 88.3987 69.2229 88.3987 67.5322V67.4628V65.8111V17.6842C88.3987 15.9935 87.0234 14.618 85.3327 14.618H43.8493V5.77533C43.8493 2.60039 41.2664 0.0175781 38.0915 0.0175781H6.25775C3.08281 0.0175781 0.5 2.60039 0.5 5.77533V27.071C0.5 30.246 3.08281 32.8288 6.25775 32.8288H12.3839ZM62.0486 67.7859H48.4269V65.8113C48.4269 63.0148 49.3891 60.2724 51.1364 58.0895C52.6394 56.2117 54.6734 54.8118 56.9473 54.0661L58.2234 56.9469C58.7613 58.1609 59.9647 58.8883 61.2206 58.8883C61.4324 58.8883 61.6458 58.8673 61.8577 58.8247L63.5581 61.5367L62.0486 67.7859ZM61.3887 56.0409C61.1613 56.1384 60.8949 56.0338 60.7947 55.8076L59.2567 52.3359L60.4798 51.8728L64.2573 54.8098L61.3887 56.0409ZM70.8838 27.0061C70.8742 27.0061 70.8648 27.0061 70.8554 27.0061C70.1188 27.0061 69.3663 27.0894 68.6184 27.2538C67.5491 27.4891 66.4644 27.4891 65.3947 27.2538C64.637 27.0873 63.8752 27.0046 63.1291 27.0061C61.4489 27.011 60.0819 28.3908 60.0819 30.0821V32.9979C60.0819 33.3343 59.8083 33.608 59.4719 33.608C58.6027 33.608 57.9183 33.608 57.2377 33.608V29.8985C57.2377 26.7142 59.8282 24.1237 63.0125 24.1237H71.0004C74.1845 24.1237 76.7752 26.7142 76.7752 29.8985V33.608H74.5409C74.2046 33.608 73.931 33.3345 73.931 32.9979V30.0821C73.931 28.3908 72.5641 27.0108 70.8838 27.0061ZM62.8946 32.9979V30.0821C62.8946 29.9396 63.0057 29.819 63.1376 29.8186H63.1578C63.6916 29.8186 64.2408 29.88 64.7907 30.0009C66.2609 30.3241 67.7521 30.3241 69.2225 30.0009C69.7794 29.8785 70.3406 29.8194 70.8757 29.8186C71.0075 29.819 71.1187 29.9398 71.1187 30.0821V32.9979C71.1187 34.7506 72.4436 36.1978 74.1442 36.3956C74.1136 39.1466 74.2338 39.918 74.0182 41.1667C74.0152 41.1804 74.0131 41.1941 74.0107 41.208C73.7917 42.4393 73.2605 43.7895 72.0793 44.8066C69.0723 47.3958 64.9704 47.4221 61.9329 44.8066C60.7494 43.7876 60.2212 42.4273 60.0052 41.1885C60.0044 41.1841 60.0039 41.1798 60.0029 41.1757C59.7926 39.9568 59.9058 39.3373 59.8719 36.3954C61.571 36.1961 62.8946 34.7497 62.8946 32.9979ZM70.5459 50.6296L67.0044 53.3829L63.4661 50.6321C63.6884 50.1405 63.8343 49.6168 63.9046 49.0799C65.8897 49.7098 67.9417 49.7673 70.1082 49.0796C70.1786 49.6156 70.3241 50.1384 70.5459 50.6296ZM64.9421 67.7859L66.1711 62.6977H67.8327L69.0618 67.7859H64.9421ZM68.1614 59.8852H65.8421L64.5106 57.7616L67.0042 56.6913L69.4936 57.7597L68.1614 59.8852ZM73.5288 51.8728L74.7519 52.3359L73.2138 55.8076C73.1137 56.034 72.8474 56.1388 72.62 56.0409L69.7514 54.8098L73.5288 51.8728ZM85.5862 67.4628C85.5862 67.641 85.4413 67.7859 85.2631 67.7859H71.9553L70.4458 61.5367L72.1464 58.824C72.3599 58.8673 72.5748 58.8883 72.7884 58.8883C74.0441 58.8883 75.2476 58.1608 75.7854 56.9469L77.0621 54.065C79.3368 54.8101 81.3719 56.2102 82.8757 58.0882C84.6237 60.2715 85.5864 63.014 85.5864 65.8113V67.4628H85.5862ZM43.8493 27.071V17.4305H85.3327C85.4726 17.4305 85.5862 17.5443 85.5862 17.6842V57.018C85.4204 56.7847 85.2504 56.5543 85.0711 56.3304C83.1487 53.9293 80.5184 52.1647 77.585 51.2823C77.342 50.603 76.8219 50.1121 76.2125 49.8815L74.2783 49.1493C73.8532 48.9883 73.3942 48.9631 72.9592 49.056C72.8261 48.5548 72.8833 48.2285 72.8696 47.7358C73.2288 47.4924 73.5779 47.2275 73.9143 46.938C75.1257 45.8949 76.0023 44.4976 76.4962 42.8681H77.4613C79.6046 42.8681 81.3481 41.124 81.3481 38.9801V37.4958C81.3481 36.1374 80.6465 34.9411 79.5879 34.2457V29.8983C79.5879 25.1632 75.7357 21.311 71.0006 21.311H63.0125C58.2776 21.311 54.4252 25.1632 54.4252 29.8983V34.2457C53.3666 34.9411 52.6649 36.1374 52.6649 37.4958V38.9801C52.6649 41.124 54.4087 42.8681 56.5518 42.8681H57.5216C58.0139 44.4997 58.8884 45.897 60.0972 46.938C60.434 47.228 60.7837 47.4931 61.1435 47.7367C61.1298 48.2293 61.187 48.5555 61.0537 49.0567C60.6176 48.9628 60.1572 48.9875 59.7307 49.149L57.7962 49.8811C57.197 50.108 56.7116 50.5771 56.4643 51.1683C56.4485 51.206 56.4367 51.245 56.423 51.2833C53.4907 52.1664 50.8617 53.9311 48.9402 56.3317C46.7952 59.0115 45.614 62.378 45.614 65.811V67.7855H15.4501C15.3103 67.7855 15.1964 67.6717 15.1964 67.5318V32.8288H27.1106C27.1357 32.8288 27.1593 32.84 27.1751 32.8595L33.4374 40.5815C34.1364 41.4435 35.2597 41.753 36.2952 41.3859C37.3359 41.0171 38.0083 40.0653 38.0083 38.9611V32.912C38.0083 32.8661 38.0456 32.829 38.0913 32.829C41.2663 32.8288 43.8493 30.2458 43.8493 27.071ZM76.9565 36.4205C77.366 36.4233 77.5516 36.3999 77.7723 36.4672C78.2133 36.6015 78.5354 37.0117 78.5354 37.496V38.9803C78.5354 39.5733 78.0536 40.0558 77.4611 40.0558H76.9501C76.9659 39.6125 76.9511 40.8097 76.9565 36.4205ZM57.0695 40.0556H56.552C55.9595 40.0556 55.4776 39.5731 55.4776 38.9801V37.4958C55.4776 37.0115 55.7996 36.6013 56.2407 36.467C56.4997 36.3883 56.7397 36.434 57.0594 36.4203C57.0691 40.7032 57.053 39.5868 57.0695 40.0556ZM3.3125 27.071V5.77533C3.3125 4.1512 4.63363 2.83008 6.25775 2.83008H38.0915C39.7156 2.83008 41.0368 4.1512 41.0368 5.77533V27.071C41.0368 28.6951 39.7156 30.0163 38.0915 30.0163C36.4949 30.0163 35.1959 31.3153 35.1959 32.9118V38.2845L29.3598 31.0878C28.8074 30.4068 27.9877 30.0161 27.1107 30.0161H6.25775C4.63363 30.0163 3.3125 28.695 3.3125 27.071Z" fill="white"/>
<path d="M91.0714 6.51685H49.0184C48.2417 6.51685 47.6121 7.14647 47.6121 7.9231C47.6121 8.69972 48.2417 9.32935 49.0184 9.32935H91.0714C92.5131 9.32935 93.6861 10.5023 93.6861 11.944V80.9086C93.6861 82.3503 92.5131 83.5231 91.0714 83.5231H9.70844C8.26675 83.5231 7.09375 82.3503 7.09375 80.9086V37.9973C7.09375 37.2207 6.46412 36.5911 5.6875 36.5911C4.91087 36.5911 4.28125 37.2207 4.28125 37.9973V80.9086C4.28125 83.9011 6.71575 86.3356 9.70844 86.3356H91.0714C94.0639 86.3356 96.4986 83.9011 96.4986 80.9086V11.944C96.4986 8.95153 94.0639 6.51685 91.0714 6.51685Z" fill="white"/>
<path d="M8.62888 15.5693L12.2261 16.6472V21.4309C12.2261 23.2363 13.6949 24.7052 15.5004 24.7052H28.8468C30.6523 24.7052 32.1209 23.2363 32.1209 21.4309V16.6472L34.2146 16.0198V17.5397C34.2146 18.3163 34.8442 18.946 35.6208 18.946C36.3974 18.946 37.0271 18.3163 37.0271 17.5397V14.0747C37.0421 13.9783 37.0503 13.8799 37.0503 13.7796C37.0503 12.9477 36.515 12.2286 35.7183 11.9899L24.0451 8.4921C22.8208 8.12535 21.5261 8.12535 20.3019 8.4921L8.62906 11.9899C7.83219 12.2286 7.29688 12.9477 7.29688 13.7796C7.29688 14.6115 7.83219 15.3306 8.62888 15.5693ZM29.3084 21.4309C29.3084 21.6855 29.1014 21.8927 28.8468 21.8927H15.5004C15.2458 21.8927 15.0386 21.6855 15.0386 21.4309V17.49L20.3019 19.0673C20.9141 19.2506 21.5437 19.3423 22.1733 19.3423C22.8031 19.3423 23.4328 19.2506 24.0451 19.0673L29.3083 17.49V21.4309H29.3084ZM21.1091 11.1863C21.8054 10.9776 22.5417 10.9776 23.2379 11.1863L31.8924 13.7796L30.3043 14.2555C30.3001 14.2568 30.2958 14.2579 30.2917 14.2592L23.2381 16.3729C22.5418 16.5816 21.8056 16.5818 21.1093 16.3729L14.0551 14.2592C14.0512 14.2579 14.0471 14.2568 14.0429 14.2557L12.4546 13.7796L21.1091 11.1863Z" fill="white"/>
</svg>
