<svg width="80" height="80" fill="none" xmlns="http://www.w3.org/2000/svg"><g clip-path="url(#clip0)"><path d="M69.438.624H24.895c-5.81 0-10.563 4.754-10.563 10.564v3.594h40.292c5.81 0 10.564 4.754 10.564 10.564V51.68h4.25c5.81 0 10.563-4.754 10.563-10.563v-29.93c0-5.81-4.753-10.564-10.563-10.564z" fill="#6C7ED6"/><path d="M61.948 14.3H17.406c-1.068 0-2.1.161-3.074.46v.022h40.292c5.81 0 10.564 4.754 10.564 10.564V51.68h4.25c1.068 0 2.1-.162 3.074-.46V24.863c0-5.81-4.754-10.564-10.564-10.564z" fill="#4F67D2"/><path d="M55.106 14.3H10.563C4.753 14.3 0 19.052 0 24.862v29.93c0 5.81 4.754 10.563 10.563 10.563h26.734a1.782 1.782 0 011.74 2.182 44.753 44.753 0 01-3.398 9.482c-.72 1.47.918 2.964 2.31 2.102 4.023-2.49 9.748-6.657 14.57-12.55a3.341 3.341 0 012.587-1.216c5.81 0 10.563-4.754 10.563-10.564v-29.93c0-5.81-4.753-10.563-10.563-10.563z" fill="#60B8FE"/><path d="M45.875 67.538a1.782 1.782 0 00-1.74-2.182h-6.84a1.782 1.782 0 011.74 2.182 44.762 44.762 0 01-3.398 9.482c-.72 1.47.918 2.964 2.31 2.102a64.615 64.615 0 005.235-3.61 44.586 44.586 0 002.693-7.974zM6.841 54.792v-29.93c0-5.81 4.754-10.563 10.563-10.563h-6.84C4.753 14.3 0 19.053 0 24.863v29.93c0 5.81 4.754 10.563 10.563 10.563h6.841c-5.81 0-10.563-4.754-10.563-10.564z" fill="#23A8FE"/><path d="M14.642 44.192a3.505 3.505 0 100-7.01 3.505 3.505 0 000 7.01zM25.962 44.192a3.505 3.505 0 100-7.01 3.505 3.505 0 000 7.01zM37.287 44.192a3.505 3.505 0 100-7.01 3.505 3.505 0 000 7.01zM48.607 44.192a3.505 3.505 0 100-7.01 3.505 3.505 0 000 7.01z" fill="#DFEBFA"/><path d="M14.642 40.687c0-1.297.705-2.43 1.753-3.035a3.505 3.505 0 100 6.07 3.503 3.503 0 01-1.753-3.035zM25.966 40.687c0-1.297.706-2.43 1.753-3.035a3.505 3.505 0 100 6.07 3.503 3.503 0 01-1.753-3.035zM37.287 40.687c0-1.297.705-2.43 1.752-3.035a3.505 3.505 0 100 6.07 3.503 3.503 0 01-1.752-3.035zM48.607 40.687c0-1.297.705-2.43 1.752-3.035a3.505 3.505 0 100 6.07 3.503 3.503 0 01-1.752-3.035z" fill="#B1DBFC"/></g><defs><clipPath id="clip0"><path fill="#fff" d="M0 0h80v80H0z"/></clipPath></defs></svg>