<svg width="141" height="142" viewBox="0 0 141 142" fill="none" xmlns="http://www.w3.org/2000/svg">
<g opacity="0.05">
<circle cx="33.3095" cy="2.02251" r="2.02251" transform="rotate(90 33.3095 2.02251)" fill="#232C3D"/>
<circle cx="107.001" cy="2.02251" r="2.02251" transform="rotate(90 107.001 2.02251)" fill="#232C3D"/>
<circle cx="33.3095" cy="86.8311" r="2.02251" transform="rotate(90 33.3095 86.8311)" fill="#232C3D"/>
<circle cx="107.001" cy="86.8311" r="2.02251" transform="rotate(90 107.001 86.8311)" fill="#232C3D"/>
<circle cx="33.3095" cy="44.4263" r="2.02251" transform="rotate(90 33.3095 44.4263)" fill="#232C3D"/>
<circle cx="107.001" cy="44.4263" r="2.02251" transform="rotate(90 107.001 44.4263)" fill="#232C3D"/>
<circle cx="33.3095" cy="129.235" r="2.02251" transform="rotate(90 33.3095 129.235)" fill="#232C3D"/>
<circle cx="107.001" cy="129.235" r="2.02251" transform="rotate(90 107.001 129.235)" fill="#232C3D"/>
<circle cx="33.3095" cy="23.2244" r="2.02251" transform="rotate(90 33.3095 23.2244)" fill="#232C3D"/>
<circle cx="107.001" cy="23.2244" r="2.02251" transform="rotate(90 107.001 23.2244)" fill="#232C3D"/>
<circle cx="33.3095" cy="108.033" r="2.02251" transform="rotate(90 33.3095 108.033)" fill="#232C3D"/>
<circle cx="107.001" cy="108.033" r="2.02251" transform="rotate(90 107.001 108.033)" fill="#232C3D"/>
<circle cx="33.3095" cy="65.6292" r="2.02251" transform="rotate(90 33.3095 65.6292)" fill="#232C3D"/>
<circle cx="107.001" cy="65.6292" r="2.02251" transform="rotate(90 107.001 65.6292)" fill="#232C3D"/>
<circle cx="54.5126" cy="2.02251" r="2.02251" transform="rotate(90 54.5126 2.02251)" fill="#232C3D"/>
<circle cx="128.2" cy="2.02251" r="2.02251" transform="rotate(90 128.2 2.02251)" fill="#232C3D"/>
<circle cx="54.5126" cy="86.8311" r="2.02251" transform="rotate(90 54.5126 86.8311)" fill="#232C3D"/>
<circle cx="128.2" cy="86.8311" r="2.02251" transform="rotate(90 128.2 86.8311)" fill="#232C3D"/>
<circle cx="54.5126" cy="44.4263" r="2.02251" transform="rotate(90 54.5126 44.4263)" fill="#232C3D"/>
<circle cx="128.2" cy="44.4263" r="2.02251" transform="rotate(90 128.2 44.4263)" fill="#232C3D"/>
<circle cx="54.5126" cy="129.235" r="2.02251" transform="rotate(90 54.5126 129.235)" fill="#232C3D"/>
<circle cx="128.2" cy="129.235" r="2.02251" transform="rotate(90 128.2 129.235)" fill="#232C3D"/>
<circle cx="54.5126" cy="23.2244" r="2.02251" transform="rotate(90 54.5126 23.2244)" fill="#232C3D"/>
<circle cx="128.2" cy="23.2244" r="2.02251" transform="rotate(90 128.2 23.2244)" fill="#232C3D"/>
<circle cx="54.5126" cy="108.033" r="2.02251" transform="rotate(90 54.5126 108.033)" fill="#232C3D"/>
<circle cx="128.2" cy="108.033" r="2.02251" transform="rotate(90 128.2 108.033)" fill="#232C3D"/>
<circle cx="54.5126" cy="65.6292" r="2.02251" transform="rotate(90 54.5126 65.6292)" fill="#232C3D"/>
<circle cx="128.2" cy="65.6292" r="2.02251" transform="rotate(90 128.2 65.6292)" fill="#232C3D"/>
<circle cx="12.622" cy="2.02251" r="2.02251" transform="rotate(90 12.622 2.02251)" fill="#232C3D"/>
<circle cx="86.3134" cy="2.02251" r="2.02251" transform="rotate(90 86.3134 2.02251)" fill="#232C3D"/>
<circle cx="12.622" cy="86.8311" r="2.02251" transform="rotate(90 12.622 86.8311)" fill="#232C3D"/>
<circle cx="86.3134" cy="86.8311" r="2.02251" transform="rotate(90 86.3134 86.8311)" fill="#232C3D"/>
<circle cx="12.622" cy="44.4263" r="2.02251" transform="rotate(90 12.622 44.4263)" fill="#232C3D"/>
<circle cx="86.3134" cy="44.4263" r="2.02251" transform="rotate(90 86.3134 44.4263)" fill="#232C3D"/>
<circle cx="12.622" cy="129.235" r="2.02251" transform="rotate(90 12.622 129.235)" fill="#232C3D"/>
<circle cx="86.3134" cy="129.235" r="2.02251" transform="rotate(90 86.3134 129.235)" fill="#232C3D"/>
<circle cx="12.622" cy="23.2244" r="2.02251" transform="rotate(90 12.622 23.2244)" fill="#232C3D"/>
<circle cx="86.3134" cy="23.2244" r="2.02251" transform="rotate(90 86.3134 23.2244)" fill="#232C3D"/>
<circle cx="12.622" cy="108.033" r="2.02251" transform="rotate(90 12.622 108.033)" fill="#232C3D"/>
<circle cx="86.3134" cy="108.033" r="2.02251" transform="rotate(90 86.3134 108.033)" fill="#232C3D"/>
<circle cx="12.622" cy="65.6292" r="2.02251" transform="rotate(90 12.622 65.6292)" fill="#232C3D"/>
<circle cx="86.3134" cy="65.6292" r="2.02251" transform="rotate(90 86.3134 65.6292)" fill="#232C3D"/>
<circle cx="65.1103" cy="2.02251" r="2.02251" transform="rotate(90 65.1103 2.02251)" fill="#232C3D"/>
<circle cx="138.802" cy="2.02251" r="2.02251" transform="rotate(90 138.802 2.02251)" fill="#232C3D"/>
<circle cx="65.1103" cy="86.8311" r="2.02251" transform="rotate(90 65.1103 86.8311)" fill="#232C3D"/>
<circle cx="138.802" cy="86.8311" r="2.02251" transform="rotate(90 138.802 86.8311)" fill="#232C3D"/>
<circle cx="65.1103" cy="44.4263" r="2.02251" transform="rotate(90 65.1103 44.4263)" fill="#232C3D"/>
<circle cx="138.802" cy="44.4263" r="2.02251" transform="rotate(90 138.802 44.4263)" fill="#232C3D"/>
<circle cx="65.1103" cy="129.235" r="2.02251" transform="rotate(90 65.1103 129.235)" fill="#232C3D"/>
<circle cx="138.802" cy="129.235" r="2.02251" transform="rotate(90 138.802 129.235)" fill="#232C3D"/>
<circle cx="65.1103" cy="23.2244" r="2.02251" transform="rotate(90 65.1103 23.2244)" fill="#232C3D"/>
<circle cx="138.802" cy="23.2244" r="2.02251" transform="rotate(90 138.802 23.2244)" fill="#232C3D"/>
<circle cx="65.1103" cy="108.033" r="2.02251" transform="rotate(90 65.1103 108.033)" fill="#232C3D"/>
<circle cx="138.802" cy="108.033" r="2.02251" transform="rotate(90 138.802 108.033)" fill="#232C3D"/>
<circle cx="65.1103" cy="65.6292" r="2.02251" transform="rotate(90 65.1103 65.6292)" fill="#232C3D"/>
<circle cx="138.802" cy="65.6292" r="2.02251" transform="rotate(90 138.802 65.6292)" fill="#232C3D"/>
<circle cx="22.708" cy="2.02251" r="2.02251" transform="rotate(90 22.708 2.02251)" fill="#232C3D"/>
<circle cx="96.3994" cy="2.02251" r="2.02251" transform="rotate(90 96.3994 2.02251)" fill="#232C3D"/>
<circle cx="22.708" cy="86.8311" r="2.02251" transform="rotate(90 22.708 86.8311)" fill="#232C3D"/>
<circle cx="96.3994" cy="86.8311" r="2.02251" transform="rotate(90 96.3994 86.8311)" fill="#232C3D"/>
<circle cx="22.708" cy="44.4263" r="2.02251" transform="rotate(90 22.708 44.4263)" fill="#232C3D"/>
<circle cx="96.3994" cy="44.4263" r="2.02251" transform="rotate(90 96.3994 44.4263)" fill="#232C3D"/>
<circle cx="22.708" cy="129.235" r="2.02251" transform="rotate(90 22.708 129.235)" fill="#232C3D"/>
<circle cx="96.3994" cy="129.235" r="2.02251" transform="rotate(90 96.3994 129.235)" fill="#232C3D"/>
<circle cx="22.708" cy="23.2244" r="2.02251" transform="rotate(90 22.708 23.2244)" fill="#232C3D"/>
<circle cx="96.3994" cy="23.2244" r="2.02251" transform="rotate(90 96.3994 23.2244)" fill="#232C3D"/>
<circle cx="22.708" cy="108.033" r="2.02251" transform="rotate(90 22.708 108.033)" fill="#232C3D"/>
<circle cx="96.3994" cy="108.033" r="2.02251" transform="rotate(90 96.3994 108.033)" fill="#232C3D"/>
<circle cx="22.708" cy="65.6292" r="2.02251" transform="rotate(90 22.708 65.6292)" fill="#232C3D"/>
<circle cx="96.3994" cy="65.6292" r="2.02251" transform="rotate(90 96.3994 65.6292)" fill="#232C3D"/>
<circle cx="43.9111" cy="2.02251" r="2.02251" transform="rotate(90 43.9111 2.02251)" fill="#232C3D"/>
<circle cx="117.602" cy="2.02251" r="2.02251" transform="rotate(90 117.602 2.02251)" fill="#232C3D"/>
<circle cx="43.9111" cy="86.8311" r="2.02251" transform="rotate(90 43.9111 86.8311)" fill="#232C3D"/>
<circle cx="117.602" cy="86.8311" r="2.02251" transform="rotate(90 117.602 86.8311)" fill="#232C3D"/>
<circle cx="43.9111" cy="44.4263" r="2.02251" transform="rotate(90 43.9111 44.4263)" fill="#232C3D"/>
<circle cx="117.602" cy="44.4263" r="2.02251" transform="rotate(90 117.602 44.4263)" fill="#232C3D"/>
<circle cx="43.9111" cy="129.235" r="2.02251" transform="rotate(90 43.9111 129.235)" fill="#232C3D"/>
<circle cx="117.602" cy="129.235" r="2.02251" transform="rotate(90 117.602 129.235)" fill="#232C3D"/>
<circle cx="43.9111" cy="23.2244" r="2.02251" transform="rotate(90 43.9111 23.2244)" fill="#232C3D"/>
<circle cx="117.602" cy="23.2244" r="2.02251" transform="rotate(90 117.602 23.2244)" fill="#232C3D"/>
<circle cx="43.9111" cy="108.033" r="2.02251" transform="rotate(90 43.9111 108.033)" fill="#232C3D"/>
<circle cx="117.602" cy="108.033" r="2.02251" transform="rotate(90 117.602 108.033)" fill="#232C3D"/>
<circle cx="43.9111" cy="65.6292" r="2.02251" transform="rotate(90 43.9111 65.6292)" fill="#232C3D"/>
<circle cx="117.602" cy="65.6292" r="2.02251" transform="rotate(90 117.602 65.6292)" fill="#232C3D"/>
<circle cx="2.02436" cy="2.02251" r="2.02251" transform="rotate(90 2.02436 2.02251)" fill="#232C3D"/>
<circle cx="75.7119" cy="2.02251" r="2.02251" transform="rotate(90 75.7119 2.02251)" fill="#232C3D"/>
<circle cx="2.02436" cy="86.8311" r="2.02251" transform="rotate(90 2.02436 86.8311)" fill="#232C3D"/>
<circle cx="75.7119" cy="86.8311" r="2.02251" transform="rotate(90 75.7119 86.8311)" fill="#232C3D"/>
<circle cx="2.02436" cy="44.4263" r="2.02251" transform="rotate(90 2.02436 44.4263)" fill="#232C3D"/>
<circle cx="75.7119" cy="44.4263" r="2.02251" transform="rotate(90 75.7119 44.4263)" fill="#232C3D"/>
<circle cx="2.02436" cy="129.235" r="2.02251" transform="rotate(90 2.02436 129.235)" fill="#232C3D"/>
<circle cx="75.7119" cy="129.235" r="2.02251" transform="rotate(90 75.7119 129.235)" fill="#232C3D"/>
<circle cx="2.02436" cy="23.2244" r="2.02251" transform="rotate(90 2.02436 23.2244)" fill="#232C3D"/>
<circle cx="75.7119" cy="23.2244" r="2.02251" transform="rotate(90 75.7119 23.2244)" fill="#232C3D"/>
<circle cx="2.02436" cy="108.033" r="2.02251" transform="rotate(90 2.02436 108.033)" fill="#232C3D"/>
<circle cx="75.7119" cy="108.033" r="2.02251" transform="rotate(90 75.7119 108.033)" fill="#232C3D"/>
<circle cx="2.02436" cy="65.6292" r="2.02251" transform="rotate(90 2.02436 65.6292)" fill="#232C3D"/>
<circle cx="75.7119" cy="65.6292" r="2.02251" transform="rotate(90 75.7119 65.6292)" fill="#232C3D"/>
<circle cx="33.3095" cy="12.6236" r="2.02251" transform="rotate(90 33.3095 12.6236)" fill="#232C3D"/>
<circle cx="107.001" cy="12.6236" r="2.02251" transform="rotate(90 107.001 12.6236)" fill="#232C3D"/>
<circle cx="33.3095" cy="97.4322" r="2.02251" transform="rotate(90 33.3095 97.4322)" fill="#232C3D"/>
<circle cx="107.001" cy="97.4322" r="2.02251" transform="rotate(90 107.001 97.4322)" fill="#232C3D"/>
<circle cx="33.3095" cy="55.0271" r="2.02251" transform="rotate(90 33.3095 55.0271)" fill="#232C3D"/>
<circle cx="107.001" cy="55.0271" r="2.02251" transform="rotate(90 107.001 55.0271)" fill="#232C3D"/>
<circle cx="33.3095" cy="139.835" r="2.02251" transform="rotate(90 33.3095 139.835)" fill="#232C3D"/>
<circle cx="107.001" cy="139.835" r="2.02251" transform="rotate(90 107.001 139.835)" fill="#232C3D"/>
<circle cx="33.3095" cy="33.8255" r="2.02251" transform="rotate(90 33.3095 33.8255)" fill="#232C3D"/>
<circle cx="107.001" cy="33.8255" r="2.02251" transform="rotate(90 107.001 33.8255)" fill="#232C3D"/>
<circle cx="33.3095" cy="118.634" r="2.02251" transform="rotate(90 33.3095 118.634)" fill="#232C3D"/>
<circle cx="107.001" cy="118.634" r="2.02251" transform="rotate(90 107.001 118.634)" fill="#232C3D"/>
<circle cx="33.3095" cy="76.2293" r="2.02251" transform="rotate(90 33.3095 76.2293)" fill="#232C3D"/>
<circle cx="107.001" cy="76.2293" r="2.02251" transform="rotate(90 107.001 76.2293)" fill="#232C3D"/>
<circle cx="54.5126" cy="12.6236" r="2.02251" transform="rotate(90 54.5126 12.6236)" fill="#232C3D"/>
<circle cx="128.2" cy="12.6236" r="2.02251" transform="rotate(90 128.2 12.6236)" fill="#232C3D"/>
<circle cx="54.5126" cy="97.4322" r="2.02251" transform="rotate(90 54.5126 97.4322)" fill="#232C3D"/>
<circle cx="128.2" cy="97.4322" r="2.02251" transform="rotate(90 128.2 97.4322)" fill="#232C3D"/>
<circle cx="54.5126" cy="55.0271" r="2.02251" transform="rotate(90 54.5126 55.0271)" fill="#232C3D"/>
<circle cx="128.2" cy="55.0271" r="2.02251" transform="rotate(90 128.2 55.0271)" fill="#232C3D"/>
<circle cx="54.5126" cy="139.835" r="2.02251" transform="rotate(90 54.5126 139.835)" fill="#232C3D"/>
<circle cx="128.2" cy="139.835" r="2.02251" transform="rotate(90 128.2 139.835)" fill="#232C3D"/>
<circle cx="54.5126" cy="33.8255" r="2.02251" transform="rotate(90 54.5126 33.8255)" fill="#232C3D"/>
<circle cx="128.2" cy="33.8255" r="2.02251" transform="rotate(90 128.2 33.8255)" fill="#232C3D"/>
<circle cx="54.5126" cy="118.634" r="2.02251" transform="rotate(90 54.5126 118.634)" fill="#232C3D"/>
<circle cx="128.2" cy="118.634" r="2.02251" transform="rotate(90 128.2 118.634)" fill="#232C3D"/>
<circle cx="54.5126" cy="76.2293" r="2.02251" transform="rotate(90 54.5126 76.2293)" fill="#232C3D"/>
<circle cx="128.2" cy="76.2293" r="2.02251" transform="rotate(90 128.2 76.2293)" fill="#232C3D"/>
<circle cx="12.622" cy="12.6236" r="2.02251" transform="rotate(90 12.622 12.6236)" fill="#232C3D"/>
<circle cx="86.3134" cy="12.6236" r="2.02251" transform="rotate(90 86.3134 12.6236)" fill="#232C3D"/>
<circle cx="12.622" cy="97.4322" r="2.02251" transform="rotate(90 12.622 97.4322)" fill="#232C3D"/>
<circle cx="86.3134" cy="97.4322" r="2.02251" transform="rotate(90 86.3134 97.4322)" fill="#232C3D"/>
<circle cx="12.622" cy="55.0271" r="2.02251" transform="rotate(90 12.622 55.0271)" fill="#232C3D"/>
<circle cx="86.3134" cy="55.0271" r="2.02251" transform="rotate(90 86.3134 55.0271)" fill="#232C3D"/>
<circle cx="12.622" cy="139.835" r="2.02251" transform="rotate(90 12.622 139.835)" fill="#232C3D"/>
<circle cx="86.3134" cy="139.835" r="2.02251" transform="rotate(90 86.3134 139.835)" fill="#232C3D"/>
<circle cx="12.622" cy="33.8255" r="2.02251" transform="rotate(90 12.622 33.8255)" fill="#232C3D"/>
<circle cx="86.3134" cy="33.8255" r="2.02251" transform="rotate(90 86.3134 33.8255)" fill="#232C3D"/>
<circle cx="12.622" cy="118.634" r="2.02251" transform="rotate(90 12.622 118.634)" fill="#232C3D"/>
<circle cx="86.3134" cy="118.634" r="2.02251" transform="rotate(90 86.3134 118.634)" fill="#232C3D"/>
<circle cx="12.622" cy="76.2293" r="2.02251" transform="rotate(90 12.622 76.2293)" fill="#232C3D"/>
<circle cx="86.3134" cy="76.2293" r="2.02251" transform="rotate(90 86.3134 76.2293)" fill="#232C3D"/>
<circle cx="65.1103" cy="12.6236" r="2.02251" transform="rotate(90 65.1103 12.6236)" fill="#232C3D"/>
<circle cx="138.802" cy="12.6236" r="2.02251" transform="rotate(90 138.802 12.6236)" fill="#232C3D"/>
<circle cx="65.1103" cy="97.4322" r="2.02251" transform="rotate(90 65.1103 97.4322)" fill="#232C3D"/>
<circle cx="138.802" cy="97.4322" r="2.02251" transform="rotate(90 138.802 97.4322)" fill="#232C3D"/>
<circle cx="65.1103" cy="55.0271" r="2.02251" transform="rotate(90 65.1103 55.0271)" fill="#232C3D"/>
<circle cx="138.802" cy="55.0271" r="2.02251" transform="rotate(90 138.802 55.0271)" fill="#232C3D"/>
<circle cx="65.1103" cy="139.835" r="2.02251" transform="rotate(90 65.1103 139.835)" fill="#232C3D"/>
<circle cx="138.802" cy="139.835" r="2.02251" transform="rotate(90 138.802 139.835)" fill="#232C3D"/>
<circle cx="65.1103" cy="33.8255" r="2.02251" transform="rotate(90 65.1103 33.8255)" fill="#232C3D"/>
<circle cx="138.802" cy="33.8255" r="2.02251" transform="rotate(90 138.802 33.8255)" fill="#232C3D"/>
<circle cx="65.1103" cy="118.634" r="2.02251" transform="rotate(90 65.1103 118.634)" fill="#232C3D"/>
<circle cx="138.802" cy="118.634" r="2.02251" transform="rotate(90 138.802 118.634)" fill="#232C3D"/>
<circle cx="65.1103" cy="76.2293" r="2.02251" transform="rotate(90 65.1103 76.2293)" fill="#232C3D"/>
<circle cx="138.802" cy="76.2293" r="2.02251" transform="rotate(90 138.802 76.2293)" fill="#232C3D"/>
<circle cx="22.708" cy="12.6236" r="2.02251" transform="rotate(90 22.708 12.6236)" fill="#232C3D"/>
<circle cx="96.3994" cy="12.6236" r="2.02251" transform="rotate(90 96.3994 12.6236)" fill="#232C3D"/>
<circle cx="22.708" cy="97.4322" r="2.02251" transform="rotate(90 22.708 97.4322)" fill="#232C3D"/>
<circle cx="96.3994" cy="97.4322" r="2.02251" transform="rotate(90 96.3994 97.4322)" fill="#232C3D"/>
<circle cx="22.708" cy="55.0271" r="2.02251" transform="rotate(90 22.708 55.0271)" fill="#232C3D"/>
<circle cx="96.3994" cy="55.0271" r="2.02251" transform="rotate(90 96.3994 55.0271)" fill="#232C3D"/>
<circle cx="22.708" cy="139.835" r="2.02251" transform="rotate(90 22.708 139.835)" fill="#232C3D"/>
<circle cx="96.3994" cy="139.835" r="2.02251" transform="rotate(90 96.3994 139.835)" fill="#232C3D"/>
<circle cx="22.708" cy="33.8255" r="2.02251" transform="rotate(90 22.708 33.8255)" fill="#232C3D"/>
<circle cx="96.3994" cy="33.8255" r="2.02251" transform="rotate(90 96.3994 33.8255)" fill="#232C3D"/>
<circle cx="22.708" cy="118.634" r="2.02251" transform="rotate(90 22.708 118.634)" fill="#232C3D"/>
<circle cx="96.3994" cy="118.634" r="2.02251" transform="rotate(90 96.3994 118.634)" fill="#232C3D"/>
<circle cx="22.708" cy="76.2293" r="2.02251" transform="rotate(90 22.708 76.2293)" fill="#232C3D"/>
<circle cx="96.3994" cy="76.2293" r="2.02251" transform="rotate(90 96.3994 76.2293)" fill="#232C3D"/>
<circle cx="43.9111" cy="12.6236" r="2.02251" transform="rotate(90 43.9111 12.6236)" fill="#232C3D"/>
<circle cx="117.602" cy="12.6236" r="2.02251" transform="rotate(90 117.602 12.6236)" fill="#232C3D"/>
<circle cx="43.9111" cy="97.4322" r="2.02251" transform="rotate(90 43.9111 97.4322)" fill="#232C3D"/>
<circle cx="117.602" cy="97.4322" r="2.02251" transform="rotate(90 117.602 97.4322)" fill="#232C3D"/>
<circle cx="43.9111" cy="55.0271" r="2.02251" transform="rotate(90 43.9111 55.0271)" fill="#232C3D"/>
<circle cx="117.602" cy="55.0271" r="2.02251" transform="rotate(90 117.602 55.0271)" fill="#232C3D"/>
<circle cx="43.9111" cy="139.835" r="2.02251" transform="rotate(90 43.9111 139.835)" fill="#232C3D"/>
<circle cx="117.602" cy="139.835" r="2.02251" transform="rotate(90 117.602 139.835)" fill="#232C3D"/>
<circle cx="43.9111" cy="33.8255" r="2.02251" transform="rotate(90 43.9111 33.8255)" fill="#232C3D"/>
<circle cx="117.602" cy="33.8255" r="2.02251" transform="rotate(90 117.602 33.8255)" fill="#232C3D"/>
<circle cx="43.9111" cy="118.634" r="2.02251" transform="rotate(90 43.9111 118.634)" fill="#232C3D"/>
<circle cx="117.602" cy="118.634" r="2.02251" transform="rotate(90 117.602 118.634)" fill="#232C3D"/>
<circle cx="43.9111" cy="76.2293" r="2.02251" transform="rotate(90 43.9111 76.2293)" fill="#232C3D"/>
<circle cx="117.602" cy="76.2293" r="2.02251" transform="rotate(90 117.602 76.2293)" fill="#232C3D"/>
<circle cx="2.02436" cy="12.6236" r="2.02251" transform="rotate(90 2.02436 12.6236)" fill="#232C3D"/>
<circle cx="75.7119" cy="12.6236" r="2.02251" transform="rotate(90 75.7119 12.6236)" fill="#232C3D"/>
<circle cx="2.02436" cy="97.4322" r="2.02251" transform="rotate(90 2.02436 97.4322)" fill="#232C3D"/>
<circle cx="75.7119" cy="97.4322" r="2.02251" transform="rotate(90 75.7119 97.4322)" fill="#232C3D"/>
<circle cx="2.02436" cy="55.0271" r="2.02251" transform="rotate(90 2.02436 55.0271)" fill="#232C3D"/>
<circle cx="75.7119" cy="55.0271" r="2.02251" transform="rotate(90 75.7119 55.0271)" fill="#232C3D"/>
<circle cx="2.02436" cy="139.835" r="2.02251" transform="rotate(90 2.02436 139.835)" fill="#232C3D"/>
<circle cx="75.7119" cy="139.835" r="2.02251" transform="rotate(90 75.7119 139.835)" fill="#232C3D"/>
<circle cx="2.02436" cy="33.8255" r="2.02251" transform="rotate(90 2.02436 33.8255)" fill="#232C3D"/>
<circle cx="75.7119" cy="33.8255" r="2.02251" transform="rotate(90 75.7119 33.8255)" fill="#232C3D"/>
<circle cx="2.02436" cy="118.634" r="2.02251" transform="rotate(90 2.02436 118.634)" fill="#232C3D"/>
<circle cx="75.7119" cy="118.634" r="2.02251" transform="rotate(90 75.7119 118.634)" fill="#232C3D"/>
<circle cx="2.02436" cy="76.2293" r="2.02251" transform="rotate(90 2.02436 76.2293)" fill="#232C3D"/>
<circle cx="75.7119" cy="76.2293" r="2.02251" transform="rotate(90 75.7119 76.2293)" fill="#232C3D"/>
</g>
</svg>
