<svg width="80" height="80" fill="none" xmlns="http://www.w3.org/2000/svg"><g clip-path="url(#clip0)"><path d="M40 0v33.803c9.334 0 16.901-7.567 16.901-16.902C56.901 7.567 49.334 0 40 0z" fill="#ACD2F6"/><path d="M52.072 16.901C52.072 7.567 46.666 0 39.998 0c-9.334 0-16.901 7.567-16.901 16.901 0 9.335 7.567 16.902 16.901 16.902 6.667 0 12.072-7.567 12.072-16.902z" fill="#C4F3FF"/><path d="M40 30.181a1.207 1.207 0 100-2.414 1.207 1.207 0 000 2.414zM46.035 28.564a1.207 1.207 0 100-2.415 1.207 1.207 0 000 2.415zM33.961 7.654a1.207 1.207 0 100-2.415 1.207 1.207 0 000 2.415zM50.453 24.145a1.207 1.207 0 100-2.415 1.207 1.207 0 000 2.415zM29.543 12.072a1.207 1.207 0 100-2.414 1.207 1.207 0 000 2.414zM27.926 18.109a1.207 1.207 0 100-2.415 1.207 1.207 0 000 2.415zM50.453 12.072a1.207 1.207 0 100-2.414 1.207 1.207 0 000 2.414zM29.543 24.145a1.207 1.207 0 100-2.414 1.207 1.207 0 000 2.414zM46.035 7.654a1.207 1.207 0 100-2.415 1.207 1.207 0 000 2.415zM33.961 28.564a1.207 1.207 0 100-2.415 1.207 1.207 0 000 2.415z" fill="#4E4CD3"/><path d="M60.684 26.56V49.44h9.657V26.559a4.829 4.829 0 10-9.657 0z" fill="#FF9733"/><path d="M65.512 14.487v27.71h9.658v-27.71a4.829 4.829 0 10-9.658 0z" fill="#FFB44E"/><path d="M75.26 4.83a4.808 4.808 0 00-2.517.652v41.765L51.551 68.973 59.599 80h3.442c.772 0 1.346-.715 1.178-1.47l-1.283-5.774 15.407-22.804a9.658 9.658 0 001.655-5.407V9.761c0-2.649-2.09-4.883-4.739-4.931z" fill="#FFB44E"/><path d="M58.936 70.051l15.407-22.804a4.812 4.812 0 00.828-2.703V9.757a4.97 4.97 0 00-2.426-4.275 4.826 4.826 0 00-2.403 4.176v31.7h-9.658l-18.27 31.7v5.735c0 .667.54 1.207 1.207 1.207h15.98l-1.378-6.198a4.829 4.829 0 01.713-3.75z" fill="#FFD06A"/><path d="M68.927 37.943a4.829 4.829 0 00-6.83 0L45.244 54.798a9.627 9.627 0 00-2.829 6.83v11.43c5.334 0 9.657-4.324 9.658-9.658v-1.773l16.855-16.855a4.829 4.829 0 000-6.829z" fill="#FFE7B5"/><path d="M14.485 21.73a4.829 4.829 0 00-4.829 4.83v27.71h9.658V26.56a4.829 4.829 0 00-4.829-4.83z" fill="#FF9733"/><path d="M9.657 9.658a4.829 4.829 0 00-4.829 4.829v27.71h9.658v-27.71a4.829 4.829 0 00-4.829-4.829zM29.54 63.069l3.218 16.93h3.622c.667 0 1.207-.54 1.207-1.206v-5.736l-8.048-9.988z" fill="#FFB44E"/><path d="M19.316 41.358H9.658v-31.7A4.83 4.83 0 004.693 4.83C2.063 4.903 0 7.127 0 9.758v34.787c0 1.927.576 3.81 1.655 5.407l15.407 22.805-1.283 5.774A1.207 1.207 0 0016.958 80h15.798V64.678l-13.44-23.32z" fill="#FFD06A"/><path d="M34.754 54.798L17.898 37.943l14.856 33.819a9.61 9.61 0 004.829 1.295v-11.43a9.629 9.629 0 00-2.83-6.829z" fill="#FFD06A"/><path d="M30.62 54.798L17.9 37.943a4.829 4.829 0 10-6.83 6.83l16.856 16.854V63.4a9.652 9.652 0 004.829 8.362V61.627c0-2.666-.816-5.08-2.135-6.829z" fill="#FFE7B5"/><path d="M52.073 18.109H40c-.666 0-1.207-.54-1.207-1.208V4.83a1.207 1.207 0 012.415 0v10.865h10.865a1.207 1.207 0 110 2.415z" fill="#4A36B5"/></g><defs><clipPath id="clip0"><path fill="#fff" d="M0 0h80v80H0z"/></clipPath></defs></svg>