<svg width="80" height="80" fill="none" xmlns="http://www.w3.org/2000/svg"><g clip-path="url(#clip0)"><path d="M79.983 74.326l-6.285-34.627a1.173 1.173 0 00-.584-.816l-15.82-8.798a1.17 1.17 0 00-.661-.142l2.878 37.126-.097.043 18.932 8.493a1.177 1.177 0 001.205-.146c.343-.268.51-.704.432-1.133zM40.001 38.496L23.822 30.07a1.171 1.171 0 00-.452-.127l-2.878 37.126 19.028 8.537c.154.068.318.103.481.103V38.496z" fill="#44C868"/><path d="M23.369 29.943a1.171 1.171 0 00-.662.142L6.888 38.883c-.307.171-.522.47-.584.816L.019 74.326a1.172 1.172 0 001.636 1.28l18.829-8.448 2.885-37.215zM56.631 29.942a1.17 1.17 0 00-.452.128L40 38.495v37.212c.163 0 .328-.034.48-.103l19.03-8.536-2.879-37.127z" fill="#4CE166"/><path d="M4.398 50.193L3.12 57.227l18.905-9.985.44-5.663.072-.939-18.14 9.553z" fill="#FFDB56"/><path d="M22.198 45.046l-.17 2.196-18.906 9.985L.02 74.326a1.173 1.173 0 001.636 1.28l18.829-8.447 1.714-22.113z" fill="#A8EEFC"/><path d="M40.004 43.138L22.54 40.64l-.512 6.602L40 74.535v-9.924L29.275 47.722l10.73 1.284v-5.87zM71.864 38.19l-7.6-4.226-7.194 1.681.09 1.162.356 4.583 14.348-3.2z" fill="#FFBB24"/><path d="M58.156 49.621l-.681-8.789-.403-5.187-17.068 7.492v5.87l11.15-4.849 7.002 5.463z" fill="#FFDB56"/><path d="M79.982 74.326l-1.579-8.698L57.52 41.39l.639 8.231 21.417 25.816c.325-.27.483-.693.407-1.111z" fill="#FFBB24"/><path d="M40.077 4.291c-9.056 0-16.425 7.362-16.425 16.412 0 5.598 2.658 11.608 7.9 17.863 3.85 4.594 7.647 7.549 7.807 7.672a1.173 1.173 0 001.437 0c.16-.123 3.958-3.078 7.807-7.672 5.242-6.255 7.9-12.265 7.9-17.863 0-9.05-7.369-16.412-16.426-16.412zm6.083 16.412a6.08 6.08 0 01-6.083 6.078 6.08 6.08 0 01-6.082-6.078 6.08 6.08 0 016.082-6.078 6.08 6.08 0 016.083 6.078z" fill="#FF4A4A"/><path d="M40.076 4.291c-.718 0-1.425.047-2.119.137 8.06 1.041 14.307 7.943 14.307 16.275 0 5.598-2.658 11.608-7.9 17.863a58.746 58.746 0 01-6.407 6.51c.821.712 1.343 1.118 1.4 1.162a1.173 1.173 0 001.437 0c.16-.123 3.958-3.078 7.808-7.672C53.843 32.31 56.5 26.3 56.5 20.703c0-9.05-7.369-16.412-16.425-16.412z" fill="#E7343F"/><path d="M40.48 75.606l7.077-3.175L40 64.611v11.097c.163 0 .327-.034.48-.102z" fill="#FFDB56"/><path d="M73.693 39.7a1.173 1.173 0 00-.584-.817l-1.245-.692-14.348 3.2 20.883 24.237-4.706-25.929zM39.998 75.709v-1.174L22.025 47.242l-1.537 19.827 19.029 8.537c.153.069.317.103.48.103z" fill="#1EA4E9"/></g><defs><clipPath id="clip0"><path fill="#fff" d="M0 0h80v80H0z"/></clipPath></defs></svg>