<svg width="96" height="68" viewBox="0 0 96 68" fill="none" xmlns="http://www.w3.org/2000/svg">
<path d="M94.5938 52.9517H90.1763V4.75299C90.1763 2.42687 88.2838 0.534241 85.9575 0.534241H77.2725C76.4959 0.534241 75.8662 1.16368 75.8662 1.94049C75.8662 2.7173 76.4959 3.34674 77.2725 3.34674H85.9575C86.7328 3.34674 87.3638 3.97749 87.3638 4.75299V52.9517H84.3506V7.76424C84.3506 6.98743 83.721 6.35799 82.9444 6.35799H13.0556C12.279 6.35799 11.6494 6.98743 11.6494 7.76424V30.898C11.6494 31.6748 12.279 32.3042 13.0556 32.3042C13.8322 32.3042 14.4619 31.6748 14.4619 30.898V9.17049H81.5381V52.9517H14.4619V37.0255C14.4619 36.2487 13.8322 35.6192 13.0556 35.6192C12.279 35.6192 11.6494 36.2487 11.6494 37.0255V52.9515H8.63625V4.75299C8.63625 3.97749 9.26719 3.34674 10.0425 3.34674H71.145C71.9216 3.34674 72.5513 2.7173 72.5513 1.94049C72.5513 1.16368 71.9216 0.534241 71.145 0.534241H10.0425C7.71619 0.534241 5.82375 2.42687 5.82375 4.75299V52.9517H1.40625C0.629625 52.9517 0 53.5812 0 54.358V60.3805C0 64.2576 3.15413 67.4117 7.03125 67.4117H44.9362C45.7129 67.4117 46.3425 66.7823 46.3425 66.0055C46.3425 65.2287 45.7129 64.5992 44.9362 64.5992H7.03125C4.70494 64.5992 2.8125 62.7066 2.8125 60.3805V55.7642H29.9452L35.3573 61.1762C35.6209 61.4399 35.9786 61.588 36.3516 61.588H59.6482C60.0212 61.588 60.3789 61.4399 60.6426 61.1762L66.0546 55.7642H93.1875V60.3805C93.1875 62.7066 91.2951 64.5992 88.9688 64.5992H51.0638C50.2871 64.5992 49.6575 65.2287 49.6575 66.0055C49.6575 66.7823 50.2871 67.4117 51.0638 67.4117H88.9688C92.8459 67.4117 96 64.2576 96 60.3805V54.358C96 53.5812 95.3704 52.9517 94.5938 52.9517ZM59.0659 58.7755H36.9341L33.9229 55.764H62.0771L59.0659 58.7755Z" fill="white"/>
<path d="M30.5273 44.2161C29.7507 44.2161 29.1211 44.8455 29.1211 45.6223C29.1211 46.3992 29.7507 47.0286 30.5273 47.0286H52.901C53.2745 47.0286 53.6495 46.8718 53.9092 46.6026L58.2522 42.1354L64.3912 48.276C66.0929 49.9778 68.8297 49.9778 70.5314 48.276C72.2227 46.5846 72.223 43.8308 70.5322 42.1371C70.532 42.1367 70.5316 42.1365 70.5314 42.1362L64.3049 35.9098L68.4697 31.6258C69.1885 30.3846 68.8525 29.5892 67.4615 29.2393H58.1418V19.4249C58.1418 18.648 57.5122 18.0186 56.7355 18.0186H52.3182V16.5119C52.3182 14.1308 50.381 12.1935 47.9999 12.1935C45.6188 12.1935 43.6816 14.1308 43.6816 16.5119V18.0186H39.2643C38.4877 18.0186 37.858 18.648 37.858 19.4249V33.973C37.858 34.7498 38.4877 35.3792 39.2643 35.3792H51.4947V38.3912H30.5273C29.7507 38.3912 29.1211 39.0207 29.1211 39.7975C29.1211 40.5743 29.7507 41.2037 30.5273 41.2037H51.4947V44.2159H30.5273V44.2161ZM64.133 32.0518L61.3218 34.9435C60.7857 35.4945 60.7919 36.3743 61.3357 36.918L68.5417 44.124C69.1235 44.7068 69.1377 45.6454 68.5842 46.2441C67.7686 46.8964 67.147 46.8945 66.3301 46.2373L59.2328 39.1382C58.5612 38.5842 57.8937 38.5888 57.23 39.1523L54.3072 42.1587V32.052H64.133V32.0518ZM46.4941 16.5119C46.4941 15.6814 47.1697 15.006 47.9999 15.006C48.8302 15.006 49.5057 15.6816 49.5057 16.5119V18.0186H46.4939V16.5119H46.4941ZM40.6705 32.5667V20.8311H43.6816V22.6277C43.6816 23.4045 44.3112 24.034 45.0878 24.034C45.8645 24.034 46.4941 23.4045 46.4941 22.6277V20.8311H49.5059V22.6277C49.5059 23.4045 50.1355 24.034 50.9122 24.034C51.6888 24.034 52.3184 23.4045 52.3184 22.6277V20.8311H55.3295V29.2393H52.9012C52.1245 29.2393 51.4949 29.8688 51.4949 30.6456V32.5667H40.6705Z" fill="white"/>
</svg>
