<svg width="178" height="59" fill="none" xmlns="http://www.w3.org/2000/svg"><rect width="178" height="59" rx="8" fill="#333"/><path d="M60.596 17.563c0 1.157-.315 2.043-.945 2.656-.626.61-1.53.916-2.709.916H55v-7.01h2.148c1.09 0 1.937.302 2.542.906.604.604.906 1.448.906 2.532zm-.863.029c0-.915-.23-1.603-.69-2.067-.458-.463-1.139-.695-2.043-.695h-1.185v5.6h.993c.972 0 1.702-.238 2.191-.714.49-.48.734-1.188.734-2.124zM66.58 18.503c0 .857-.216 1.526-.647 2.009-.432.48-1.028.72-1.789.72-.47 0-.887-.111-1.251-.332a2.183 2.183 0 01-.844-.95c-.199-.412-.298-.894-.298-1.447 0-.857.215-1.523.643-2 .428-.48 1.023-.719 1.784-.719.735 0 1.318.245 1.75.734.434.489.652 1.15.652 1.985zm-4.004 0c0 .671.134 1.183.403 1.534.268.352.663.528 1.184.528.521 0 .916-.175 1.185-.523.271-.352.407-.865.407-1.54 0-.667-.136-1.174-.407-1.52-.269-.348-.667-.522-1.194-.522-.521 0-.915.171-1.18.513-.265.342-.398.852-.398 1.53zM72.271 21.135l-.963-3.083c-.061-.189-.175-.617-.34-1.285h-.04c-.127.56-.239.991-.335 1.295l-.992 3.073h-.921l-1.434-5.255h.835l.772 3.016c.179.69.28 1.155.306 1.395h.039a12.703 12.703 0 01.374-1.395l.964-3.016h.863l.94 3.016c.178.55.3 1.012.364 1.386h.038c.013-.115.047-.293.101-.532.058-.24.392-1.53 1.002-3.87h.825l-1.453 5.255h-.945zM79.22 21.135v-3.4c0-.428-.098-.747-.293-.958-.195-.211-.5-.317-.916-.317-.55 0-.953.149-1.208.446-.256.297-.384.788-.384 1.472v2.757h-.796V15.88h.647l.13.72h.038a1.61 1.61 0 01.686-.6c.294-.144.622-.216.983-.216.633 0 1.109.153 1.429.46.32.304.48.791.48 1.463v3.428h-.797zM82.451 21.135h-.796v-7.46h.796v7.46zM88.675 18.503c0 .857-.216 1.526-.647 2.009-.432.48-1.028.72-1.789.72-.47 0-.887-.111-1.252-.332a2.183 2.183 0 01-.843-.95c-.199-.412-.298-.894-.298-1.447 0-.857.215-1.523.643-2 .428-.48 1.023-.719 1.783-.719.736 0 1.32.245 1.75.734.435.489.653 1.15.653 1.985zm-4.004 0c0 .671.134 1.183.403 1.534.268.352.663.528 1.184.528.521 0 .916-.175 1.184-.523.272-.352.408-.865.408-1.54 0-.667-.136-1.174-.407-1.52-.269-.348-.667-.522-1.194-.522-.521 0-.915.171-1.18.513-.265.342-.398.852-.398 1.53zM93.307 21.135l-.159-.748h-.038c-.262.33-.524.553-.786.671-.26.116-.584.173-.974.173-.52 0-.93-.134-1.227-.403-.294-.268-.441-.65-.441-1.146 0-1.06.848-1.617 2.546-1.668l.892-.03v-.325c0-.412-.09-.716-.269-.911-.176-.198-.459-.297-.849-.297-.438 0-.933.134-1.486.402l-.245-.609c.26-.14.542-.25.85-.33.31-.08.62-.12.93-.12.626 0 1.09.139 1.39.417.304.278.455.724.455 1.338v3.586h-.59zm-1.798-.56c.495 0 .883-.137 1.165-.408.284-.272.426-.652.426-1.142v-.474l-.795.033c-.633.023-1.09.122-1.372.298-.278.172-.417.442-.417.81 0 .288.086.507.259.657.176.15.42.225.734.225zM99.118 20.43h-.043c-.368.534-.918.801-1.65.801-.687 0-1.222-.235-1.606-.705-.38-.47-.57-1.138-.57-2.004 0-.866.191-1.54.575-2.019.384-.48.917-.719 1.602-.719.712 0 1.259.259 1.64.777h.062l-.034-.379-.02-.37v-2.138h.797v7.461h-.647l-.106-.705zm-1.592.135c.544 0 .937-.147 1.18-.442.246-.297.369-.775.369-1.433v-.168c0-.745-.125-1.275-.374-1.592-.246-.32-.641-.48-1.184-.48-.467 0-.825.183-1.075.547-.246.361-.369.873-.369 1.535 0 .67.123 1.177.37 1.52.246.342.607.513 1.083.513zM108.65 18.503c0 .857-.215 1.526-.647 2.009-.432.48-1.028.72-1.788.72-.47 0-.888-.111-1.252-.332a2.185 2.185 0 01-.844-.95c-.198-.412-.297-.894-.297-1.447 0-.857.214-1.523.642-2 .429-.48 1.023-.719 1.784-.719.735 0 1.319.245 1.75.734.435.489.652 1.15.652 1.985zm-4.003 0c0 .671.134 1.183.402 1.534.269.352.664.528 1.185.528s.916-.175 1.184-.523c.272-.352.408-.865.408-1.54 0-.667-.136-1.174-.408-1.52-.268-.348-.666-.522-1.194-.522-.521 0-.914.171-1.179.513-.266.342-.398.852-.398 1.53zM113.647 21.135v-3.4c0-.428-.098-.747-.293-.958-.195-.211-.5-.317-.916-.317-.549 0-.952.149-1.208.446-.256.297-.384.788-.384 1.472v2.757h-.796V15.88h.648l.129.72h.039c.163-.26.391-.46.685-.6.294-.144.622-.216.983-.216.633 0 1.109.153 1.429.46.32.304.48.791.48 1.463v3.428h-.796zM120.331 20.574c.14 0 .276-.01.407-.029.131-.022.235-.044.312-.067v.61a1.401 1.401 0 01-.384.1 2.656 2.656 0 01-.45.043c-1.017 0-1.525-.535-1.525-1.606v-3.127h-.753v-.383l.753-.33.336-1.123h.46v1.218h1.525v.618h-1.525v3.093c0 .317.075.56.225.73.15.168.357.253.619.253zM125.701 21.135v-3.4c0-.428-.097-.747-.292-.958-.195-.211-.501-.317-.916-.317-.553 0-.958.15-1.213.45-.253.301-.379.794-.379 1.478v2.747h-.796v-7.46h.796v2.258c0 .271-.013.497-.039.676h.048c.157-.253.379-.45.667-.595a2.17 2.17 0 01.992-.22c.643 0 1.124.153 1.444.46.323.304.484.788.484 1.453v3.428h-.796zM130.357 21.231c-.777 0-1.391-.237-1.841-.71-.448-.473-.672-1.13-.672-1.97 0-.847.208-1.52.624-2.019.418-.499.979-.748 1.683-.748.658 0 1.179.217 1.563.652.383.432.575 1.002.575 1.712v.503h-3.62c.016.617.171 1.086.465 1.405.297.32.715.48 1.252.48.565 0 1.125-.118 1.678-.355v.71a4.057 4.057 0 01-.801.259 4.32 4.32 0 01-.906.081zm-.216-4.78c-.422 0-.759.137-1.012.412-.249.275-.396.655-.441 1.141h2.748c0-.502-.112-.885-.336-1.15-.224-.27-.543-.403-.959-.403zM65.549 42.412l-1.4-3.893h-5.36l-1.372 3.893H55l5.246-14.078h2.493l5.246 14.078h-2.436zm-2.004-5.869l-1.314-3.817a28.923 28.923 0 01-.748-2.417 21.519 21.519 0 01-.758 2.58l-1.266 3.654h4.086zM74.976 42.604c-1.343 0-2.385-.483-3.126-1.448h-.135c.09.895.135 1.438.135 1.63v4.344h-2.254V31.806h1.822c.051.198.156.671.316 1.42h.116c.703-1.075 1.758-1.612 3.164-1.612 1.324 0 2.353.48 3.088 1.439.742.958 1.112 2.304 1.112 4.037 0 1.732-.377 3.084-1.131 4.056-.748.972-1.784 1.458-3.107 1.458zm-.547-9.149c-.895 0-1.55.262-1.966.787-.409.524-.613 1.361-.613 2.512v.336c0 1.291.204 2.228.613 2.81.41.575 1.078.863 2.005.863.78 0 1.38-.32 1.802-.96.422-.639.633-1.55.633-2.732 0-1.19-.21-2.088-.633-2.695-.415-.614-1.029-.92-1.84-.92zM87.212 42.604c-1.342 0-2.384-.483-3.126-1.448h-.134c.09.895.134 1.438.134 1.63v4.344h-2.254V31.806h1.823c.05.198.156.671.316 1.42h.115c.703-1.075 1.758-1.612 3.165-1.612 1.323 0 2.352.48 3.088 1.439.741.958 1.112 2.304 1.112 4.037 0 1.732-.377 3.084-1.132 4.056-.748.972-1.783 1.458-3.107 1.458zm-.546-9.149c-.895 0-1.55.262-1.966.787-.41.524-.614 1.361-.614 2.512v.336c0 1.291.205 2.228.614 2.81.409.575 1.077.863 2.004.863.78 0 1.381-.32 1.803-.96.422-.639.633-1.55.633-2.732 0-1.19-.211-2.088-.633-2.695-.416-.614-1.03-.92-1.841-.92zM107.495 38.605c0 1.247-.451 2.225-1.352 2.934-.902.71-2.145 1.065-3.731 1.065-1.585 0-2.883-.246-3.893-.739v-2.167c.639.3 1.317.537 2.033.71a8.689 8.689 0 002.014.259c.907 0 1.576-.173 2.004-.518.435-.345.652-.809.652-1.39 0-.525-.198-.97-.595-1.334-.396-.364-1.214-.795-2.455-1.294-1.278-.518-2.18-1.11-2.704-1.774-.524-.665-.786-1.464-.786-2.398 0-1.17.415-2.09 1.246-2.762.832-.67 1.947-1.007 3.347-1.007 1.343 0 2.679.294 4.009.883l-.729 1.87c-1.247-.524-2.359-.787-3.337-.787-.742 0-1.304.163-1.688.49-.384.32-.575.744-.575 1.275 0 .364.076.678.23.94.153.255.406.498.757.729.352.23.985.533 1.899.91 1.029.429 1.784.828 2.263 1.2.48.37.831.789 1.055 1.255.224.467.336 1.017.336 1.65zM113.92 40.782c.55 0 1.1-.086 1.649-.26v1.698a4.381 4.381 0 01-.968.269c-.39.077-.796.115-1.218.115-2.135 0-3.203-1.125-3.203-3.376v-5.715h-1.448v-.998l1.553-.824.768-2.244h1.39v2.359h3.021v1.707h-3.021v5.677c0 .543.134.946.403 1.208.275.256.633.384 1.074.384zM127.106 37.09c0 1.732-.444 3.084-1.333 4.056s-2.126 1.458-3.711 1.458c-.991 0-1.867-.224-2.628-.671-.761-.448-1.346-1.09-1.755-1.928-.409-.837-.614-1.81-.614-2.915 0-1.72.442-3.063 1.324-4.028.882-.965 2.126-1.448 3.73-1.448 1.535 0 2.749.495 3.644 1.486.895.985 1.343 2.315 1.343 3.99zm-7.72 0c0 2.448.905 3.673 2.714 3.673 1.79 0 2.685-1.225 2.685-3.673 0-2.423-.901-3.635-2.704-3.635-.946 0-1.634.314-2.062.94-.422.627-.633 1.525-.633 2.695zM135.085 31.614c.454 0 .828.032 1.122.096l-.221 2.1a4.256 4.256 0 00-.997-.115c-.902 0-1.634.294-2.196.882-.557.588-.835 1.352-.835 2.292v5.543h-2.253V31.806h1.764l.298 1.87h.115a4.209 4.209 0 011.371-1.506 3.295 3.295 0 011.832-.556zM142.814 42.604c-1.649 0-2.941-.48-3.874-1.439-.927-.965-1.391-2.291-1.391-3.98 0-1.732.432-3.094 1.295-4.085.863-.99 2.049-1.486 3.558-1.486 1.4 0 2.506.425 3.318 1.275.812.85 1.218 2.02 1.218 3.51v1.218h-7.068c.032 1.03.31 1.822.834 2.379.525.55 1.263.824 2.216.824.626 0 1.208-.057 1.745-.172a9.411 9.411 0 001.745-.595v1.832a6.928 6.928 0 01-1.668.556c-.563.109-1.206.163-1.928.163zm-.412-9.283c-.716 0-1.292.227-1.726.68-.429.455-.685 1.117-.768 1.986h4.814c-.012-.876-.223-1.538-.633-1.985-.409-.454-.971-.681-1.687-.681z" fill="#fff"/><path fill-rule="evenodd" clip-rule="evenodd" d="M33.699 11.473c.131 4.746-3.262 8.038-6.652 7.832-.559-3.788 3.39-7.832 6.652-7.832zM12.415 30.768c0 5.523 4.394 16.366 9.706 16.397h.035c1.32 0 2.484-.435 3.513-.819l.01-.003c.754-.283 1.467-.55 2.03-.55 1.112 0 1.785.286 2.566.618.77.328 1.645.7 2.881.7 5.054 0 8.534-9.363 8.534-9.8 0-.666-.508-.971-1-1.267l-.002-.001-.001-.001c-1.116-.672-3.435-2.067-3.435-5.692 0-3.062 2.049-4.608 3.172-5.456l.787-.594-.546-.82c-2.333-3.503-6.212-3.784-7.491-3.784h-.01c-1.714 0-3.186.585-4.368 1.056l-.024.01c-.548.216-1.162.46-1.425.46-.445 0-1.246-.295-2.02-.58-1.107-.408-2.362-.87-3.537-.87-2.608 0-9.375 1.976-9.375 10.996z" fill="#fff"/></svg>