<svg width="20" height="20" viewBox="0 0 20 20" fill="none" xmlns="http://www.w3.org/2000/svg">
<path fill-rule="evenodd" clip-rule="evenodd" d="M19.3491 19.3491C19.7659 18.9324 20 18.3671 20 17.7778V2.22222C20 1.63285 19.7659 1.06762 19.3491 0.650874C18.9324 0.234126 18.3671 0 17.7778 0H2.22222C1.63285 0 1.06762 0.234126 0.650874 0.650874C0.234126 1.06762 0 1.63285 0 2.22222V17.7778C0 18.3671 0.234126 18.9324 0.650874 19.3491C1.06762 19.7659 1.63285 20 2.22222 20H17.7778C18.3671 20 18.9324 19.7659 19.3491 19.3491ZM14.7065 6.70502L11.4159 9.99616L14.7073 13.2869C14.8001 13.3796 14.8737 13.4897 14.9239 13.6108C14.9741 13.732 15 13.8619 15 13.993C15 14.1242 14.9741 14.2541 14.9239 14.3752C14.8737 14.4964 14.8001 14.6065 14.7073 14.6992C14.512 14.8941 14.2567 14.9916 14.0011 14.9916C13.7454 14.9916 13.4898 14.8941 13.2949 14.6992L10.0043 11.408L6.70573 14.7076C6.5108 14.9025 6.25516 15 5.99952 15C5.8019 15.0003 5.60863 14.942 5.44421 14.8323C5.2798 14.7227 5.15164 14.5666 5.076 14.384C5.00035 14.2014 4.98062 14.0005 5.01931 13.8067C5.058 13.6128 5.15336 13.4349 5.29331 13.2953L8.59188 9.99616L5.3013 6.70502C5.20851 6.61233 5.13489 6.50226 5.08467 6.38109C5.03444 6.25993 5.00859 6.13005 5.00859 5.99889C5.00859 5.86772 5.03444 5.73784 5.08467 5.61668C5.13489 5.49552 5.20851 5.38544 5.3013 5.29276C5.39397 5.19995 5.50402 5.12632 5.62517 5.07609C5.74631 5.02586 5.87617 5 6.00731 5C6.13845 5 6.2683 5.02586 6.38945 5.07609C6.51059 5.12632 6.62064 5.19995 6.71332 5.29276L10.0039 8.5839L13.2945 5.29276C13.3871 5.19995 13.4972 5.12632 13.6183 5.07609C13.7395 5.02586 13.8693 5 14.0005 5C14.1316 5 14.2615 5.02586 14.3826 5.07609C14.5038 5.12632 14.6138 5.19995 14.7065 5.29276C14.7993 5.38544 14.8729 5.49552 14.9231 5.61668C14.9733 5.73784 14.9992 5.86772 14.9992 5.99889C14.9992 6.13005 14.9733 6.25993 14.9231 6.38109C14.8729 6.50226 14.7993 6.61233 14.7065 6.70502Z" fill="white"/>
</svg>
