<svg width="24" height="24" viewBox="0 0 24 24" fill="none" xmlns="http://www.w3.org/2000/svg">
<path d="M19 22H5C4.46957 22 3.96086 21.7893 3.58578 21.4142C3.21071 21.0391 3 20.5304 3 20L3.01001 6C3.01 5.4713 3.21934 4.9641 3.59225 4.58931C3.96517 4.21452 4.4713 4.00264 5 4H6V3C6 2.73478 6.10537 2.48043 6.29291 2.29289C6.48044 2.10536 6.73478 2 7 2C7.26522 2 7.51956 2.10536 7.70709 2.29289C7.89463 2.48043 8 2.73478 8 3V4H16V3C16 2.73478 16.1054 2.48043 16.2929 2.29289C16.4804 2.10536 16.7348 2 17 2C17.2652 2 17.5196 2.10536 17.7071 2.29289C17.8946 2.48043 18 2.73478 18 3V4H19C19.5304 4 20.0391 4.21071 20.4142 4.58578C20.7893 4.96086 21 5.46957 21 6V20C21 20.5304 20.7893 21.0391 20.4142 21.4142C20.0391 21.7893 19.5304 22 19 22ZM5 9V19C5 19.2652 5.10537 19.5196 5.29291 19.7071C5.48044 19.8946 5.73478 20 6 20H18C18.2652 20 18.5196 19.8946 18.7071 19.7071C18.8946 19.5196 19 19.2652 19 19V9H5ZM17 13H15V11H17V13ZM13 13H11V11H13V13ZM9 13H7V11H9V13Z" fill="#8B909A"/>
</svg>
