<svg width="15" height="19" viewBox="0 0 15 19" fill="none" xmlns="http://www.w3.org/2000/svg">
<path d="M11.7461 18.2578H3.74609C3.21566 18.2578 2.70695 18.0471 2.33188 17.672C1.95681 17.297 1.74609 16.7882 1.74609 16.2578V6.25781C1.74609 5.72738 1.95681 5.21867 2.33188 4.8436C2.70695 4.46852 3.21566 4.25781 3.74609 4.25781H11.7461C12.2765 4.25781 12.7852 4.46852 13.1603 4.8436C13.5354 5.21867 13.7461 5.72738 13.7461 6.25781V16.2578C13.7461 16.7882 13.5354 17.297 13.1603 17.672C12.7852 18.0471 12.2765 18.2578 11.7461 18.2578ZM4.74609 6.25781C4.48088 6.25781 4.22652 6.36317 4.03899 6.5507C3.85145 6.73824 3.74609 6.9926 3.74609 7.25781V15.2578C3.74609 15.523 3.85145 15.7774 4.03899 15.9649C4.22652 16.1524 4.48088 16.2578 4.74609 16.2578H10.7461C11.0113 16.2578 11.2657 16.1524 11.4532 15.9649C11.6407 15.7774 11.7461 15.523 11.7461 15.2578V7.25781C11.7461 6.9926 11.6407 6.73824 11.4532 6.5507C11.2657 6.36317 11.0113 6.25781 10.7461 6.25781H4.74609ZM13.7461 3.25781H1.74609C1.48088 3.25781 1.22652 3.15246 1.03899 2.96492C0.85145 2.77738 0.746094 2.52303 0.746094 2.25781C0.746094 1.9926 0.85145 1.73824 1.03899 1.5507C1.22652 1.36317 1.48088 1.25781 1.74609 1.25781H4.24609L4.9561 0.547806C5.14296 0.363963 5.39397 0.259978 5.6561 0.257812H9.8371C10.0992 0.260083 10.3502 0.364052 10.5371 0.547806L11.2471 1.25781H13.7461C14.0113 1.25781 14.2657 1.36317 14.4532 1.5507C14.6407 1.73824 14.7461 1.9926 14.7461 2.25781C14.7461 2.52303 14.6407 2.77738 14.4532 2.96492C14.2657 3.15246 14.0113 3.25781 13.7461 3.25781Z" fill="#232C3D"/>
</svg>
