<svg width="141" height="142" viewBox="0 0 141 142" fill="none" xmlns="http://www.w3.org/2000/svg">
<g opacity="0.1">
<circle cx="33.3088" cy="2.02251" r="2.02251" transform="rotate(90 33.3088 2.02251)" fill="#232C3D"/>
<circle cx="107" cy="2.02251" r="2.02251" transform="rotate(90 107 2.02251)" fill="#232C3D"/>
<circle cx="33.3088" cy="86.8311" r="2.02251" transform="rotate(90 33.3088 86.8311)" fill="#232C3D"/>
<circle cx="107" cy="86.8311" r="2.02251" transform="rotate(90 107 86.8311)" fill="#232C3D"/>
<circle cx="33.3088" cy="44.4263" r="2.02251" transform="rotate(90 33.3088 44.4263)" fill="#232C3D"/>
<circle cx="107" cy="44.4263" r="2.02251" transform="rotate(90 107 44.4263)" fill="#232C3D"/>
<circle cx="33.3088" cy="129.235" r="2.02251" transform="rotate(90 33.3088 129.235)" fill="#232C3D"/>
<circle cx="107" cy="129.235" r="2.02251" transform="rotate(90 107 129.235)" fill="#232C3D"/>
<circle cx="33.3088" cy="23.2244" r="2.02251" transform="rotate(90 33.3088 23.2244)" fill="#232C3D"/>
<circle cx="107" cy="23.2244" r="2.02251" transform="rotate(90 107 23.2244)" fill="#232C3D"/>
<circle cx="33.3088" cy="108.033" r="2.02251" transform="rotate(90 33.3088 108.033)" fill="#232C3D"/>
<circle cx="107" cy="108.033" r="2.02251" transform="rotate(90 107 108.033)" fill="#232C3D"/>
<circle cx="33.3088" cy="65.6292" r="2.02251" transform="rotate(90 33.3088 65.6292)" fill="#232C3D"/>
<circle cx="107" cy="65.6292" r="2.02251" transform="rotate(90 107 65.6292)" fill="#232C3D"/>
<circle cx="54.5123" cy="2.02251" r="2.02251" transform="rotate(90 54.5123 2.02251)" fill="#232C3D"/>
<circle cx="128.202" cy="2.02251" r="2.02251" transform="rotate(90 128.202 2.02251)" fill="#232C3D"/>
<circle cx="54.5123" cy="86.8311" r="2.02251" transform="rotate(90 54.5123 86.8311)" fill="#232C3D"/>
<circle cx="128.202" cy="86.8311" r="2.02251" transform="rotate(90 128.202 86.8311)" fill="#232C3D"/>
<circle cx="54.5123" cy="44.4263" r="2.02251" transform="rotate(90 54.5123 44.4263)" fill="#232C3D"/>
<circle cx="128.202" cy="44.4263" r="2.02251" transform="rotate(90 128.202 44.4263)" fill="#232C3D"/>
<circle cx="54.5123" cy="129.235" r="2.02251" transform="rotate(90 54.5123 129.235)" fill="#232C3D"/>
<circle cx="128.202" cy="129.235" r="2.02251" transform="rotate(90 128.202 129.235)" fill="#232C3D"/>
<circle cx="54.5123" cy="23.2244" r="2.02251" transform="rotate(90 54.5123 23.2244)" fill="#232C3D"/>
<circle cx="128.202" cy="23.2244" r="2.02251" transform="rotate(90 128.202 23.2244)" fill="#232C3D"/>
<circle cx="54.5123" cy="108.033" r="2.02251" transform="rotate(90 54.5123 108.033)" fill="#232C3D"/>
<circle cx="128.202" cy="108.033" r="2.02251" transform="rotate(90 128.202 108.033)" fill="#232C3D"/>
<circle cx="54.5123" cy="65.6292" r="2.02251" transform="rotate(90 54.5123 65.6292)" fill="#232C3D"/>
<circle cx="128.202" cy="65.6292" r="2.02251" transform="rotate(90 128.202 65.6292)" fill="#232C3D"/>
<circle cx="12.6237" cy="2.02251" r="2.02251" transform="rotate(90 12.6237 2.02251)" fill="#232C3D"/>
<circle cx="86.3145" cy="2.02251" r="2.02251" transform="rotate(90 86.3145 2.02251)" fill="#232C3D"/>
<circle cx="12.6237" cy="86.8311" r="2.02251" transform="rotate(90 12.6237 86.8311)" fill="#232C3D"/>
<circle cx="86.3145" cy="86.8311" r="2.02251" transform="rotate(90 86.3145 86.8311)" fill="#232C3D"/>
<circle cx="12.6237" cy="44.4263" r="2.02251" transform="rotate(90 12.6237 44.4263)" fill="#232C3D"/>
<circle cx="86.3145" cy="44.4263" r="2.02251" transform="rotate(90 86.3145 44.4263)" fill="#232C3D"/>
<circle cx="12.6237" cy="129.235" r="2.02251" transform="rotate(90 12.6237 129.235)" fill="#232C3D"/>
<circle cx="86.3145" cy="129.235" r="2.02251" transform="rotate(90 86.3145 129.235)" fill="#232C3D"/>
<circle cx="12.6237" cy="23.2244" r="2.02251" transform="rotate(90 12.6237 23.2244)" fill="#232C3D"/>
<circle cx="86.3145" cy="23.2244" r="2.02251" transform="rotate(90 86.3145 23.2244)" fill="#232C3D"/>
<circle cx="12.6237" cy="108.033" r="2.02251" transform="rotate(90 12.6237 108.033)" fill="#232C3D"/>
<circle cx="86.3145" cy="108.033" r="2.02251" transform="rotate(90 86.3145 108.033)" fill="#232C3D"/>
<circle cx="12.6237" cy="65.6292" r="2.02251" transform="rotate(90 12.6237 65.6292)" fill="#232C3D"/>
<circle cx="86.3145" cy="65.6292" r="2.02251" transform="rotate(90 86.3145 65.6292)" fill="#232C3D"/>
<circle cx="65.1123" cy="2.02251" r="2.02251" transform="rotate(90 65.1123 2.02251)" fill="#232C3D"/>
<circle cx="138.803" cy="2.02251" r="2.02251" transform="rotate(90 138.803 2.02251)" fill="#232C3D"/>
<circle cx="65.1123" cy="86.8311" r="2.02251" transform="rotate(90 65.1123 86.8311)" fill="#232C3D"/>
<circle cx="138.803" cy="86.8311" r="2.02251" transform="rotate(90 138.803 86.8311)" fill="#232C3D"/>
<circle cx="65.1123" cy="44.4263" r="2.02251" transform="rotate(90 65.1123 44.4263)" fill="#232C3D"/>
<circle cx="138.803" cy="44.4263" r="2.02251" transform="rotate(90 138.803 44.4263)" fill="#232C3D"/>
<circle cx="65.1123" cy="129.235" r="2.02251" transform="rotate(90 65.1123 129.235)" fill="#232C3D"/>
<circle cx="138.803" cy="129.235" r="2.02251" transform="rotate(90 138.803 129.235)" fill="#232C3D"/>
<circle cx="65.1123" cy="23.2244" r="2.02251" transform="rotate(90 65.1123 23.2244)" fill="#232C3D"/>
<circle cx="138.803" cy="23.2244" r="2.02251" transform="rotate(90 138.803 23.2244)" fill="#232C3D"/>
<circle cx="65.1123" cy="108.033" r="2.02251" transform="rotate(90 65.1123 108.033)" fill="#232C3D"/>
<circle cx="138.803" cy="108.033" r="2.02251" transform="rotate(90 138.803 108.033)" fill="#232C3D"/>
<circle cx="65.1123" cy="65.6292" r="2.02251" transform="rotate(90 65.1123 65.6292)" fill="#232C3D"/>
<circle cx="138.803" cy="65.6292" r="2.02251" transform="rotate(90 138.803 65.6292)" fill="#232C3D"/>
<circle cx="22.7088" cy="2.02251" r="2.02251" transform="rotate(90 22.7088 2.02251)" fill="#232C3D"/>
<circle cx="96.3985" cy="2.02251" r="2.02251" transform="rotate(90 96.3985 2.02251)" fill="#232C3D"/>
<circle cx="22.7088" cy="86.8311" r="2.02251" transform="rotate(90 22.7088 86.8311)" fill="#232C3D"/>
<circle cx="96.3985" cy="86.8311" r="2.02251" transform="rotate(90 96.3985 86.8311)" fill="#232C3D"/>
<circle cx="22.7088" cy="44.4263" r="2.02251" transform="rotate(90 22.7088 44.4263)" fill="#232C3D"/>
<circle cx="96.3985" cy="44.4263" r="2.02251" transform="rotate(90 96.3985 44.4263)" fill="#232C3D"/>
<circle cx="22.7088" cy="129.235" r="2.02251" transform="rotate(90 22.7088 129.235)" fill="#232C3D"/>
<circle cx="96.3985" cy="129.235" r="2.02251" transform="rotate(90 96.3985 129.235)" fill="#232C3D"/>
<circle cx="22.7088" cy="23.2244" r="2.02251" transform="rotate(90 22.7088 23.2244)" fill="#232C3D"/>
<circle cx="96.3985" cy="23.2244" r="2.02251" transform="rotate(90 96.3985 23.2244)" fill="#232C3D"/>
<circle cx="22.7088" cy="108.033" r="2.02251" transform="rotate(90 22.7088 108.033)" fill="#232C3D"/>
<circle cx="96.3985" cy="108.033" r="2.02251" transform="rotate(90 96.3985 108.033)" fill="#232C3D"/>
<circle cx="22.7088" cy="65.6292" r="2.02251" transform="rotate(90 22.7088 65.6292)" fill="#232C3D"/>
<circle cx="96.3985" cy="65.6292" r="2.02251" transform="rotate(90 96.3985 65.6292)" fill="#232C3D"/>
<circle cx="43.9111" cy="2.02251" r="2.02251" transform="rotate(90 43.9111 2.02251)" fill="#232C3D"/>
<circle cx="117.601" cy="2.02251" r="2.02251" transform="rotate(90 117.601 2.02251)" fill="#232C3D"/>
<circle cx="43.9111" cy="86.8311" r="2.02251" transform="rotate(90 43.9111 86.8311)" fill="#232C3D"/>
<circle cx="117.601" cy="86.8311" r="2.02251" transform="rotate(90 117.601 86.8311)" fill="#232C3D"/>
<circle cx="43.9111" cy="44.4263" r="2.02251" transform="rotate(90 43.9111 44.4263)" fill="#232C3D"/>
<circle cx="117.601" cy="44.4263" r="2.02251" transform="rotate(90 117.601 44.4263)" fill="#232C3D"/>
<circle cx="43.9111" cy="129.235" r="2.02251" transform="rotate(90 43.9111 129.235)" fill="#232C3D"/>
<circle cx="117.601" cy="129.235" r="2.02251" transform="rotate(90 117.601 129.235)" fill="#232C3D"/>
<circle cx="43.9111" cy="23.2244" r="2.02251" transform="rotate(90 43.9111 23.2244)" fill="#232C3D"/>
<circle cx="117.601" cy="23.2244" r="2.02251" transform="rotate(90 117.601 23.2244)" fill="#232C3D"/>
<circle cx="43.9111" cy="108.033" r="2.02251" transform="rotate(90 43.9111 108.033)" fill="#232C3D"/>
<circle cx="117.601" cy="108.033" r="2.02251" transform="rotate(90 117.601 108.033)" fill="#232C3D"/>
<circle cx="43.9111" cy="65.6292" r="2.02251" transform="rotate(90 43.9111 65.6292)" fill="#232C3D"/>
<circle cx="117.601" cy="65.6292" r="2.02251" transform="rotate(90 117.601 65.6292)" fill="#232C3D"/>
<circle cx="2.0225" cy="2.02251" r="2.02251" transform="rotate(90 2.0225 2.02251)" fill="#232C3D"/>
<circle cx="75.7134" cy="2.02251" r="2.02251" transform="rotate(90 75.7134 2.02251)" fill="#232C3D"/>
<circle cx="2.0225" cy="86.8311" r="2.02251" transform="rotate(90 2.0225 86.8311)" fill="#232C3D"/>
<circle cx="75.7134" cy="86.8311" r="2.02251" transform="rotate(90 75.7134 86.8311)" fill="#232C3D"/>
<circle cx="2.0225" cy="44.4263" r="2.02251" transform="rotate(90 2.0225 44.4263)" fill="#232C3D"/>
<circle cx="75.7134" cy="44.4263" r="2.02251" transform="rotate(90 75.7134 44.4263)" fill="#232C3D"/>
<circle cx="2.0225" cy="129.235" r="2.02251" transform="rotate(90 2.0225 129.235)" fill="#232C3D"/>
<circle cx="75.7134" cy="129.235" r="2.02251" transform="rotate(90 75.7134 129.235)" fill="#232C3D"/>
<circle cx="2.0225" cy="23.2244" r="2.02251" transform="rotate(90 2.0225 23.2244)" fill="#232C3D"/>
<circle cx="75.7134" cy="23.2244" r="2.02251" transform="rotate(90 75.7134 23.2244)" fill="#232C3D"/>
<circle cx="2.0225" cy="108.033" r="2.02251" transform="rotate(90 2.0225 108.033)" fill="#232C3D"/>
<circle cx="75.7134" cy="108.033" r="2.02251" transform="rotate(90 75.7134 108.033)" fill="#232C3D"/>
<circle cx="2.0225" cy="65.6292" r="2.02251" transform="rotate(90 2.0225 65.6292)" fill="#232C3D"/>
<circle cx="75.7134" cy="65.6292" r="2.02251" transform="rotate(90 75.7134 65.6292)" fill="#232C3D"/>
<circle cx="33.3088" cy="12.6237" r="2.02251" transform="rotate(90 33.3088 12.6237)" fill="#232C3D"/>
<circle cx="107" cy="12.6237" r="2.02251" transform="rotate(90 107 12.6237)" fill="#232C3D"/>
<circle cx="33.3088" cy="97.4322" r="2.02251" transform="rotate(90 33.3088 97.4322)" fill="#232C3D"/>
<circle cx="107" cy="97.4322" r="2.02251" transform="rotate(90 107 97.4322)" fill="#232C3D"/>
<circle cx="33.3088" cy="55.027" r="2.02251" transform="rotate(90 33.3088 55.027)" fill="#232C3D"/>
<circle cx="107" cy="55.027" r="2.02251" transform="rotate(90 107 55.027)" fill="#232C3D"/>
<circle cx="33.3088" cy="139.836" r="2.02251" transform="rotate(90 33.3088 139.836)" fill="#232C3D"/>
<circle cx="107" cy="139.836" r="2.02251" transform="rotate(90 107 139.836)" fill="#232C3D"/>
<circle cx="33.3088" cy="33.8256" r="2.02251" transform="rotate(90 33.3088 33.8256)" fill="#232C3D"/>
<circle cx="107" cy="33.8256" r="2.02251" transform="rotate(90 107 33.8256)" fill="#232C3D"/>
<circle cx="33.3088" cy="118.634" r="2.02251" transform="rotate(90 33.3088 118.634)" fill="#232C3D"/>
<circle cx="107" cy="118.634" r="2.02251" transform="rotate(90 107 118.634)" fill="#232C3D"/>
<circle cx="33.3088" cy="76.2294" r="2.02251" transform="rotate(90 33.3088 76.2294)" fill="#232C3D"/>
<circle cx="107" cy="76.2294" r="2.02251" transform="rotate(90 107 76.2294)" fill="#232C3D"/>
<circle cx="54.5123" cy="12.6237" r="2.02251" transform="rotate(90 54.5123 12.6237)" fill="#232C3D"/>
<circle cx="128.202" cy="12.6237" r="2.02251" transform="rotate(90 128.202 12.6237)" fill="#232C3D"/>
<circle cx="54.5123" cy="97.4322" r="2.02251" transform="rotate(90 54.5123 97.4322)" fill="#232C3D"/>
<circle cx="128.202" cy="97.4322" r="2.02251" transform="rotate(90 128.202 97.4322)" fill="#232C3D"/>
<circle cx="54.5123" cy="55.027" r="2.02251" transform="rotate(90 54.5123 55.027)" fill="#232C3D"/>
<circle cx="128.202" cy="55.027" r="2.02251" transform="rotate(90 128.202 55.027)" fill="#232C3D"/>
<circle cx="54.5123" cy="139.836" r="2.02251" transform="rotate(90 54.5123 139.836)" fill="#232C3D"/>
<circle cx="128.202" cy="139.836" r="2.02251" transform="rotate(90 128.202 139.836)" fill="#232C3D"/>
<circle cx="54.5123" cy="33.8256" r="2.02251" transform="rotate(90 54.5123 33.8256)" fill="#232C3D"/>
<circle cx="128.202" cy="33.8256" r="2.02251" transform="rotate(90 128.202 33.8256)" fill="#232C3D"/>
<circle cx="54.5123" cy="118.634" r="2.02251" transform="rotate(90 54.5123 118.634)" fill="#232C3D"/>
<circle cx="128.202" cy="118.634" r="2.02251" transform="rotate(90 128.202 118.634)" fill="#232C3D"/>
<circle cx="54.5123" cy="76.2294" r="2.02251" transform="rotate(90 54.5123 76.2294)" fill="#232C3D"/>
<circle cx="128.202" cy="76.2294" r="2.02251" transform="rotate(90 128.202 76.2294)" fill="#232C3D"/>
<circle cx="12.6237" cy="12.6237" r="2.02251" transform="rotate(90 12.6237 12.6237)" fill="#232C3D"/>
<circle cx="86.3145" cy="12.6237" r="2.02251" transform="rotate(90 86.3145 12.6237)" fill="#232C3D"/>
<circle cx="12.6237" cy="97.4322" r="2.02251" transform="rotate(90 12.6237 97.4322)" fill="#232C3D"/>
<circle cx="86.3145" cy="97.4322" r="2.02251" transform="rotate(90 86.3145 97.4322)" fill="#232C3D"/>
<circle cx="12.6237" cy="55.027" r="2.02251" transform="rotate(90 12.6237 55.027)" fill="#232C3D"/>
<circle cx="86.3145" cy="55.027" r="2.02251" transform="rotate(90 86.3145 55.027)" fill="#232C3D"/>
<circle cx="12.6237" cy="139.836" r="2.02251" transform="rotate(90 12.6237 139.836)" fill="#232C3D"/>
<circle cx="86.3145" cy="139.836" r="2.02251" transform="rotate(90 86.3145 139.836)" fill="#232C3D"/>
<circle cx="12.6237" cy="33.8256" r="2.02251" transform="rotate(90 12.6237 33.8256)" fill="#232C3D"/>
<circle cx="86.3145" cy="33.8256" r="2.02251" transform="rotate(90 86.3145 33.8256)" fill="#232C3D"/>
<circle cx="12.6237" cy="118.634" r="2.02251" transform="rotate(90 12.6237 118.634)" fill="#232C3D"/>
<circle cx="86.3145" cy="118.634" r="2.02251" transform="rotate(90 86.3145 118.634)" fill="#232C3D"/>
<circle cx="12.6237" cy="76.2294" r="2.02251" transform="rotate(90 12.6237 76.2294)" fill="#232C3D"/>
<circle cx="86.3145" cy="76.2294" r="2.02251" transform="rotate(90 86.3145 76.2294)" fill="#232C3D"/>
<circle cx="65.1123" cy="12.6237" r="2.02251" transform="rotate(90 65.1123 12.6237)" fill="#232C3D"/>
<circle cx="138.803" cy="12.6237" r="2.02251" transform="rotate(90 138.803 12.6237)" fill="#232C3D"/>
<circle cx="65.1123" cy="97.4322" r="2.02251" transform="rotate(90 65.1123 97.4322)" fill="#232C3D"/>
<circle cx="138.803" cy="97.4322" r="2.02251" transform="rotate(90 138.803 97.4322)" fill="#232C3D"/>
<circle cx="65.1123" cy="55.027" r="2.02251" transform="rotate(90 65.1123 55.027)" fill="#232C3D"/>
<circle cx="138.803" cy="55.027" r="2.02251" transform="rotate(90 138.803 55.027)" fill="#232C3D"/>
<circle cx="65.1123" cy="139.836" r="2.02251" transform="rotate(90 65.1123 139.836)" fill="#232C3D"/>
<circle cx="138.803" cy="139.836" r="2.02251" transform="rotate(90 138.803 139.836)" fill="#232C3D"/>
<circle cx="65.1123" cy="33.8256" r="2.02251" transform="rotate(90 65.1123 33.8256)" fill="#232C3D"/>
<circle cx="138.803" cy="33.8256" r="2.02251" transform="rotate(90 138.803 33.8256)" fill="#232C3D"/>
<circle cx="65.1123" cy="118.634" r="2.02251" transform="rotate(90 65.1123 118.634)" fill="#232C3D"/>
<circle cx="138.803" cy="118.634" r="2.02251" transform="rotate(90 138.803 118.634)" fill="#232C3D"/>
<circle cx="65.1123" cy="76.2294" r="2.02251" transform="rotate(90 65.1123 76.2294)" fill="#232C3D"/>
<circle cx="138.803" cy="76.2294" r="2.02251" transform="rotate(90 138.803 76.2294)" fill="#232C3D"/>
<circle cx="22.7088" cy="12.6237" r="2.02251" transform="rotate(90 22.7088 12.6237)" fill="#232C3D"/>
<circle cx="96.3985" cy="12.6237" r="2.02251" transform="rotate(90 96.3985 12.6237)" fill="#232C3D"/>
<circle cx="22.7088" cy="97.4322" r="2.02251" transform="rotate(90 22.7088 97.4322)" fill="#232C3D"/>
<circle cx="96.3985" cy="97.4322" r="2.02251" transform="rotate(90 96.3985 97.4322)" fill="#232C3D"/>
<circle cx="22.7088" cy="55.027" r="2.02251" transform="rotate(90 22.7088 55.027)" fill="#232C3D"/>
<circle cx="96.3985" cy="55.027" r="2.02251" transform="rotate(90 96.3985 55.027)" fill="#232C3D"/>
<circle cx="22.7088" cy="139.836" r="2.02251" transform="rotate(90 22.7088 139.836)" fill="#232C3D"/>
<circle cx="96.3985" cy="139.836" r="2.02251" transform="rotate(90 96.3985 139.836)" fill="#232C3D"/>
<circle cx="22.7088" cy="33.8256" r="2.02251" transform="rotate(90 22.7088 33.8256)" fill="#232C3D"/>
<circle cx="96.3985" cy="33.8256" r="2.02251" transform="rotate(90 96.3985 33.8256)" fill="#232C3D"/>
<circle cx="22.7088" cy="118.634" r="2.02251" transform="rotate(90 22.7088 118.634)" fill="#232C3D"/>
<circle cx="96.3985" cy="118.634" r="2.02251" transform="rotate(90 96.3985 118.634)" fill="#232C3D"/>
<circle cx="22.7088" cy="76.2294" r="2.02251" transform="rotate(90 22.7088 76.2294)" fill="#232C3D"/>
<circle cx="96.3985" cy="76.2294" r="2.02251" transform="rotate(90 96.3985 76.2294)" fill="#232C3D"/>
<circle cx="43.9111" cy="12.6237" r="2.02251" transform="rotate(90 43.9111 12.6237)" fill="#232C3D"/>
<circle cx="117.601" cy="12.6237" r="2.02251" transform="rotate(90 117.601 12.6237)" fill="#232C3D"/>
<circle cx="43.9111" cy="97.4322" r="2.02251" transform="rotate(90 43.9111 97.4322)" fill="#232C3D"/>
<circle cx="117.601" cy="97.4322" r="2.02251" transform="rotate(90 117.601 97.4322)" fill="#232C3D"/>
<circle cx="43.9111" cy="55.027" r="2.02251" transform="rotate(90 43.9111 55.027)" fill="#232C3D"/>
<circle cx="117.601" cy="55.027" r="2.02251" transform="rotate(90 117.601 55.027)" fill="#232C3D"/>
<circle cx="43.9111" cy="139.836" r="2.02251" transform="rotate(90 43.9111 139.836)" fill="#232C3D"/>
<circle cx="117.601" cy="139.836" r="2.02251" transform="rotate(90 117.601 139.836)" fill="#232C3D"/>
<circle cx="43.9111" cy="33.8256" r="2.02251" transform="rotate(90 43.9111 33.8256)" fill="#232C3D"/>
<circle cx="117.601" cy="33.8256" r="2.02251" transform="rotate(90 117.601 33.8256)" fill="#232C3D"/>
<circle cx="43.9111" cy="118.634" r="2.02251" transform="rotate(90 43.9111 118.634)" fill="#232C3D"/>
<circle cx="117.601" cy="118.634" r="2.02251" transform="rotate(90 117.601 118.634)" fill="#232C3D"/>
<circle cx="43.9111" cy="76.2294" r="2.02251" transform="rotate(90 43.9111 76.2294)" fill="#232C3D"/>
<circle cx="117.601" cy="76.2294" r="2.02251" transform="rotate(90 117.601 76.2294)" fill="#232C3D"/>
<circle cx="2.0225" cy="12.6237" r="2.02251" transform="rotate(90 2.0225 12.6237)" fill="#232C3D"/>
<circle cx="75.7134" cy="12.6237" r="2.02251" transform="rotate(90 75.7134 12.6237)" fill="#232C3D"/>
<circle cx="2.0225" cy="97.4322" r="2.02251" transform="rotate(90 2.0225 97.4322)" fill="#232C3D"/>
<circle cx="75.7134" cy="97.4322" r="2.02251" transform="rotate(90 75.7134 97.4322)" fill="#232C3D"/>
<circle cx="2.0225" cy="55.027" r="2.02251" transform="rotate(90 2.0225 55.027)" fill="#232C3D"/>
<circle cx="75.7134" cy="55.027" r="2.02251" transform="rotate(90 75.7134 55.027)" fill="#232C3D"/>
<circle cx="2.0225" cy="139.836" r="2.02251" transform="rotate(90 2.0225 139.836)" fill="#232C3D"/>
<circle cx="75.7134" cy="139.836" r="2.02251" transform="rotate(90 75.7134 139.836)" fill="#232C3D"/>
<circle cx="2.0225" cy="33.8256" r="2.02251" transform="rotate(90 2.0225 33.8256)" fill="#232C3D"/>
<circle cx="75.7134" cy="33.8256" r="2.02251" transform="rotate(90 75.7134 33.8256)" fill="#232C3D"/>
<circle cx="2.0225" cy="118.634" r="2.02251" transform="rotate(90 2.0225 118.634)" fill="#232C3D"/>
<circle cx="75.7134" cy="118.634" r="2.02251" transform="rotate(90 75.7134 118.634)" fill="#232C3D"/>
<circle cx="2.0225" cy="76.2294" r="2.02251" transform="rotate(90 2.0225 76.2294)" fill="#232C3D"/>
<circle cx="75.7134" cy="76.2294" r="2.02251" transform="rotate(90 75.7134 76.2294)" fill="#232C3D"/>
</g>
</svg>
