<svg width="185" height="187" viewBox="0 0 185 187" fill="none" xmlns="http://www.w3.org/2000/svg">
<g opacity="0.1">
<circle cx="43.7569" cy="2.65694" r="2.65694" transform="rotate(90 43.7569 2.65694)" fill="#EA4335"/>
<circle cx="140.564" cy="2.65694" r="2.65694" transform="rotate(90 140.564 2.65694)" fill="#EA4335"/>
<circle cx="43.7569" cy="114.068" r="2.65694" transform="rotate(90 43.7569 114.068)" fill="#EA4335"/>
<circle cx="140.564" cy="114.068" r="2.65694" transform="rotate(90 140.564 114.068)" fill="#EA4335"/>
<circle cx="43.7569" cy="58.362" r="2.65694" transform="rotate(90 43.7569 58.362)" fill="#EA4335"/>
<circle cx="140.564" cy="58.362" r="2.65694" transform="rotate(90 140.564 58.362)" fill="#EA4335"/>
<circle cx="43.7569" cy="169.774" r="2.65694" transform="rotate(90 43.7569 169.774)" fill="#EA4335"/>
<circle cx="140.564" cy="169.774" r="2.65694" transform="rotate(90 140.564 169.774)" fill="#EA4335"/>
<circle cx="43.7569" cy="30.5095" r="2.65694" transform="rotate(90 43.7569 30.5095)" fill="#EA4335"/>
<circle cx="140.564" cy="30.5095" r="2.65694" transform="rotate(90 140.564 30.5095)" fill="#EA4335"/>
<circle cx="43.7569" cy="141.921" r="2.65694" transform="rotate(90 43.7569 141.921)" fill="#EA4335"/>
<circle cx="140.564" cy="141.921" r="2.65694" transform="rotate(90 140.564 141.921)" fill="#EA4335"/>
<circle cx="43.7569" cy="86.2158" r="2.65694" transform="rotate(90 43.7569 86.2158)" fill="#EA4335"/>
<circle cx="140.564" cy="86.2158" r="2.65694" transform="rotate(90 140.564 86.2158)" fill="#EA4335"/>
<circle cx="71.6124" cy="2.65694" r="2.65694" transform="rotate(90 71.6124 2.65694)" fill="#EA4335"/>
<circle cx="168.417" cy="2.65694" r="2.65694" transform="rotate(90 168.417 2.65694)" fill="#EA4335"/>
<circle cx="71.6124" cy="114.068" r="2.65694" transform="rotate(90 71.6124 114.068)" fill="#EA4335"/>
<circle cx="168.417" cy="114.068" r="2.65694" transform="rotate(90 168.417 114.068)" fill="#EA4335"/>
<circle cx="71.6124" cy="58.362" r="2.65694" transform="rotate(90 71.6124 58.362)" fill="#EA4335"/>
<circle cx="168.417" cy="58.362" r="2.65694" transform="rotate(90 168.417 58.362)" fill="#EA4335"/>
<circle cx="71.6124" cy="169.774" r="2.65694" transform="rotate(90 71.6124 169.774)" fill="#EA4335"/>
<circle cx="168.417" cy="169.774" r="2.65694" transform="rotate(90 168.417 169.774)" fill="#EA4335"/>
<circle cx="71.6124" cy="30.5095" r="2.65694" transform="rotate(90 71.6124 30.5095)" fill="#EA4335"/>
<circle cx="168.417" cy="30.5095" r="2.65694" transform="rotate(90 168.417 30.5095)" fill="#EA4335"/>
<circle cx="71.6124" cy="141.921" r="2.65694" transform="rotate(90 71.6124 141.921)" fill="#EA4335"/>
<circle cx="168.417" cy="141.921" r="2.65694" transform="rotate(90 168.417 141.921)" fill="#EA4335"/>
<circle cx="71.6124" cy="86.2158" r="2.65694" transform="rotate(90 71.6124 86.2158)" fill="#EA4335"/>
<circle cx="168.417" cy="86.2158" r="2.65694" transform="rotate(90 168.417 86.2158)" fill="#EA4335"/>
<circle cx="16.584" cy="2.65694" r="2.65694" transform="rotate(90 16.584 2.65694)" fill="#EA4335"/>
<circle cx="113.39" cy="2.65694" r="2.65694" transform="rotate(90 113.39 2.65694)" fill="#EA4335"/>
<circle cx="16.584" cy="114.068" r="2.65694" transform="rotate(90 16.584 114.068)" fill="#EA4335"/>
<circle cx="113.39" cy="114.068" r="2.65694" transform="rotate(90 113.39 114.068)" fill="#EA4335"/>
<circle cx="16.584" cy="58.362" r="2.65694" transform="rotate(90 16.584 58.362)" fill="#EA4335"/>
<circle cx="113.39" cy="58.362" r="2.65694" transform="rotate(90 113.39 58.362)" fill="#EA4335"/>
<circle cx="16.584" cy="169.774" r="2.65694" transform="rotate(90 16.584 169.774)" fill="#EA4335"/>
<circle cx="113.39" cy="169.774" r="2.65694" transform="rotate(90 113.39 169.774)" fill="#EA4335"/>
<circle cx="16.584" cy="30.5095" r="2.65694" transform="rotate(90 16.584 30.5095)" fill="#EA4335"/>
<circle cx="113.39" cy="30.5095" r="2.65694" transform="rotate(90 113.39 30.5095)" fill="#EA4335"/>
<circle cx="16.584" cy="141.921" r="2.65694" transform="rotate(90 16.584 141.921)" fill="#EA4335"/>
<circle cx="113.39" cy="141.921" r="2.65694" transform="rotate(90 113.39 141.921)" fill="#EA4335"/>
<circle cx="16.584" cy="86.2158" r="2.65694" transform="rotate(90 16.584 86.2158)" fill="#EA4335"/>
<circle cx="113.39" cy="86.2158" r="2.65694" transform="rotate(90 113.39 86.2158)" fill="#EA4335"/>
<circle cx="85.5369" cy="2.65694" r="2.65694" transform="rotate(90 85.5369 2.65694)" fill="#EA4335"/>
<circle cx="182.343" cy="2.65694" r="2.65694" transform="rotate(90 182.343 2.65694)" fill="#EA4335"/>
<circle cx="85.5369" cy="114.068" r="2.65694" transform="rotate(90 85.5369 114.068)" fill="#EA4335"/>
<circle cx="182.343" cy="114.068" r="2.65694" transform="rotate(90 182.343 114.068)" fill="#EA4335"/>
<circle cx="85.5369" cy="58.362" r="2.65694" transform="rotate(90 85.5369 58.362)" fill="#EA4335"/>
<circle cx="182.343" cy="58.362" r="2.65694" transform="rotate(90 182.343 58.362)" fill="#EA4335"/>
<circle cx="85.5369" cy="169.774" r="2.65694" transform="rotate(90 85.5369 169.774)" fill="#EA4335"/>
<circle cx="182.343" cy="169.774" r="2.65694" transform="rotate(90 182.343 169.774)" fill="#EA4335"/>
<circle cx="85.5369" cy="30.5095" r="2.65694" transform="rotate(90 85.5369 30.5095)" fill="#EA4335"/>
<circle cx="182.343" cy="30.5095" r="2.65694" transform="rotate(90 182.343 30.5095)" fill="#EA4335"/>
<circle cx="85.5369" cy="141.921" r="2.65694" transform="rotate(90 85.5369 141.921)" fill="#EA4335"/>
<circle cx="182.343" cy="141.921" r="2.65694" transform="rotate(90 182.343 141.921)" fill="#EA4335"/>
<circle cx="85.5369" cy="86.2158" r="2.65694" transform="rotate(90 85.5369 86.2158)" fill="#EA4335"/>
<circle cx="182.343" cy="86.2158" r="2.65694" transform="rotate(90 182.343 86.2158)" fill="#EA4335"/>
<circle cx="29.8324" cy="2.65694" r="2.65694" transform="rotate(90 29.8324 2.65694)" fill="#EA4335"/>
<circle cx="126.637" cy="2.65694" r="2.65694" transform="rotate(90 126.637 2.65694)" fill="#EA4335"/>
<circle cx="29.8324" cy="114.068" r="2.65694" transform="rotate(90 29.8324 114.068)" fill="#EA4335"/>
<circle cx="126.637" cy="114.068" r="2.65694" transform="rotate(90 126.637 114.068)" fill="#EA4335"/>
<circle cx="29.8324" cy="58.362" r="2.65694" transform="rotate(90 29.8324 58.362)" fill="#EA4335"/>
<circle cx="126.637" cy="58.362" r="2.65694" transform="rotate(90 126.637 58.362)" fill="#EA4335"/>
<circle cx="29.8324" cy="169.774" r="2.65694" transform="rotate(90 29.8324 169.774)" fill="#EA4335"/>
<circle cx="126.637" cy="169.774" r="2.65694" transform="rotate(90 126.637 169.774)" fill="#EA4335"/>
<circle cx="29.8324" cy="30.5095" r="2.65694" transform="rotate(90 29.8324 30.5095)" fill="#EA4335"/>
<circle cx="126.637" cy="30.5095" r="2.65694" transform="rotate(90 126.637 30.5095)" fill="#EA4335"/>
<circle cx="29.8324" cy="141.921" r="2.65694" transform="rotate(90 29.8324 141.921)" fill="#EA4335"/>
<circle cx="126.637" cy="141.921" r="2.65694" transform="rotate(90 126.637 141.921)" fill="#EA4335"/>
<circle cx="29.8324" cy="86.2158" r="2.65694" transform="rotate(90 29.8324 86.2158)" fill="#EA4335"/>
<circle cx="126.637" cy="86.2158" r="2.65694" transform="rotate(90 126.637 86.2158)" fill="#EA4335"/>
<circle cx="57.6853" cy="2.65694" r="2.65694" transform="rotate(90 57.6853 2.65694)" fill="#EA4335"/>
<circle cx="154.49" cy="2.65694" r="2.65694" transform="rotate(90 154.49 2.65694)" fill="#EA4335"/>
<circle cx="57.6853" cy="114.068" r="2.65694" transform="rotate(90 57.6853 114.068)" fill="#EA4335"/>
<circle cx="154.49" cy="114.068" r="2.65694" transform="rotate(90 154.49 114.068)" fill="#EA4335"/>
<circle cx="57.6853" cy="58.362" r="2.65694" transform="rotate(90 57.6853 58.362)" fill="#EA4335"/>
<circle cx="154.49" cy="58.362" r="2.65694" transform="rotate(90 154.49 58.362)" fill="#EA4335"/>
<circle cx="57.6853" cy="169.774" r="2.65694" transform="rotate(90 57.6853 169.774)" fill="#EA4335"/>
<circle cx="154.49" cy="169.774" r="2.65694" transform="rotate(90 154.49 169.774)" fill="#EA4335"/>
<circle cx="57.6853" cy="30.5095" r="2.65694" transform="rotate(90 57.6853 30.5095)" fill="#EA4335"/>
<circle cx="154.49" cy="30.5095" r="2.65694" transform="rotate(90 154.49 30.5095)" fill="#EA4335"/>
<circle cx="57.6853" cy="141.921" r="2.65694" transform="rotate(90 57.6853 141.921)" fill="#EA4335"/>
<circle cx="154.49" cy="141.921" r="2.65694" transform="rotate(90 154.49 141.921)" fill="#EA4335"/>
<circle cx="57.6853" cy="86.2158" r="2.65694" transform="rotate(90 57.6853 86.2158)" fill="#EA4335"/>
<circle cx="154.49" cy="86.2158" r="2.65694" transform="rotate(90 154.49 86.2158)" fill="#EA4335"/>
<circle cx="2.65694" cy="2.65694" r="2.65694" transform="rotate(90 2.65694 2.65694)" fill="#EA4335"/>
<circle cx="99.464" cy="2.65694" r="2.65694" transform="rotate(90 99.464 2.65694)" fill="#EA4335"/>
<circle cx="2.65694" cy="114.068" r="2.65694" transform="rotate(90 2.65694 114.068)" fill="#EA4335"/>
<circle cx="99.464" cy="114.068" r="2.65694" transform="rotate(90 99.464 114.068)" fill="#EA4335"/>
<circle cx="2.65694" cy="58.362" r="2.65694" transform="rotate(90 2.65694 58.362)" fill="#EA4335"/>
<circle cx="99.464" cy="58.362" r="2.65694" transform="rotate(90 99.464 58.362)" fill="#EA4335"/>
<circle cx="2.65694" cy="169.774" r="2.65694" transform="rotate(90 2.65694 169.774)" fill="#EA4335"/>
<circle cx="99.464" cy="169.774" r="2.65694" transform="rotate(90 99.464 169.774)" fill="#EA4335"/>
<circle cx="2.65694" cy="30.5095" r="2.65694" transform="rotate(90 2.65694 30.5095)" fill="#EA4335"/>
<circle cx="99.464" cy="30.5095" r="2.65694" transform="rotate(90 99.464 30.5095)" fill="#EA4335"/>
<circle cx="2.65694" cy="141.921" r="2.65694" transform="rotate(90 2.65694 141.921)" fill="#EA4335"/>
<circle cx="99.464" cy="141.921" r="2.65694" transform="rotate(90 99.464 141.921)" fill="#EA4335"/>
<circle cx="2.65694" cy="86.2158" r="2.65694" transform="rotate(90 2.65694 86.2158)" fill="#EA4335"/>
<circle cx="99.464" cy="86.2158" r="2.65694" transform="rotate(90 99.464 86.2158)" fill="#EA4335"/>
<circle cx="43.7569" cy="16.5834" r="2.65694" transform="rotate(90 43.7569 16.5834)" fill="#EA4335"/>
<circle cx="140.564" cy="16.5834" r="2.65694" transform="rotate(90 140.564 16.5834)" fill="#EA4335"/>
<circle cx="43.7569" cy="127.995" r="2.65694" transform="rotate(90 43.7569 127.995)" fill="#EA4335"/>
<circle cx="140.564" cy="127.995" r="2.65694" transform="rotate(90 140.564 127.995)" fill="#EA4335"/>
<circle cx="43.7569" cy="72.2882" r="2.65694" transform="rotate(90 43.7569 72.2882)" fill="#EA4335"/>
<circle cx="140.564" cy="72.2882" r="2.65694" transform="rotate(90 140.564 72.2882)" fill="#EA4335"/>
<circle cx="43.7569" cy="183.699" r="2.65694" transform="rotate(90 43.7569 183.699)" fill="#EA4335"/>
<circle cx="140.564" cy="183.699" r="2.65694" transform="rotate(90 140.564 183.699)" fill="#EA4335"/>
<circle cx="43.7569" cy="44.4359" r="2.65694" transform="rotate(90 43.7569 44.4359)" fill="#EA4335"/>
<circle cx="140.564" cy="44.4359" r="2.65694" transform="rotate(90 140.564 44.4359)" fill="#EA4335"/>
<circle cx="43.7569" cy="155.847" r="2.65694" transform="rotate(90 43.7569 155.847)" fill="#EA4335"/>
<circle cx="140.564" cy="155.847" r="2.65694" transform="rotate(90 140.564 155.847)" fill="#EA4335"/>
<circle cx="43.7569" cy="100.141" r="2.65694" transform="rotate(90 43.7569 100.141)" fill="#EA4335"/>
<circle cx="140.564" cy="100.141" r="2.65694" transform="rotate(90 140.564 100.141)" fill="#EA4335"/>
<circle cx="71.6124" cy="16.5834" r="2.65694" transform="rotate(90 71.6124 16.5834)" fill="#EA4335"/>
<circle cx="168.417" cy="16.5834" r="2.65694" transform="rotate(90 168.417 16.5834)" fill="#EA4335"/>
<circle cx="71.6124" cy="127.995" r="2.65694" transform="rotate(90 71.6124 127.995)" fill="#EA4335"/>
<circle cx="168.417" cy="127.995" r="2.65694" transform="rotate(90 168.417 127.995)" fill="#EA4335"/>
<circle cx="71.6124" cy="72.2882" r="2.65694" transform="rotate(90 71.6124 72.2882)" fill="#EA4335"/>
<circle cx="168.417" cy="72.2882" r="2.65694" transform="rotate(90 168.417 72.2882)" fill="#EA4335"/>
<circle cx="71.6124" cy="183.699" r="2.65694" transform="rotate(90 71.6124 183.699)" fill="#EA4335"/>
<circle cx="168.417" cy="183.699" r="2.65694" transform="rotate(90 168.417 183.699)" fill="#EA4335"/>
<circle cx="71.6124" cy="44.4359" r="2.65694" transform="rotate(90 71.6124 44.4359)" fill="#EA4335"/>
<circle cx="168.417" cy="44.4359" r="2.65694" transform="rotate(90 168.417 44.4359)" fill="#EA4335"/>
<circle cx="71.6124" cy="155.847" r="2.65694" transform="rotate(90 71.6124 155.847)" fill="#EA4335"/>
<circle cx="168.417" cy="155.847" r="2.65694" transform="rotate(90 168.417 155.847)" fill="#EA4335"/>
<circle cx="71.6124" cy="100.141" r="2.65694" transform="rotate(90 71.6124 100.141)" fill="#EA4335"/>
<circle cx="168.417" cy="100.141" r="2.65694" transform="rotate(90 168.417 100.141)" fill="#EA4335"/>
<circle cx="16.584" cy="16.5834" r="2.65694" transform="rotate(90 16.584 16.5834)" fill="#EA4335"/>
<circle cx="113.39" cy="16.5834" r="2.65694" transform="rotate(90 113.39 16.5834)" fill="#EA4335"/>
<circle cx="16.584" cy="127.995" r="2.65694" transform="rotate(90 16.584 127.995)" fill="#EA4335"/>
<circle cx="113.39" cy="127.995" r="2.65694" transform="rotate(90 113.39 127.995)" fill="#EA4335"/>
<circle cx="16.584" cy="72.2882" r="2.65694" transform="rotate(90 16.584 72.2882)" fill="#EA4335"/>
<circle cx="113.39" cy="72.2882" r="2.65694" transform="rotate(90 113.39 72.2882)" fill="#EA4335"/>
<circle cx="16.584" cy="183.699" r="2.65694" transform="rotate(90 16.584 183.699)" fill="#EA4335"/>
<circle cx="113.39" cy="183.699" r="2.65694" transform="rotate(90 113.39 183.699)" fill="#EA4335"/>
<circle cx="16.584" cy="44.4359" r="2.65694" transform="rotate(90 16.584 44.4359)" fill="#EA4335"/>
<circle cx="113.39" cy="44.4359" r="2.65694" transform="rotate(90 113.39 44.4359)" fill="#EA4335"/>
<circle cx="16.584" cy="155.847" r="2.65694" transform="rotate(90 16.584 155.847)" fill="#EA4335"/>
<circle cx="113.39" cy="155.847" r="2.65694" transform="rotate(90 113.39 155.847)" fill="#EA4335"/>
<circle cx="16.584" cy="100.141" r="2.65694" transform="rotate(90 16.584 100.141)" fill="#EA4335"/>
<circle cx="113.39" cy="100.141" r="2.65694" transform="rotate(90 113.39 100.141)" fill="#EA4335"/>
<circle cx="85.5369" cy="16.5834" r="2.65694" transform="rotate(90 85.5369 16.5834)" fill="#EA4335"/>
<circle cx="182.343" cy="16.5834" r="2.65694" transform="rotate(90 182.343 16.5834)" fill="#EA4335"/>
<circle cx="85.5369" cy="127.995" r="2.65694" transform="rotate(90 85.5369 127.995)" fill="#EA4335"/>
<circle cx="182.343" cy="127.995" r="2.65694" transform="rotate(90 182.343 127.995)" fill="#EA4335"/>
<circle cx="85.5369" cy="72.2882" r="2.65694" transform="rotate(90 85.5369 72.2882)" fill="#EA4335"/>
<circle cx="182.343" cy="72.2882" r="2.65694" transform="rotate(90 182.343 72.2882)" fill="#EA4335"/>
<circle cx="85.5369" cy="183.699" r="2.65694" transform="rotate(90 85.5369 183.699)" fill="#EA4335"/>
<circle cx="182.343" cy="183.699" r="2.65694" transform="rotate(90 182.343 183.699)" fill="#EA4335"/>
<circle cx="85.5369" cy="44.4359" r="2.65694" transform="rotate(90 85.5369 44.4359)" fill="#EA4335"/>
<circle cx="182.343" cy="44.4359" r="2.65694" transform="rotate(90 182.343 44.4359)" fill="#EA4335"/>
<circle cx="85.5369" cy="155.847" r="2.65694" transform="rotate(90 85.5369 155.847)" fill="#EA4335"/>
<circle cx="182.343" cy="155.847" r="2.65694" transform="rotate(90 182.343 155.847)" fill="#EA4335"/>
<circle cx="85.5369" cy="100.141" r="2.65694" transform="rotate(90 85.5369 100.141)" fill="#EA4335"/>
<circle cx="182.343" cy="100.141" r="2.65694" transform="rotate(90 182.343 100.141)" fill="#EA4335"/>
<circle cx="29.8324" cy="16.5834" r="2.65694" transform="rotate(90 29.8324 16.5834)" fill="#EA4335"/>
<circle cx="126.637" cy="16.5834" r="2.65694" transform="rotate(90 126.637 16.5834)" fill="#EA4335"/>
<circle cx="29.8324" cy="127.995" r="2.65694" transform="rotate(90 29.8324 127.995)" fill="#EA4335"/>
<circle cx="126.637" cy="127.995" r="2.65694" transform="rotate(90 126.637 127.995)" fill="#EA4335"/>
<circle cx="29.8324" cy="72.2882" r="2.65694" transform="rotate(90 29.8324 72.2882)" fill="#EA4335"/>
<circle cx="126.637" cy="72.2882" r="2.65694" transform="rotate(90 126.637 72.2882)" fill="#EA4335"/>
<circle cx="29.8324" cy="183.699" r="2.65694" transform="rotate(90 29.8324 183.699)" fill="#EA4335"/>
<circle cx="126.637" cy="183.699" r="2.65694" transform="rotate(90 126.637 183.699)" fill="#EA4335"/>
<circle cx="29.8324" cy="44.4359" r="2.65694" transform="rotate(90 29.8324 44.4359)" fill="#EA4335"/>
<circle cx="126.637" cy="44.4359" r="2.65694" transform="rotate(90 126.637 44.4359)" fill="#EA4335"/>
<circle cx="29.8324" cy="155.847" r="2.65694" transform="rotate(90 29.8324 155.847)" fill="#EA4335"/>
<circle cx="126.637" cy="155.847" r="2.65694" transform="rotate(90 126.637 155.847)" fill="#EA4335"/>
<circle cx="29.8324" cy="100.141" r="2.65694" transform="rotate(90 29.8324 100.141)" fill="#EA4335"/>
<circle cx="126.637" cy="100.141" r="2.65694" transform="rotate(90 126.637 100.141)" fill="#EA4335"/>
<circle cx="57.6853" cy="16.5834" r="2.65694" transform="rotate(90 57.6853 16.5834)" fill="#EA4335"/>
<circle cx="154.49" cy="16.5834" r="2.65694" transform="rotate(90 154.49 16.5834)" fill="#EA4335"/>
<circle cx="57.6853" cy="127.995" r="2.65694" transform="rotate(90 57.6853 127.995)" fill="#EA4335"/>
<circle cx="154.49" cy="127.995" r="2.65694" transform="rotate(90 154.49 127.995)" fill="#EA4335"/>
<circle cx="57.6853" cy="72.2882" r="2.65694" transform="rotate(90 57.6853 72.2882)" fill="#EA4335"/>
<circle cx="154.49" cy="72.2882" r="2.65694" transform="rotate(90 154.49 72.2882)" fill="#EA4335"/>
<circle cx="57.6853" cy="183.699" r="2.65694" transform="rotate(90 57.6853 183.699)" fill="#EA4335"/>
<circle cx="154.49" cy="183.699" r="2.65694" transform="rotate(90 154.49 183.699)" fill="#EA4335"/>
<circle cx="57.6853" cy="44.4359" r="2.65694" transform="rotate(90 57.6853 44.4359)" fill="#EA4335"/>
<circle cx="154.49" cy="44.4359" r="2.65694" transform="rotate(90 154.49 44.4359)" fill="#EA4335"/>
<circle cx="57.6853" cy="155.847" r="2.65694" transform="rotate(90 57.6853 155.847)" fill="#EA4335"/>
<circle cx="154.49" cy="155.847" r="2.65694" transform="rotate(90 154.49 155.847)" fill="#EA4335"/>
<circle cx="57.6853" cy="100.141" r="2.65694" transform="rotate(90 57.6853 100.141)" fill="#EA4335"/>
<circle cx="154.49" cy="100.141" r="2.65694" transform="rotate(90 154.49 100.141)" fill="#EA4335"/>
<circle cx="2.65694" cy="16.5834" r="2.65694" transform="rotate(90 2.65694 16.5834)" fill="#EA4335"/>
<circle cx="99.464" cy="16.5834" r="2.65694" transform="rotate(90 99.464 16.5834)" fill="#EA4335"/>
<circle cx="2.65694" cy="127.995" r="2.65694" transform="rotate(90 2.65694 127.995)" fill="#EA4335"/>
<circle cx="99.464" cy="127.995" r="2.65694" transform="rotate(90 99.464 127.995)" fill="#EA4335"/>
<circle cx="2.65694" cy="72.2882" r="2.65694" transform="rotate(90 2.65694 72.2882)" fill="#EA4335"/>
<circle cx="99.464" cy="72.2882" r="2.65694" transform="rotate(90 99.464 72.2882)" fill="#EA4335"/>
<circle cx="2.65694" cy="183.699" r="2.65694" transform="rotate(90 2.65694 183.699)" fill="#EA4335"/>
<circle cx="99.464" cy="183.699" r="2.65694" transform="rotate(90 99.464 183.699)" fill="#EA4335"/>
<circle cx="2.65694" cy="44.4359" r="2.65694" transform="rotate(90 2.65694 44.4359)" fill="#EA4335"/>
<circle cx="99.464" cy="44.4359" r="2.65694" transform="rotate(90 99.464 44.4359)" fill="#EA4335"/>
<circle cx="2.65694" cy="155.847" r="2.65694" transform="rotate(90 2.65694 155.847)" fill="#EA4335"/>
<circle cx="99.464" cy="155.847" r="2.65694" transform="rotate(90 99.464 155.847)" fill="#EA4335"/>
<circle cx="2.65694" cy="100.141" r="2.65694" transform="rotate(90 2.65694 100.141)" fill="#EA4335"/>
<circle cx="99.464" cy="100.141" r="2.65694" transform="rotate(90 99.464 100.141)" fill="#EA4335"/>
</g>
</svg>
