<svg width="83" height="83" viewBox="0 0 83 83" fill="none" xmlns="http://www.w3.org/2000/svg">
<g opacity="0.1">
<circle cx="54.8971" cy="37.1408" r="1.68034" transform="rotate(90 54.8971 37.1408)" fill="white"/>
<circle cx="54.8971" cy="1.91032" r="1.68034" transform="rotate(90 54.8971 1.91032)" fill="white"/>
<circle cx="54.8971" cy="72.3703" r="1.68034" transform="rotate(90 54.8971 72.3703)" fill="white"/>
<circle cx="54.8971" cy="54.7555" r="1.68034" transform="rotate(90 54.8971 54.7555)" fill="white"/>
<circle cx="54.8971" cy="19.526" r="1.68034" transform="rotate(90 54.8971 19.526)" fill="white"/>
<circle cx="11.2897" cy="37.1408" r="1.68034" transform="rotate(90 11.2897 37.1408)" fill="white"/>
<circle cx="72.5124" cy="37.1408" r="1.68034" transform="rotate(90 72.5124 37.1408)" fill="white"/>
<circle cx="11.2897" cy="1.91032" r="1.68034" transform="rotate(90 11.2897 1.91032)" fill="white"/>
<circle cx="72.5124" cy="1.91032" r="1.68034" transform="rotate(90 72.5124 1.91032)" fill="white"/>
<circle cx="11.2897" cy="72.3703" r="1.68034" transform="rotate(90 11.2897 72.3703)" fill="white"/>
<circle cx="72.5124" cy="72.3703" r="1.68034" transform="rotate(90 72.5124 72.3703)" fill="white"/>
<circle cx="11.2897" cy="54.7555" r="1.68034" transform="rotate(90 11.2897 54.7555)" fill="white"/>
<circle cx="72.5124" cy="54.7555" r="1.68034" transform="rotate(90 72.5124 54.7555)" fill="white"/>
<circle cx="11.2897" cy="19.526" r="1.68034" transform="rotate(90 11.2897 19.526)" fill="white"/>
<circle cx="72.5124" cy="19.526" r="1.68034" transform="rotate(90 72.5124 19.526)" fill="white"/>
<circle cx="37.7116" cy="37.1408" r="1.68034" transform="rotate(90 37.7116 37.1408)" fill="white"/>
<circle cx="37.7116" cy="1.91032" r="1.68034" transform="rotate(90 37.7116 1.91032)" fill="white"/>
<circle cx="37.7116" cy="72.3703" r="1.68034" transform="rotate(90 37.7116 72.3703)" fill="white"/>
<circle cx="37.7116" cy="54.7555" r="1.68034" transform="rotate(90 37.7116 54.7555)" fill="white"/>
<circle cx="37.7116" cy="19.526" r="1.68034" transform="rotate(90 37.7116 19.526)" fill="white"/>
<circle cx="20.0963" cy="37.1408" r="1.68034" transform="rotate(90 20.0963 37.1408)" fill="white"/>
<circle cx="81.32" cy="37.1408" r="1.68034" transform="rotate(90 81.32 37.1408)" fill="white"/>
<circle cx="20.0963" cy="1.91032" r="1.68034" transform="rotate(90 20.0963 1.91032)" fill="white"/>
<circle cx="81.32" cy="1.91032" r="1.68034" transform="rotate(90 81.32 1.91032)" fill="white"/>
<circle cx="20.0963" cy="72.3703" r="1.68034" transform="rotate(90 20.0963 72.3703)" fill="white"/>
<circle cx="81.32" cy="72.3703" r="1.68034" transform="rotate(90 81.32 72.3703)" fill="white"/>
<circle cx="20.0963" cy="54.7555" r="1.68034" transform="rotate(90 20.0963 54.7555)" fill="white"/>
<circle cx="81.32" cy="54.7555" r="1.68034" transform="rotate(90 81.32 54.7555)" fill="white"/>
<circle cx="20.0963" cy="19.526" r="1.68034" transform="rotate(90 20.0963 19.526)" fill="white"/>
<circle cx="81.32" cy="19.526" r="1.68034" transform="rotate(90 81.32 19.526)" fill="white"/>
<circle cx="46.0895" cy="37.1408" r="1.68034" transform="rotate(90 46.0895 37.1408)" fill="white"/>
<circle cx="46.0895" cy="1.91032" r="1.68034" transform="rotate(90 46.0895 1.91032)" fill="white"/>
<circle cx="46.0895" cy="72.3703" r="1.68034" transform="rotate(90 46.0895 72.3703)" fill="white"/>
<circle cx="46.0895" cy="54.7555" r="1.68034" transform="rotate(90 46.0895 54.7555)" fill="white"/>
<circle cx="46.0895" cy="19.526" r="1.68034" transform="rotate(90 46.0895 19.526)" fill="white"/>
<circle cx="2.48208" cy="37.1408" r="1.68034" transform="rotate(90 2.48208 37.1408)" fill="white"/>
<circle cx="63.7047" cy="37.1408" r="1.68034" transform="rotate(90 63.7047 37.1408)" fill="white"/>
<circle cx="2.48208" cy="1.91032" r="1.68034" transform="rotate(90 2.48208 1.91032)" fill="white"/>
<circle cx="63.7047" cy="1.91032" r="1.68034" transform="rotate(90 63.7047 1.91032)" fill="white"/>
<circle cx="2.48208" cy="72.3703" r="1.68034" transform="rotate(90 2.48208 72.3703)" fill="white"/>
<circle cx="63.7047" cy="72.3703" r="1.68034" transform="rotate(90 63.7047 72.3703)" fill="white"/>
<circle cx="2.48208" cy="54.7555" r="1.68034" transform="rotate(90 2.48208 54.7555)" fill="white"/>
<circle cx="63.7047" cy="54.7555" r="1.68034" transform="rotate(90 63.7047 54.7555)" fill="white"/>
<circle cx="2.48208" cy="19.526" r="1.68034" transform="rotate(90 2.48208 19.526)" fill="white"/>
<circle cx="63.7047" cy="19.526" r="1.68034" transform="rotate(90 63.7047 19.526)" fill="white"/>
<circle cx="28.904" cy="37.1408" r="1.68034" transform="rotate(90 28.904 37.1408)" fill="white"/>
<circle cx="28.904" cy="1.91032" r="1.68034" transform="rotate(90 28.904 1.91032)" fill="white"/>
<circle cx="28.904" cy="72.3703" r="1.68034" transform="rotate(90 28.904 72.3703)" fill="white"/>
<circle cx="28.904" cy="54.7555" r="1.68034" transform="rotate(90 28.904 54.7555)" fill="white"/>
<circle cx="28.904" cy="19.526" r="1.68034" transform="rotate(90 28.904 19.526)" fill="white"/>
<circle cx="54.8971" cy="45.9484" r="1.68034" transform="rotate(90 54.8971 45.9484)" fill="white"/>
<circle cx="54.8971" cy="10.7174" r="1.68034" transform="rotate(90 54.8971 10.7174)" fill="white"/>
<circle cx="54.8971" cy="81.1779" r="1.68034" transform="rotate(90 54.8971 81.1779)" fill="white"/>
<circle cx="54.8971" cy="63.5627" r="1.68034" transform="rotate(90 54.8971 63.5627)" fill="white"/>
<circle cx="54.8971" cy="28.3327" r="1.68034" transform="rotate(90 54.8971 28.3327)" fill="white"/>
<circle cx="11.2897" cy="45.9484" r="1.68034" transform="rotate(90 11.2897 45.9484)" fill="white"/>
<circle cx="72.5124" cy="45.9484" r="1.68034" transform="rotate(90 72.5124 45.9484)" fill="white"/>
<circle cx="11.2897" cy="10.7174" r="1.68034" transform="rotate(90 11.2897 10.7174)" fill="white"/>
<circle cx="72.5124" cy="10.7174" r="1.68034" transform="rotate(90 72.5124 10.7174)" fill="white"/>
<circle cx="11.2897" cy="81.1779" r="1.68034" transform="rotate(90 11.2897 81.1779)" fill="white"/>
<circle cx="72.5124" cy="81.1779" r="1.68034" transform="rotate(90 72.5124 81.1779)" fill="white"/>
<circle cx="11.2897" cy="63.5627" r="1.68034" transform="rotate(90 11.2897 63.5627)" fill="white"/>
<circle cx="72.5124" cy="63.5627" r="1.68034" transform="rotate(90 72.5124 63.5627)" fill="white"/>
<circle cx="11.2897" cy="28.3327" r="1.68034" transform="rotate(90 11.2897 28.3327)" fill="white"/>
<circle cx="72.5124" cy="28.3327" r="1.68034" transform="rotate(90 72.5124 28.3327)" fill="white"/>
<circle cx="37.7116" cy="45.9484" r="1.68034" transform="rotate(90 37.7116 45.9484)" fill="white"/>
<circle cx="37.7116" cy="10.7174" r="1.68034" transform="rotate(90 37.7116 10.7174)" fill="white"/>
<circle cx="37.7116" cy="81.1779" r="1.68034" transform="rotate(90 37.7116 81.1779)" fill="white"/>
<circle cx="37.7116" cy="63.5627" r="1.68034" transform="rotate(90 37.7116 63.5627)" fill="white"/>
<circle cx="37.7116" cy="28.3327" r="1.68034" transform="rotate(90 37.7116 28.3327)" fill="white"/>
<circle cx="20.0963" cy="45.9484" r="1.68034" transform="rotate(90 20.0963 45.9484)" fill="white"/>
<circle cx="81.32" cy="45.9484" r="1.68034" transform="rotate(90 81.32 45.9484)" fill="white"/>
<circle cx="20.0963" cy="10.7174" r="1.68034" transform="rotate(90 20.0963 10.7174)" fill="white"/>
<circle cx="81.32" cy="10.7174" r="1.68034" transform="rotate(90 81.32 10.7174)" fill="white"/>
<circle cx="20.0963" cy="81.1779" r="1.68034" transform="rotate(90 20.0963 81.1779)" fill="white"/>
<circle cx="81.32" cy="81.1779" r="1.68034" transform="rotate(90 81.32 81.1779)" fill="white"/>
<circle cx="20.0963" cy="63.5627" r="1.68034" transform="rotate(90 20.0963 63.5627)" fill="white"/>
<circle cx="81.32" cy="63.5627" r="1.68034" transform="rotate(90 81.32 63.5627)" fill="white"/>
<circle cx="20.0963" cy="28.3327" r="1.68034" transform="rotate(90 20.0963 28.3327)" fill="white"/>
<circle cx="81.32" cy="28.3327" r="1.68034" transform="rotate(90 81.32 28.3327)" fill="white"/>
<circle cx="46.0895" cy="45.9484" r="1.68034" transform="rotate(90 46.0895 45.9484)" fill="white"/>
<circle cx="46.0895" cy="10.7174" r="1.68034" transform="rotate(90 46.0895 10.7174)" fill="white"/>
<circle cx="46.0895" cy="81.1779" r="1.68034" transform="rotate(90 46.0895 81.1779)" fill="white"/>
<circle cx="46.0895" cy="63.5627" r="1.68034" transform="rotate(90 46.0895 63.5627)" fill="white"/>
<circle cx="46.0895" cy="28.3327" r="1.68034" transform="rotate(90 46.0895 28.3327)" fill="white"/>
<circle cx="2.48208" cy="45.9484" r="1.68034" transform="rotate(90 2.48208 45.9484)" fill="white"/>
<circle cx="63.7047" cy="45.9484" r="1.68034" transform="rotate(90 63.7047 45.9484)" fill="white"/>
<circle cx="2.48208" cy="10.7174" r="1.68034" transform="rotate(90 2.48208 10.7174)" fill="white"/>
<circle cx="63.7047" cy="10.7174" r="1.68034" transform="rotate(90 63.7047 10.7174)" fill="white"/>
<circle cx="2.48208" cy="81.1779" r="1.68034" transform="rotate(90 2.48208 81.1779)" fill="white"/>
<circle cx="63.7047" cy="81.1779" r="1.68034" transform="rotate(90 63.7047 81.1779)" fill="white"/>
<circle cx="2.48208" cy="63.5627" r="1.68034" transform="rotate(90 2.48208 63.5627)" fill="white"/>
<circle cx="63.7047" cy="63.5627" r="1.68034" transform="rotate(90 63.7047 63.5627)" fill="white"/>
<circle cx="2.48208" cy="28.3327" r="1.68034" transform="rotate(90 2.48208 28.3327)" fill="white"/>
<circle cx="63.7047" cy="28.3327" r="1.68034" transform="rotate(90 63.7047 28.3327)" fill="white"/>
<circle cx="28.904" cy="45.9484" r="1.68034" transform="rotate(90 28.904 45.9484)" fill="white"/>
<circle cx="28.904" cy="10.7174" r="1.68034" transform="rotate(90 28.904 10.7174)" fill="white"/>
<circle cx="28.904" cy="81.1779" r="1.68034" transform="rotate(90 28.904 81.1779)" fill="white"/>
<circle cx="28.904" cy="63.5627" r="1.68034" transform="rotate(90 28.904 63.5627)" fill="white"/>
<circle cx="28.904" cy="28.3327" r="1.68034" transform="rotate(90 28.904 28.3327)" fill="white"/>
</g>
</svg>
