<svg width="24" height="24" viewBox="0 0 24 24" fill="none" xmlns="http://www.w3.org/2000/svg">
<path d="M8.308 17.9971H5V14.6891L13.822 5.86715L17.131 9.17515L8.309 17.9971H8.308ZM13.822 8.36315L6.764 15.4211V16.2321H7.575L14.634 9.17515L13.823 8.36415L13.822 8.36315ZM18.013 8.29715L14.7 4.98415L16.434 3.25515C16.5156 3.17327 16.6125 3.1083 16.7192 3.06397C16.826 3.01965 16.9404 2.99683 17.056 2.99683C17.1716 2.99683 17.286 3.01965 17.3928 3.06397C17.4995 3.1083 17.5964 3.17327 17.678 3.25515L19.742 5.31915C19.8237 5.4007 19.8886 5.49758 19.9328 5.60422C19.977 5.71087 19.9998 5.82519 19.9998 5.94065C19.9998 6.05611 19.977 6.17043 19.9328 6.27708C19.8886 6.38372 19.8237 6.48059 19.742 6.56215L18.013 8.29215V8.29715Z" fill="#232C3D"/>
<path d="M21 18.9971H3V20.9971H21V18.9971Z" fill="#232C3D"/>
</svg>
