<svg width="179" height="59" fill="none" xmlns="http://www.w3.org/2000/svg"><rect width="178.124" height="58.638" rx="8" fill="#333"/><path d="M58.447 17.462h2.383v3.41c-.37.118-.747.207-1.131.268-.384.06-.828.091-1.333.091-1.061 0-1.888-.315-2.479-.944-.591-.633-.887-1.519-.887-2.657 0-.729.145-1.366.436-1.913.294-.55.716-.969 1.266-1.256.55-.291 1.194-.437 1.932-.437a5.28 5.28 0 012.091.413l-.316.72c-.633-.27-1.242-.404-1.827-.404-.854 0-1.52.254-2 .763-.48.508-.719 1.213-.719 2.114 0 .946.23 1.664.69 2.153.464.49 1.143.734 2.038.734.486 0 .96-.056 1.424-.168v-2.158h-1.568v-.729zM66.426 21.135h-3.908v-7.01h3.908v.724h-3.093v2.259h2.906v.719h-2.906v2.58h3.093v.728zM70.142 21.135h-.815V14.85h-2.22v-.724h5.255v.724h-2.22v6.286zM75.973 21.135v-7.01h.815v7.01h-.815zM80.873 21.135h-.815V14.85h-2.22v-.724h5.255v.724h-2.22v6.286zM92.789 17.62c0 1.123-.285 2.005-.854 2.647-.566.643-1.354.964-2.364.964-1.032 0-1.83-.315-2.392-.944-.56-.633-.84-1.525-.84-2.676 0-1.141.282-2.025.844-2.652.563-.63 1.362-.944 2.398-.944 1.007 0 1.793.32 2.359.959.566.64.849 1.521.849 2.647zm-5.587 0c0 .95.202 1.67.605 2.163.406.49.994.734 1.764.734.777 0 1.364-.245 1.76-.734.396-.489.594-1.21.594-2.162 0-.943-.198-1.658-.594-2.144-.393-.489-.977-.733-1.75-.733-.777 0-1.368.246-1.774.738-.403.49-.605 1.202-.605 2.139zM99.832 21.135h-.93l-3.831-5.883h-.038c.05.69.076 1.323.076 1.899v3.984h-.752v-7.01h.92l3.822 5.86h.038a52.54 52.54 0 01-.043-.83c-.022-.47-.03-.806-.024-1.007v-4.023h.762v7.01zM61.425 34.807h5.16v7.04c-.844.274-1.656.47-2.436.584-.774.116-1.611.173-2.513.173-2.123 0-3.76-.627-4.91-1.88C55.576 39.465 55 37.691 55 35.402c0-2.257.649-4.021 1.947-5.294 1.297-1.278 3.084-1.918 5.36-1.918 1.464 0 2.852.282 4.162.844l-.805 1.909c-1.138-.524-2.276-.787-3.414-.787-1.496 0-2.679.47-3.548 1.41-.87.94-1.305 2.225-1.305 3.855 0 1.714.39 3.018 1.17 3.913.787.888 1.915 1.333 3.386 1.333.741 0 1.534-.093 2.378-.278v-3.616h-2.906v-1.966zM79.128 37.09c0 1.732-.445 3.085-1.333 4.056-.889.972-2.126 1.458-3.711 1.458-.991 0-1.867-.224-2.628-.671-.76-.448-1.346-1.09-1.755-1.928-.41-.837-.614-1.81-.614-2.915 0-1.72.441-3.063 1.324-4.028.882-.965 2.126-1.448 3.73-1.448 1.534 0 2.75.496 3.644 1.486.895.985 1.343 2.315 1.343 3.99zm-7.72 0c0 2.448.905 3.673 2.714 3.673 1.79 0 2.685-1.224 2.685-3.673 0-2.423-.901-3.635-2.704-3.635-.946 0-1.634.314-2.062.94-.422.627-.633 1.525-.633 2.695zM91.134 37.09c0 1.732-.444 3.085-1.333 4.056-.888.972-2.125 1.458-3.71 1.458-.992 0-1.868-.224-2.628-.671-.761-.448-1.346-1.09-1.755-1.928-.41-.837-.614-1.81-.614-2.915 0-1.72.44-3.063 1.323-4.028.882-.965 2.126-1.448 3.73-1.448 1.535 0 2.75.496 3.645 1.486.895.985 1.342 2.315 1.342 3.99zm-7.72 0c0 2.448.905 3.673 2.714 3.673 1.79 0 2.686-1.224 2.686-3.673 0-2.423-.902-3.635-2.705-3.635-.946 0-1.633.314-2.062.94-.421.627-.632 1.525-.632 2.695zM102.69 31.806v1.237l-1.812.336c.166.223.303.498.412.824.109.326.163.672.163 1.036 0 1.093-.377 1.953-1.132 2.58-.754.626-1.793.94-3.116.94-.34 0-.646-.026-.921-.077-.486.3-.729.652-.729 1.055 0 .243.112.425.336.546.23.122.649.182 1.256.182h1.851c1.17 0 2.059.25 2.666.748.607.5.911 1.218.911 2.158 0 1.202-.496 2.13-1.486 2.781-.991.652-2.424.978-4.297.978-1.445 0-2.547-.255-3.308-.767-.761-.511-1.141-1.24-1.141-2.186 0-.652.204-1.202.613-1.65.416-.44.995-.748 1.736-.92-.3-.128-.55-.333-.748-.614a1.601 1.601 0 01-.288-.901c0-.397.112-.733.336-1.007.224-.275.556-.547.997-.816a2.99 2.99 0 01-1.342-1.15c-.339-.537-.508-1.164-.508-1.88 0-1.15.36-2.043 1.083-2.675.73-.633 1.765-.95 3.107-.95.3 0 .614.023.94.067.333.039.582.08.748.125h3.673zm-8.334 12.256c0 .486.218.86.653 1.122.44.262 1.058.393 1.85.393 1.228 0 2.142-.176 2.743-.528.601-.351.902-.818.902-1.4 0-.46-.167-.79-.499-.987-.326-.192-.937-.288-1.832-.288h-1.707c-.645 0-1.16.15-1.544.45-.377.308-.566.72-.566 1.238zm.97-8.823c0 .665.169 1.176.507 1.534.346.358.838.537 1.477.537 1.304 0 1.956-.696 1.956-2.09 0-.69-.163-1.221-.489-1.592-.32-.377-.808-.566-1.467-.566-.652 0-1.147.186-1.486.556-.333.371-.499.911-.499 1.621zM106.919 42.412h-2.253V27.491h2.253v14.921zM114.783 42.604c-1.65 0-2.941-.48-3.874-1.438-.928-.966-1.391-2.292-1.391-3.98 0-1.733.432-3.094 1.295-4.086.863-.99 2.049-1.486 3.557-1.486 1.401 0 2.507.425 3.319 1.275.811.85 1.217 2.02 1.217 3.51v1.218h-7.067c.032 1.03.31 1.822.834 2.379.524.55 1.263.824 2.215.824a8.33 8.33 0 001.746-.172 9.411 9.411 0 001.745-.595v1.832a6.92 6.92 0 01-1.669.556c-.562.109-1.205.163-1.927.163zm-.413-9.283c-.716 0-1.291.227-1.726.681-.428.454-.684 1.116-.767 1.985h4.814c-.013-.876-.224-1.538-.633-1.985-.409-.454-.972-.68-1.688-.68zM136.091 32.63c0 1.465-.479 2.587-1.438 3.367-.959.78-2.324 1.17-4.095 1.17H129.1v5.245h-2.292v-14.02h4.038c1.751 0 3.062.358 3.932 1.074.875.716 1.313 1.77 1.313 3.165zM129.1 35.24h1.218c1.177 0 2.04-.204 2.59-.614.549-.409.824-1.048.824-1.918 0-.805-.246-1.406-.738-1.803-.492-.396-1.26-.594-2.302-.594H129.1v4.929zM140.905 42.412h-2.253V27.491h2.253v14.921zM150.773 42.412l-.45-1.477h-.077c-.512.646-1.026 1.087-1.544 1.324-.518.23-1.183.345-1.995.345-1.042 0-1.857-.281-2.445-.844-.582-.563-.873-1.358-.873-2.388 0-1.093.406-1.918 1.218-2.474.812-.556 2.049-.86 3.711-.91l1.832-.059v-.565c0-.678-.16-1.183-.479-1.515-.314-.34-.803-.509-1.468-.509-.543 0-1.064.08-1.563.24-.499.16-.978.348-1.438.566l-.729-1.611a7.699 7.699 0 011.889-.681c.684-.16 1.33-.24 1.937-.24 1.349 0 2.366.294 3.05.882.69.588 1.035 1.512 1.035 2.772v7.144h-1.611zm-3.356-1.534c.818 0 1.474-.227 1.966-.681.499-.46.748-1.103.748-1.928v-.92l-1.362.057c-1.061.039-1.835.218-2.321.537-.479.314-.719.796-.719 1.448 0 .474.141.841.422 1.103.281.256.703.384 1.266.384zM153.919 31.806h2.455l2.158 6.013c.326.856.543 1.662.652 2.416h.076c.058-.351.163-.776.317-1.275.153-.505.965-2.89 2.436-7.154h2.435l-4.536 12.016c-.824 2.206-2.199 3.308-4.123 3.308-.499 0-.985-.054-1.458-.163v-1.783c.339.076.726.115 1.161.115 1.086 0 1.85-.63 2.292-1.89l.393-.997-4.258-10.606z" fill="#fff"/><path d="M32.194 28.834L13.78 46.564a3.133 3.133 0 01-1.365-2.613V13.717a3.133 3.133 0 011.365-2.614l18.413 17.73z" fill="#2196F3"/><path d="M38.637 22.64l-6.444 6.194L13.78 11.103a2.45 2.45 0 01.216-.15 3.15 3.15 0 013.18-.05l21.46 11.737z" fill="#4CAF50"/><path d="M46.445 28.834a3.183 3.183 0 01-1.665 2.83l-6.143 3.364-6.443-6.194 6.443-6.193 6.143 3.363a3.183 3.183 0 011.665 2.83z" fill="#FFC107"/><path d="M38.637 35.027l-21.46 11.737a3.192 3.192 0 01-3.18-.05 2.472 2.472 0 01-.217-.15l18.414-17.73 6.443 6.193z" fill="#F44336"/></svg>