<svg width="23" height="22" viewBox="0 0 23 22" fill="none" xmlns="http://www.w3.org/2000/svg">
<path d="M11.5 22C11.2348 22 10.9804 21.8947 10.7929 21.7072C10.6054 21.5196 10.5 21.2652 10.5 21V19.941C8.47237 19.7134 6.58225 18.8036 5.13959 17.3607C3.69692 15.9179 2.78735 14.0277 2.56 12H1.5C1.23478 12 0.980444 11.8947 0.792908 11.7072C0.605371 11.5196 0.5 11.2652 0.5 11C0.5 10.7348 0.605371 10.4804 0.792908 10.2928C0.980444 10.1053 1.23478 10 1.5 10H2.56C2.78655 7.97197 3.69602 6.08129 5.13907 4.63843C6.58211 3.19556 8.47295 2.28636 10.501 2.06006V1C10.501 0.734784 10.6063 0.480383 10.7939 0.292847C10.9814 0.10531 11.2358 0 11.501 0C11.7662 0 12.0206 0.10531 12.2081 0.292847C12.3956 0.480383 12.501 0.734784 12.501 1V2.06006C14.5289 2.28657 16.4195 3.19583 17.8623 4.63867C19.3051 6.08152 20.2145 7.97212 20.441 10H21.5C21.7652 10 22.0196 10.1053 22.2071 10.2928C22.3946 10.4804 22.5 10.7348 22.5 11C22.5 11.2652 22.3946 11.5196 22.2071 11.7072C22.0196 11.8947 21.7652 12 21.5 12H20.44C20.2127 14.0277 19.3031 15.9179 17.8604 17.3607C16.4177 18.8036 14.5276 19.7134 12.5 19.941V21C12.5 21.2652 12.3946 21.5196 12.2071 21.7072C12.0196 21.8947 11.7652 22 11.5 22ZM11.5 4C10.1155 4 8.76217 4.41052 7.61102 5.17969C6.45988 5.94886 5.56265 7.04208 5.03284 8.32117C4.50302 9.60025 4.36439 11.0077 4.63449 12.3656C4.90459 13.7235 5.57129 14.9707 6.55026 15.9497C7.52923 16.9287 8.7765 17.5954 10.1344 17.8655C11.4922 18.1356 12.8997 17.997 14.1788 17.4672C15.4579 16.9373 16.5511 16.0402 17.3203 14.889C18.0895 13.7379 18.5 12.3845 18.5 11C18.4979 9.14413 17.7597 7.36491 16.4474 6.05261C15.1351 4.74032 13.3559 4.00212 11.5 4ZM11.5 15C10.7089 15 9.93551 14.7655 9.27771 14.3259C8.61991 13.8864 8.10722 13.2617 7.80447 12.5308C7.50172 11.7999 7.42253 10.9955 7.57687 10.2196C7.73121 9.44368 8.11216 8.73104 8.67157 8.17163C9.23098 7.61222 9.94371 7.23125 10.7196 7.0769C11.4956 6.92256 12.2998 7.00169 13.0307 7.30444C13.7616 7.60719 14.3863 8.11991 14.8259 8.77771C15.2654 9.43551 15.5 10.2089 15.5 11C15.5 12.0609 15.0786 13.0782 14.3284 13.8284C13.5783 14.5785 12.5609 15 11.5 15Z" fill="#232C3D"/>
</svg>
