<svg width="17" height="17" viewBox="0 0 17 17" fill="none" xmlns="http://www.w3.org/2000/svg">
<path d="M16.7923 15.7909L11.9579 10.9565C12.8944 9.7998 13.4582 8.33 13.4582 6.72918C13.4582 3.01893 10.4393 0 6.72907 0C3.01886 0 0 3.01889 0 6.72914C0 10.4394 3.01889 13.4583 6.7291 13.4583C8.32991 13.4583 9.7997 12.8945 10.9564 11.9581L15.7907 16.7924C15.9288 16.9306 16.1101 17 16.2915 17C16.4729 17 16.6542 16.9306 16.7923 16.7924C17.0692 16.5155 17.0692 16.0678 16.7923 15.7909ZM6.7291 12.0416C3.79946 12.0416 1.41666 9.65882 1.41666 6.72914C1.41666 3.79947 3.79946 1.41664 6.7291 1.41664C9.65875 1.41664 12.0415 3.79947 12.0415 6.72914C12.0415 9.65882 9.65872 12.0416 6.7291 12.0416Z" fill="#1D262D"/>
</svg>
