<svg width="109" height="101" fill="none" xmlns="http://www.w3.org/2000/svg"><path opacity=".05" d="M53.448 94.195c24.23 0 77.375-26.74 43.873-43.904C63.818 33.128 77.677 6.387 53.448 6.387a43.868 43.868 0 00-31.028 12.86A43.916 43.916 0 009.567 50.29 43.916 43.916 0 0022.42 81.336a43.868 43.868 0 0031.028 12.86z" fill="#4285F4"/><path d="M47.342 100.002a53.817 53.817 0 0038.076-15.783 53.877 53.877 0 0015.768-38.1c0-29.76 2.791-63.06-47.463-36.32C3.47 36.54-15.676 39.336 14.233 60.09c29.91 20.752 3.372 39.913 33.109 39.913z" fill="#EDF3FD"/><path d="M70.667 65H47.333A3.333 3.333 0 0144 61.667V38.333A3.333 3.333 0 0147.333 35H54.3a4.98 4.98 0 019.4 0h6.967A3.333 3.333 0 0174 38.333v23.334A3.333 3.333 0 0170.667 65zM52.333 55a1.667 1.667 0 000 3.333h8.334a1.667 1.667 0 000-3.333h-8.334zm0-6.667a1.667 1.667 0 000 3.334h13.334a1.667 1.667 0 000-3.334H52.333zm0-6.666a1.667 1.667 0 000 3.333h13.334a1.667 1.667 0 000-3.333H52.333zM59 35a1.667 1.667 0 100 3.334A1.667 1.667 0 0059 35z" fill="#4285F4"/></svg>