<svg width="109" height="101" fill="none" xmlns="http://www.w3.org/2000/svg"><path opacity=".05" d="M53.448 94.196c24.23 0 77.375-26.74 43.873-43.904C63.818 33.129 77.677 6.388 53.448 6.388A43.868 43.868 0 0022.42 19.247 43.917 43.917 0 009.567 50.292 43.916 43.916 0 0022.42 81.337a43.868 43.868 0 0031.028 12.859z" fill="#34A853"/><path d="M47.342 100.002a53.817 53.817 0 0038.076-15.783 53.877 53.877 0 0015.768-38.1c0-29.76 2.791-63.06-47.463-36.32C3.47 36.54-15.676 39.336 14.233 60.09c29.91 20.752 3.372 39.913 33.109 39.913z" fill="#EBF7EE"/><path d="M69 65H54a3.333 3.333 0 01-3.333-3.333v-16.65c0-.88.347-1.725.966-2.35l9.234-9.234a2.451 2.451 0 011.76-.74c.657 0 1.288.26 1.755.723a2.519 2.519 0 01.683 2.284l-1.583 7.635h9.416a5.008 5.008 0 014.6 6.968l-5.433 12.682A3.357 3.357 0 0169 65zm-25 0a3.333 3.333 0 01-3.333-3.333V48.333a3.333 3.333 0 116.666 0v13.334A3.333 3.333 0 0144 65z" fill="#34A853"/></svg>