<svg width="179" height="60" viewBox="0 0 179 60" fill="none" xmlns="http://www.w3.org/2000/svg">
<rect y="0.637451" width="178.124" height="58.6375" rx="8" fill="#333333"/>
<path d="M48.1379 12.8906H13.7327C13.7272 12.8906 13.7227 12.8951 13.7227 12.9006V47.0117C13.7227 47.0173 13.7272 47.0217 13.7327 47.0217H48.1379C48.1435 47.0217 48.148 47.0173 48.148 47.0117V12.9006C48.148 12.8951 48.1435 12.8906 48.1379 12.8906Z" fill="#37AEE2"/>
<path d="M27.1038 39.8222C26.3642 39.8222 26.4314 39.5556 26.2297 38.889L24.0781 31.8894L40.5512 22.29" fill="#C8DAEA"/>
<path d="M27.1016 39.8223C27.5722 39.8223 27.8412 39.5557 28.1774 39.289L31.203 36.4225L27.4377 34.156" fill="#A9C9DD"/>
<path d="M27.4374 34.1559L36.5144 40.7554C37.4557 41.3554 38.2625 41.0221 38.5315 39.8222L42.2295 22.6233C42.5657 21.1567 41.6244 20.4901 40.6158 20.9567L19.0328 29.2229C17.6208 29.7562 17.6208 30.6228 18.7638 30.9561L24.3445 32.6893L37.1195 24.6232C37.7246 24.2898 38.2625 24.4232 37.8591 24.8898" fill="#F6FBFE"/>
<path d="M63.1097 37.2751V23.3934H57.2812V21.1846H72.3052V23.3934H66.4892V37.2751H63.1097ZM84.389 36.8709C82.8451 37.3209 81.3819 37.5459 79.9991 37.5459C77.9859 37.5459 76.3981 36.9802 75.2359 35.8488C74.0737 34.7174 73.4926 33.1723 73.4926 31.2134C73.4926 29.3625 74.0234 27.8755 75.0849 26.7522C76.1529 25.6208 77.5612 25.0551 79.31 25.0551C81.0735 25.0551 82.3611 25.6063 83.1728 26.7087C83.9845 27.8111 84.3903 29.5558 84.3903 31.9429H76.9161C77.1357 34.2112 78.3977 35.3453 80.7019 35.3453C81.8001 35.3453 83.0291 35.0949 84.389 34.594V36.8709ZM76.8708 30.1247H81.1947C81.1947 28.086 80.5326 27.0666 79.2085 27.0666C77.8632 27.0666 77.084 28.086 76.8708 30.1247ZM87.7479 37.2751V20.0945H90.997V37.2751H87.7479ZM104.89 36.8709C103.346 37.3209 101.883 37.5459 100.5 37.5459C98.4869 37.5459 96.8991 36.9802 95.7369 35.8488C94.5747 34.7174 93.9936 33.1723 93.9936 31.2134C93.9936 29.3625 94.5244 27.8755 95.5859 26.7522C96.6539 25.6208 98.0622 25.0551 99.811 25.0551C101.574 25.0551 102.862 25.6063 103.674 26.7087C104.485 27.8111 104.891 29.5558 104.891 31.9429H97.4184C97.6381 34.2112 98.9 35.3453 101.204 35.3453C102.302 35.3453 103.531 35.0949 104.891 34.594L104.89 36.8709ZM97.3718 30.1247H101.696C101.696 28.086 101.034 27.0666 99.7095 27.0666C98.3642 27.0666 97.585 28.086 97.3718 30.1247ZM108.337 40.985L108.6 38.6442C109.939 39.2539 111.22 39.5588 112.444 39.5588C113.633 39.5588 114.501 39.3047 115.045 38.7966C115.579 38.2886 115.847 37.4652 115.847 36.3265V34.6934C115.057 36.4127 113.751 37.2724 111.929 37.2724C110.495 37.2724 109.358 36.743 108.517 35.6842C107.675 34.6181 107.254 33.1782 107.254 31.3645C107.254 29.4565 107.725 27.9295 108.668 26.7835C109.61 25.6313 110.865 25.0551 112.431 25.0551C113.66 25.0551 114.798 25.5483 115.844 26.5345L116.184 25.3273H119.104V34.4457C119.104 36.2666 118.991 37.5795 118.764 38.3843C118.544 39.1891 118.113 39.8695 117.469 40.4257C116.387 41.3539 114.861 41.8179 112.893 41.8179C111.495 41.8179 109.985 41.5349 108.363 40.9687L108.337 40.985ZM115.832 32.8248V28.4194C115.049 27.542 114.226 27.1034 113.361 27.1034C112.542 27.1034 111.891 27.4735 111.407 28.2139C110.924 28.9543 110.683 29.9523 110.683 31.208C110.683 33.5434 111.44 34.7111 112.954 34.7111C114 34.7111 114.955 34.0873 115.819 32.8398L115.832 32.8248ZM123.088 37.2751V25.326H126.337V27.5783C127.179 25.8953 128.459 25.0538 130.177 25.0538C130.382 25.0538 130.584 25.0756 130.781 25.1191V27.9771C130.32 27.8102 129.892 27.7267 129.498 27.7267C128.203 27.7267 127.149 28.3754 126.337 29.6728V37.2574L123.088 37.2751ZM139.219 35.9904C138.137 37.0274 136.977 37.5459 135.741 37.5459C134.689 37.5459 133.833 37.2266 133.174 36.5878C132.515 35.9491 132.186 35.1221 132.186 34.1068C132.186 32.7867 132.716 31.7705 133.778 31.0583C134.846 30.3397 136.371 29.9804 138.355 29.9804H139.222V28.8917C139.222 27.6514 138.508 27.0312 137.081 27.0312C135.815 27.0312 134.535 27.3869 133.24 28.0982V25.8799C134.711 25.3282 136.167 25.0524 137.608 25.0524C140.761 25.0524 142.338 26.2963 142.338 28.7841V34.0728C142.338 35.0073 142.627 35.4746 143.206 35.4746C143.337 35.4746 143.52 35.4346 143.755 35.3548V37.2247C143.067 37.428 142.459 37.5296 141.933 37.5296C140.602 37.5296 139.746 37.0111 139.366 35.974L139.219 35.9904ZM139.219 34.262V31.8354H138.451C137.471 31.8354 136.7 32.0096 136.135 32.358C135.579 32.7064 135.3 33.185 135.3 33.7938C135.3 34.2366 135.45 34.6099 135.751 34.9139C136.058 35.2115 136.435 35.3602 136.88 35.3602C137.64 35.3602 138.419 34.9937 139.218 34.2606L139.219 34.262ZM146.529 37.2737V25.3246H149.645V27.577C150.597 25.8939 151.95 25.0524 153.705 25.0524C154.62 25.0524 155.366 25.2738 155.943 25.7166C156.528 26.1593 156.887 26.7795 157.019 27.577C158.145 25.8939 159.505 25.0524 161.101 25.0524C163.304 25.0524 164.405 26.2564 164.405 28.6644V37.271H161.289V29.7178C161.289 28.3024 160.813 27.5947 159.862 27.5947C158.889 27.5947 157.942 28.291 157.02 29.6837V37.2683H153.904V29.715C153.904 28.2933 153.425 27.5824 152.467 27.5824C151.509 27.5824 150.569 28.2824 149.646 29.6824V37.2669L146.529 37.2737Z" fill="#F6FBFE"/>
</svg>
