<svg width="43" height="29" fill="none" xmlns="http://www.w3.org/2000/svg"><path fill-rule="evenodd" clip-rule="evenodd" d="M2.636 0h36.91a2.639 2.639 0 012.636 2.636v23.728A2.637 2.637 0 0139.545 29H2.636A2.639 2.639 0 010 26.364V2.636A2.64 2.64 0 012.636 0zm2.637 19.773c0 .727.59 1.318 1.318 1.318h2.636c.549 0 1.042-.34 1.232-.854L14.413 9.69a1.319 1.319 0 00-2.468-.928l-3.633 9.691H7.91V9.227c0-.727-.59-1.318-1.318-1.318H5.273a1.319 1.319 0 000 2.637v9.227zm8.905 1.278a1.316 1.316 0 001.6-.96l2.637-10.545a1.317 1.317 0 00-.96-1.597 1.312 1.312 0 00-1.6.96L13.22 19.453a1.319 1.319 0 00.96 1.597zm7.5.032c.908 0 1.725-.19 2.442-.572a4.413 4.413 0 002.175-2.72c.316-1.155.087-2.893-2.8-4.614l-.013-.009c-.411-.245-1.46-.873-1.595-1.42v-.003c-.014-.062-.053-.239.169-.601.495-.802 2.407-.643 3.195-.443a1.321 1.321 0 001.6-.957 1.313 1.313 0 00-.951-1.598c-.448-.116-4.443-1.038-6.085 1.614-.667 1.078-.633 2.017-.488 2.615.4 1.627 2.035 2.6 2.818 3.063 1.216.725 1.683 1.366 1.603 1.656-.06.222-.263.77-.867 1.089-.728.385-1.843.345-3.214-.124a1.32 1.32 0 00-.849 2.5c1.034.35 1.988.527 2.86.524zm13.913.008c.727 0 1.318-.59 1.318-1.318V9.227c0-.727-.59-1.318-1.318-1.318h-2.636c-.499 0-.955.282-1.181.728L26.5 19.182a1.32 1.32 0 001.18 1.909c.483 0 .947-.269 1.18-.728l1.613-3.227h3.799v2.637c0 .727.59 1.318 1.318 1.318zm-3.8-6.591l1.978-3.954h.504V14.5h-2.481z" fill="#5A616E"/></svg>