<svg width="18" height="16" viewBox="0 0 18 16" fill="none" xmlns="http://www.w3.org/2000/svg">
<path d="M8.82594 0.438423C8.9833 -0.00551602 9.61112 -0.00551614 9.76848 0.438423L11.4937 5.30571C11.5645 5.50528 11.7533 5.63866 11.965 5.63866H17.449C17.9438 5.63866 18.138 6.28052 17.7261 6.55481L13.3665 9.45832C13.1758 9.5853 13.0958 9.82561 13.1724 10.0415L14.8549 14.7882C15.0155 15.2413 14.5066 15.6379 14.1064 15.3714L9.57437 12.353C9.40651 12.2412 9.18791 12.2412 9.02005 12.353L4.48798 15.3714C4.08787 15.6379 3.57895 15.2413 3.73956 14.7882L5.42205 10.0415C5.49858 9.82561 5.4186 9.5853 5.22793 9.45832L0.868295 6.55481C0.45645 6.28053 0.650628 5.63866 1.14545 5.63866H6.62942C6.84117 5.63866 7.02995 5.50528 7.10069 5.30571L8.82594 0.438423Z" fill="#F69D0D"/>
</svg>
